<svg width="38" height="38" viewBox="0 0 38 38" fill="none" xmlns="http://www.w3.org/2000/svg">
<g id="Group 29613403">
<circle id="Ellipse 391" cx="19" cy="19" r="17.9" stroke="#FFFDFA" stroke-width="2.2"/>
<g id="XMLID_834_">
<path id="XMLID_835_" d="M13.3512 19.5979H15.7382V29.4247C15.7382 29.6187 15.8954 29.7759 16.0894 29.7759H20.1367C20.3307 29.7759 20.4879 29.6187 20.4879 29.4247V19.6441H23.2319C23.4104 19.6441 23.5605 19.5103 23.5808 19.333L23.9976 15.7153C24.0091 15.6157 23.9775 15.5161 23.9109 15.4414C23.8443 15.3667 23.7489 15.3239 23.6488 15.3239H20.488V13.0561C20.488 12.3725 20.8561 12.0258 21.5822 12.0258C21.6856 12.0258 23.6488 12.0258 23.6488 12.0258C23.8428 12.0258 24 11.8685 24 11.6746V8.35382C24 8.15981 23.8428 8.0026 23.6488 8.0026H20.8007C20.7806 8.00162 20.736 8 20.6703 8C20.1761 8 18.4584 8.09701 17.1015 9.34526C15.5981 10.7285 15.8071 12.3848 15.8571 12.6719V15.3238H13.3512C13.1572 15.3238 13 15.481 13 15.675V19.2466C13 19.4406 13.1572 19.5979 13.3512 19.5979Z" fill="#FFFDFA"/>
</g>
</g>
</svg>
