<svg width="198" height="32" viewBox="0 0 198 32" fill="none" xmlns="http://www.w3.org/2000/svg">
<g id="higgins-logo" clip-path="url(#clip0_2529_523)">
<g id="Page-1">
<g id="HigginsLogoModifyGreen">
<path id="Combined-Shape" d="M197.704 20.8131C197.704 14.0735 193.442 11.9837 186.557 10.7951C183.214 10.2204 181.401 9.52163 181.401 7.51673C181.401 5.76653 182.867 4.63673 185.13 4.63673C187.393 4.63673 190.459 5.83184 191.951 8.49633H194.741C194.876 8 195.268 6.59592 195.647 5.23102C195.988 4.0098 196.316 2.82122 196.444 2.35102C193.989 1.25388 189.778 0.11102 185.085 0.11102C181.601 0.11102 178.47 0.979592 176.278 2.55347C173.944 4.23184 172.71 6.65469 172.71 9.56735C172.71 14.7135 176.027 17.8808 182.565 18.9845C187.412 19.8073 188.807 20.6629 188.807 22.8114C188.807 25.0776 186.763 26.0963 184.731 26.0963C182.057 26.0963 178.509 24.8816 177.204 21.4857H174.388L173.931 23.1837C173.462 24.9273 172.806 27.3567 172.62 28.062C174.709 29.1135 178.952 30.7722 184.931 30.7722C190.909 30.7722 197.704 28.1665 197.704 20.8131ZM169.811 4.57143L169.676 3.89878C169.464 2.82775 169.129 1.16898 169.014 0.594286H158.509L158.201 2.12245C158.014 3.04327 157.809 4.0751 157.712 4.57143C159.692 4.77388 160.104 5.85143 160.104 7.49714V13.662C160.104 14.9747 160.316 17.169 160.322 17.2669L159.846 17.3453C159.846 17.3453 159.551 16.209 157.461 13.3355C157.461 13.3355 149.516 1.92653 148.59 0.594286H138.69C138.549 1.31265 138.06 3.73551 137.893 4.57143C139.873 4.78041 140.278 5.85143 140.278 7.49714V23.3665C140.278 25.0122 139.873 26.0898 137.893 26.2922C138.06 27.1282 138.542 29.551 138.69 30.2694H149.201L149.471 28.9175C149.664 27.9576 149.895 26.8147 149.998 26.2922C148.011 26.0833 147.606 25.0122 147.606 23.3665V15.4645C147.606 14.0082 147.471 12.0163 147.394 11.5722C147.388 11.5396 147.381 11.5135 147.375 11.4873L147.844 11.3829C147.844 11.3829 147.857 11.4286 147.857 11.4547C147.934 11.7812 148.397 13.1722 149.535 14.8637C149.953 15.458 159.364 28.9371 160.296 30.2694H167.419V7.49714C167.419 5.85143 167.831 4.78041 169.811 4.57143ZM134.113 26.2922C132.126 26.0833 131.715 25.0122 131.715 23.36V7.49714C131.715 5.85143 132.126 4.77388 134.113 4.57143C133.946 3.73551 133.464 1.31265 133.316 0.594286H121.05L120.819 1.73714C120.619 2.7298 120.362 4.0098 120.253 4.57143C122.239 4.77388 122.644 5.85143 122.644 7.49714V23.3665C122.644 25.0188 122.233 26.0898 120.253 26.2988C120.375 26.9127 120.677 28.4147 120.883 29.44L121.05 30.2759H133.316C133.457 29.5641 133.939 27.1739 134.106 26.3184V26.2988L134.113 26.2922ZM104.413 15.3012L103.622 19.2392C104.111 19.2653 104.503 19.3306 104.818 19.4286C105.107 19.5265 105.332 19.6506 105.519 19.8008L105.795 20.0751C105.834 20.1208 106.033 20.4278 106.033 20.4278C106.059 20.48 106.194 20.8261 106.194 20.8261C106.206 20.8588 106.219 20.911 106.341 21.7012L106.361 22.191V25.391L105.666 25.5347C105.313 25.6065 104.271 25.8024 103.674 25.8024C99.4757 25.8024 97.6886 22.6678 97.6886 15.3078C97.6886 6.85061 101.559 5.87102 104.464 5.87102C107.659 5.87102 109.575 7.21633 110.655 10.2204H113.22C113.484 9.20163 114.756 4.33633 115.014 3.35673C113.413 2.27918 109.864 0 103.564 0C98.82 0 94.8279 1.35184 92.0314 3.91184C89.1193 6.57633 87.5764 10.5208 87.5764 15.3143C87.5764 25.9592 92.9443 31.3535 103.532 31.3535C107.023 31.3535 108.874 31.0727 110.661 30.8049C111.825 30.6286 113.13 30.4327 114.962 30.3282C115.097 29.4922 115.624 26.3576 115.624 26.3576L115.637 26.2596L115.251 26.129C115.213 26.1094 115.059 26.0114 115.059 26.0114C115.039 25.9984 114.917 25.8808 114.917 25.8808L114.737 25.6653L114.621 25.4694L114.48 25.0906C114.396 24.7575 114.358 24.3853 114.358 23.9216V22.2041C114.364 21.538 114.429 21.0743 114.57 20.689C114.679 20.4082 114.808 20.1861 114.988 19.9967L115.091 19.8988L115.149 19.9576L115.104 19.8988L115.206 19.8008C115.226 19.7812 115.367 19.6898 115.367 19.6898L115.862 19.4482C116.196 19.3306 116.595 19.2653 117.103 19.2392C116.936 18.3967 116.454 16.0131 116.312 15.3012H104.419H104.413ZM72.6043 15.3012C72.45 16.0653 71.9229 18.671 71.9229 18.671L71.8071 19.2392C72.2957 19.2653 72.6879 19.3306 73.0029 19.4286C73.2857 19.5265 73.5171 19.6506 73.7036 19.8008L73.7679 19.8531L73.9864 20.0751C74.025 20.1273 74.2179 20.4278 74.2179 20.4278C74.25 20.48 74.3786 20.8261 74.3786 20.8261C74.3914 20.8588 74.4043 20.911 74.5264 21.7012L74.5393 22.191V25.391L73.8 25.5478C73.4914 25.6065 72.45 25.809 71.8521 25.809C67.6543 25.809 65.8671 22.6743 65.8671 15.3143C65.8671 6.85714 69.7371 5.87755 72.6429 5.87755C75.8379 5.87755 77.7536 7.22286 78.8336 10.2269H81.3921C81.5529 9.61959 82.0671 7.63429 82.5171 5.92326L83.1857 3.36327C81.585 2.28571 78.0364 0.00653061 71.7364 0.00653061C66.9857 0.00653061 63 1.35837 60.2036 3.91837C57.2914 6.58286 55.7486 10.5208 55.7486 15.3208C55.7486 25.9657 61.1164 31.36 71.7043 31.36C75.195 31.36 77.04 31.0792 78.8271 30.8114C79.9971 30.6351 81.3021 30.4392 83.1343 30.3347C83.2757 29.4988 83.7964 26.3641 83.7964 26.3641L83.8157 26.2661L83.43 26.1355L83.2436 26.018C83.2243 26.0049 83.1021 25.8873 83.1021 25.8873L82.9221 25.6718L82.665 25.0906C82.5814 24.7641 82.5429 24.3918 82.5429 23.9282V22.2106C82.5493 21.5445 82.6136 21.0808 82.755 20.6955C82.8643 20.4147 82.9929 20.1927 83.1729 20.0033L83.2693 19.9053L83.34 19.9706L83.2886 19.8988L83.3914 19.8008C83.43 19.7682 83.5457 19.6898 83.5457 19.6898L84.0407 19.4482C84.375 19.3306 84.7736 19.2653 85.2814 19.2392C85.1079 18.3967 84.6321 16.0131 84.4907 15.3012H72.5979H72.6043ZM50.4386 23.3665V7.49714C50.4386 5.85143 50.85 4.77388 52.8364 4.57143L52.0393 0.594286H39.78C39.6321 1.31265 39.15 3.73551 38.9764 4.57143C40.9629 4.78041 41.3679 5.85143 41.3679 7.49714V23.3665C41.3679 25.0122 40.9564 26.0898 38.9764 26.2988L39.78 30.2759H52.0393L52.8364 26.2988C50.85 26.0898 50.4386 25.0188 50.4386 23.3665ZM34.92 26.6318C33.8979 26.5339 33.2614 26.2335 32.8693 25.6522L32.76 25.4498L32.7021 25.3322C32.5543 24.9665 32.4836 24.6139 32.4514 24.1306L32.3871 22.831L32.4321 22.929C32.4321 21.6163 32.4321 17.9135 32.4321 7.34041L32.445 6.86367C32.5029 5.76 32.7857 5.11347 33.3964 4.70857H33.39C33.39 4.70857 33.4157 4.68898 33.5314 4.61714C33.5636 4.59755 33.8657 4.46041 33.8657 4.46041C33.9236 4.44082 34.2836 4.32327 34.2836 4.32327H34.29C34.29 4.32327 34.3157 4.31673 34.92 4.2449C34.7657 3.46776 34.3221 1.26694 34.1807 0.587755H21.9407C21.8057 1.26694 21.3557 3.46122 21.2014 4.23837L21.7286 4.29061L22.1914 4.42776C23.4257 4.85224 23.6379 5.9298 23.6829 6.81143L23.6957 7.31429V12.258H11.2179V7.32082L11.2243 6.92898L11.2436 6.66122C11.2821 6.21714 11.3464 5.87755 11.4621 5.5902L11.5393 5.39429H11.5521L11.61 5.27673H11.6229L11.6421 5.23755C11.6743 5.19184 11.9314 4.8849 11.9314 4.8849C11.9636 4.85224 12.0921 4.74776 12.0921 4.74776L12.33 4.59102L12.6386 4.44082L12.7479 4.40163L13.3007 4.21224L13.2686 4.27755C13.365 4.26449 13.5 4.25143 13.7057 4.22531L13.3907 2.67102C13.2236 1.84163 13.0436 0.96 12.9664 0.568163H0.739286C0.623571 1.14939 0.282857 2.83429 0.09 3.79429L0.00642857 4.21878L0.501429 4.27102C0.54 4.27755 0.977143 4.40816 0.977143 4.40816C2.22429 4.84571 2.475 5.88408 2.475 7.30775V23.5429C2.475 24.5094 2.36571 25.489 1.59429 26.0898L1.13143 26.3837L1.11857 26.3641C0.822857 26.4816 0.45 26.56 0 26.5992C0.160714 27.3829 0.597857 29.5706 0.732857 30.2433H12.9729L13.7121 26.5992C12.6836 26.5012 12.0214 26.1812 11.6421 25.5935L11.4557 25.2147L11.3593 24.9339L11.3271 24.7967H11.3336C11.3079 24.6922 11.2821 24.5355 11.25 24.3135C11.25 24.3004 11.2371 24.1633 11.2371 24.1633L11.2179 23.9282V23.889L11.1021 22.0212L11.2114 22.3412V18.0767H23.6893V23.9478L23.67 24.0784C23.6379 24.5682 23.5671 24.9404 23.4386 25.2604L23.2521 25.6C23.04 25.9135 22.7764 26.142 22.4421 26.3053C22.1079 26.4555 21.7093 26.5535 21.195 26.5927L21.33 27.2522C21.5293 28.2318 21.825 29.7012 21.9343 30.2367H34.1743C34.2579 29.8253 34.4571 28.8522 34.6307 27.9771L34.9136 26.5927L34.92 26.6318Z" fill="#07310C"/>
</g>
</g>
</g>
<defs>
<clipPath id="clip0_2529_523">
<rect width="198" height="32" fill="white"/>
</clipPath>
</defs>
</svg>
