<svg width="248" height="58" viewBox="0 0 248 58" fill="none" xmlns="http://www.w3.org/2000/svg">
<g id="kainga-ora-logo" clip-path="url(#clip0_2529_527)">
<g id="Logos-/-KO-logo">
<g id="Group">
<path id="Fill-1" fill-rule="evenodd" clip-rule="evenodd" d="M17.5413 0.023517L0.0182886 0.0185547L0.00491694 17.5505C-0.0797703 19.1011 0.957547 20.1682 0.957547 20.1682L9.77475 28.9943L16.5562 22.2063C16.7264 21.999 16.948 21.5598 16.4286 21.0029C16.4265 21.0009 16.4257 20.9992 16.4237 20.9968L9.24069 13.8068L13.7931 9.24998L20.9304 16.3937C20.949 16.4095 20.9664 16.4217 20.9863 16.4404C21.543 16.9603 21.9819 16.7385 22.1889 16.5677L28.9659 9.78415L20.4028 1.21313L20.1487 0.958412C20.1487 0.958412 19.0903 -0.0608466 17.5413 0.023517Z" fill="#44B038"/>
<path id="Fill-2" fill-rule="evenodd" clip-rule="evenodd" d="M57.9071 17.5578L57.9124 0.0183063L40.3975 0.0049217C38.8484 -0.0798475 37.7823 0.958474 37.7823 0.958474L37.5279 1.21278L28.9647 9.7838L35.7462 16.5722C35.9532 16.7426 36.3921 16.9644 36.9484 16.4445C36.9504 16.442 36.9521 16.4412 36.9541 16.4396L44.1375 9.24963L48.69 13.8061L41.5531 20.9506C41.5373 20.9693 41.5252 20.9863 41.5061 21.0062C40.9871 21.5635 41.2083 22.0027 41.3789 22.2104L48.1559 28.994L56.9731 20.1678C56.9731 20.1678 57.9918 19.1088 57.9071 17.5578Z" fill="#AABD00"/>
<path id="Fill-3" fill-rule="evenodd" clip-rule="evenodd" d="M40.391 57.9655L57.914 57.9708L57.9274 40.439C58.0121 38.8884 56.9752 37.8209 56.9752 37.8209L56.7207 37.5665L48.1576 28.9951L41.3761 35.7827C41.2059 35.9904 40.9843 36.4297 41.5037 36.9865C41.5058 36.9886 41.5066 36.9902 41.5086 36.9922L48.6916 44.1822L44.1392 48.7395L37.0023 41.5957C36.9833 41.5795 36.9663 41.5677 36.946 41.5483C36.3893 41.0291 35.9504 41.2506 35.7434 41.4213L28.9664 48.2045L37.7836 57.0306C37.7836 57.0306 38.842 58.0503 40.391 57.9655Z" fill="#44B038"/>
<path id="Fill-4" fill-rule="evenodd" clip-rule="evenodd" d="M0.0251651 40.4309L0.0198975 57.9708L17.5348 57.9842C19.0839 58.0689 20.1503 57.0306 20.1503 57.0306L28.9676 48.2049L22.1861 41.4168C21.979 41.2465 21.5402 41.0246 20.9834 41.5446C20.9818 41.5466 20.9802 41.5475 20.9782 41.5495L13.7948 48.7395L9.2419 44.1826L16.3791 37.0385C16.3949 37.0198 16.4071 37.0024 16.4257 36.9825C16.9452 36.4252 16.724 35.9859 16.553 35.7787L9.77636 28.9951L0.958751 37.8209C0.958751 37.8209 -0.0599274 38.8803 0.0251651 40.4309Z" fill="#007749"/>
<path id="Fill-5" fill-rule="evenodd" clip-rule="evenodd" d="M78.7653 18.2339L88.4963 31.3358H81.6678L73.5293 19.8676V31.3358H67.7973V5.35547H73.5293V16.8983L81.7022 5.35547H88.4963L78.7653 18.2339Z" fill="#2D302F"/>
<path id="Fill-6" fill-rule="evenodd" clip-rule="evenodd" d="M109.78 31.3346H115.159V13.4463H109.78V31.3346Z" fill="#2D302F"/>
<path id="Fill-7" fill-rule="evenodd" clip-rule="evenodd" d="M115.758 8.28202C115.758 10.1173 114.287 11.6051 112.472 11.6051C110.656 11.6051 109.185 10.1173 109.185 8.28202C109.185 6.4467 110.656 4.95898 112.471 4.95898C114.287 4.95898 115.758 6.4467 115.758 8.28202Z" fill="#2D302F"/>
<path id="Fill-8" fill-rule="evenodd" clip-rule="evenodd" d="M118.483 13.4471H123.897V16.0441C124.888 14.0413 126.834 12.9648 129.417 12.9648C133.556 12.9648 135.644 15.4142 135.644 20.2761V31.3354H130.195V22.1313C130.195 19.125 129.382 17.7517 127.188 17.7517C125.029 17.7517 123.897 19.2361 123.897 21.982V31.3354H118.483V13.4471Z" fill="#2D302F"/>
<path id="Fill-9" fill-rule="evenodd" clip-rule="evenodd" d="M156.662 13.4471V30.1856C156.628 33.6368 155.46 36.0119 153.372 37.5337C151.816 38.684 149.728 39.1285 147.286 39.1285C144.845 39.1285 142.792 38.7217 141.129 37.6814C139.395 36.568 138.156 34.6386 138.086 32.7084H143.606C143.853 34.1186 145.022 34.9716 147.215 34.9716C149.728 34.9716 151.249 34.0075 151.249 30.8159V28.4403C150.4 30.2221 148.136 31.3354 145.905 31.3354C140.846 31.3354 137.802 27.4758 137.802 22.2055C137.802 16.9364 141.059 12.9648 145.977 12.9648C148.312 12.9648 150.4 14.1528 151.249 16.008V13.4471H156.662ZM151.496 22.2805C151.496 19.6823 149.975 17.604 147.393 17.604C144.95 17.604 143.358 19.5708 143.358 22.2805C143.358 24.9891 144.95 26.9558 147.393 26.9558C149.975 26.9558 151.496 24.8776 151.496 22.2805Z" fill="#2D302F"/>
<path id="Fill-10" fill-rule="evenodd" clip-rule="evenodd" d="M158.821 22.3909C158.821 17.0463 161.968 12.9648 166.924 12.9648C169.399 12.9648 171.346 14.1889 172.266 16.008V13.4471H177.644V31.3358H172.266V28.8126C171.346 30.594 169.223 31.8181 166.851 31.8181C161.756 31.8181 158.821 27.7723 158.821 22.3909ZM172.478 22.3909C172.478 19.8303 171.097 17.7156 168.409 17.7156C165.896 17.7156 164.34 19.6823 164.34 22.3909C164.34 25.1006 165.896 27.1047 168.409 27.1047C171.097 27.1047 172.478 24.9891 172.478 22.3909Z" fill="#2D302F"/>
<path id="Fill-11" fill-rule="evenodd" clip-rule="evenodd" d="M186.922 18.3451C186.922 10.96 191.84 4.61328 200.155 4.61328C208.469 4.61328 213.388 10.96 213.388 18.3451C213.388 25.7314 208.469 32.0769 200.155 32.0769C191.84 32.0769 186.922 25.7314 186.922 18.3451ZM207.409 18.3451C207.409 13.8174 204.861 9.99552 200.155 9.99552C195.414 9.99552 192.866 13.8174 192.901 18.3451C192.866 22.874 195.414 26.6963 200.155 26.6963C204.861 26.6963 207.409 22.874 207.409 18.3451Z" fill="#2D302F"/>
<path id="Fill-12" fill-rule="evenodd" clip-rule="evenodd" d="M215.677 13.4463H221.091V17.1948C221.693 14.5224 223.709 13.1494 225.797 13.1494C226.434 13.1494 226.788 13.1859 227.212 13.2971V18.5677C226.576 18.4939 226.256 18.4562 225.584 18.4562C222.931 18.4562 221.091 20.126 221.091 24.4318V31.3346H215.677V13.4463Z" fill="#2D302F"/>
<path id="Fill-13" fill-rule="evenodd" clip-rule="evenodd" d="M228.584 22.3909C228.584 17.0463 231.732 12.9648 236.687 12.9648C239.163 12.9648 241.11 14.1889 242.029 16.008V13.4471H247.408V31.3358H242.029V28.8126C241.11 30.594 238.986 31.8181 236.615 31.8181C231.52 31.8181 228.584 27.7723 228.584 22.3909ZM242.242 22.3909C242.242 19.8303 240.862 17.7156 238.173 17.7156C235.66 17.7156 234.104 19.6823 234.104 22.3909C234.104 25.1006 235.66 27.1047 238.173 27.1047C240.862 27.1047 242.242 24.9891 242.242 22.3909Z" fill="#2D302F"/>
<path id="Fill-14" fill-rule="evenodd" clip-rule="evenodd" d="M87.5396 22.372C87.5396 17.027 90.688 12.9443 95.6424 12.9443C98.1182 12.9443 100.065 14.1688 100.985 15.9879V13.4274H106.363V31.3161H100.985V28.7917C100.065 30.5739 97.9415 31.798 95.5707 31.798C90.4752 31.798 87.5396 27.7526 87.5396 22.372ZM101.197 22.372C101.197 19.8102 99.8168 17.6947 97.1283 17.6947C94.6152 17.6947 93.0588 19.6622 93.0588 22.372C93.0588 25.0805 94.6152 27.085 97.1283 27.085C99.8168 27.085 101.197 24.969 101.197 22.372Z" fill="#2D302F"/>
<path id="Fill-15" fill-rule="evenodd" clip-rule="evenodd" d="M91.6682 10.4205H103.77V6.72754H91.6682V10.4205Z" fill="#2D302F"/>
<path id="Fill-16" fill-rule="evenodd" clip-rule="evenodd" d="M127.581 44.6191V45.9576C127.084 45.0138 125.986 44.4131 124.855 44.4131C122.471 44.4131 120.859 46.3011 120.859 48.5153C120.859 50.712 122.471 52.5996 124.855 52.5996C125.986 52.5996 127.084 51.9993 127.581 51.0555V52.4114H129.055V44.6191H127.581ZM124.94 51.2611C123.363 51.2611 122.334 50.0083 122.334 48.5153C122.334 47.0215 123.363 45.752 124.94 45.752C126.552 45.752 127.581 47.0215 127.581 48.5153C127.581 50.0083 126.552 51.2611 124.94 51.2611Z" fill="#2D302F"/>
<path id="Fill-17" fill-rule="evenodd" clip-rule="evenodd" d="M131.06 52.411H132.552V48.3944C132.552 47.004 133.272 45.7345 134.763 45.7345C136.221 45.7345 136.736 46.8329 136.736 48.2743V52.411H138.227V47.8112C138.227 46.7128 138.056 46.0257 137.627 45.4429C137.165 44.7899 136.375 44.4131 135.295 44.4131C133.975 44.4131 133.015 45.0474 132.552 45.9917V44.6187H131.06V52.411Z" fill="#2D302F"/>
<path id="Fill-18" fill-rule="evenodd" clip-rule="evenodd" d="M146.325 52.4117H147.799V40.9443H146.325V45.9579C145.827 45.0141 144.73 44.4138 143.598 44.4138C141.215 44.4138 139.603 46.301 139.603 48.5152C139.603 50.7123 141.215 52.5999 143.598 52.5999C144.73 52.5999 145.827 51.9996 146.325 51.0558V52.4117ZM143.684 51.2618C142.106 51.2618 141.078 50.009 141.078 48.5152C141.078 47.0222 142.106 45.7523 143.684 45.7523C145.296 45.7523 146.325 47.0222 146.325 48.5152C146.325 50.009 145.296 51.2618 143.684 51.2618Z" fill="#2D302F"/>
<path id="Fill-19" fill-rule="evenodd" clip-rule="evenodd" d="M82.0778 52.6C84.5816 52.6 86.1935 50.712 86.1935 48.5153C86.1935 46.3011 84.5816 44.4131 82.0778 44.4131C79.6089 44.4131 77.9974 46.3011 77.9974 48.5153C77.9974 50.712 79.6089 52.6 82.0778 52.6ZM82.0778 51.2611C80.5008 51.2611 79.472 50.0083 79.472 48.5153C79.472 47.0219 80.5008 45.752 82.0778 45.752C83.6897 45.752 84.7185 47.0219 84.7185 48.5153C84.7185 50.0083 83.6897 51.2611 82.0778 51.2611Z" fill="#2D302F"/>
<path id="Fill-20" fill-rule="evenodd" clip-rule="evenodd" d="M99.1437 52.411V47.4851C99.1437 45.769 98.4407 44.4131 96.3661 44.4131C95.1484 44.4131 94.1885 45.1849 93.8623 46.0772C93.571 45.0819 92.7995 44.4131 91.359 44.4131C90.2102 44.4131 89.3528 45.1505 89.0615 46.0087V44.6187H87.5695V52.411H89.0615V48.4459C89.0615 46.6268 89.85 45.7345 90.9817 45.7345C92.028 45.7345 92.6106 46.4382 92.6106 48.0172V52.411H94.1026V48.4459C94.1026 46.6268 94.8567 45.7345 96.0054 45.7345C97.0687 45.7345 97.6518 46.4897 97.6518 47.9312V52.411H99.1437Z" fill="#2D302F"/>
<path id="Fill-21" fill-rule="evenodd" clip-rule="evenodd" d="M104.429 45.5629C105.68 45.5629 106.624 46.4212 106.624 47.7771H102.113C102.148 46.3697 103.091 45.5629 104.429 45.5629ZM107.995 48.9103C108.063 48.4808 108.063 48.1547 108.063 47.932C108.063 45.9406 106.486 44.4131 104.463 44.4131C102.011 44.4131 100.622 46.1636 100.622 48.5149C100.622 50.7635 101.891 52.6 104.514 52.6C106.469 52.6 107.738 51.4327 107.995 50.1117H106.486C106.246 50.7805 105.68 51.3471 104.514 51.3471C102.8 51.3471 102.165 50.2313 102.096 48.9103H107.995Z" fill="#2D302F"/>
<path id="Fill-22" fill-rule="evenodd" clip-rule="evenodd" d="M113.257 48.0683C111.816 47.6051 111.011 47.4847 111.011 46.6958C111.011 45.9917 111.628 45.6145 112.451 45.6145C113.479 45.6145 114.028 46.1288 114.028 47.0385H115.469C115.469 45.477 114.166 44.4131 112.468 44.4131C110.857 44.4131 109.57 45.202 109.57 46.6613C109.57 48.0683 110.496 48.4289 111.679 48.8069C113.24 49.3382 114.166 49.4242 114.166 50.2995C114.166 51.0721 113.548 51.4153 112.605 51.4153C111.56 51.4153 110.77 50.9691 110.77 49.7852H109.313C109.313 51.6724 110.822 52.5996 112.537 52.5996C114.286 52.5996 115.589 51.8269 115.589 50.2654C115.589 48.7895 114.44 48.4459 113.257 48.0683Z" fill="#2D302F"/>
<path id="Fill-23" fill-rule="evenodd" clip-rule="evenodd" d="M74.9487 52.4111H76.5091V40.5742H74.9487V45.6705H69.3581V40.5742H67.7977V52.4111H69.3581V47.0779H74.9487V52.4111Z" fill="#2D302F"/>
<path id="Fill-24" fill-rule="evenodd" clip-rule="evenodd" d="M169.119 52.6C171.622 52.6 173.234 50.712 173.234 48.5153C173.234 46.3011 171.622 44.4131 169.119 44.4131C166.65 44.4131 165.038 46.3011 165.038 48.5153C165.038 50.712 166.65 52.6 169.119 52.6ZM169.119 51.2611C167.541 51.2611 166.512 50.0083 166.512 48.5153C166.512 47.0219 167.541 45.752 169.119 45.752C170.731 45.752 171.76 47.0219 171.76 48.5153C171.76 50.0083 170.731 51.2611 169.119 51.2611Z" fill="#2D302F"/>
<path id="Fill-25" fill-rule="evenodd" clip-rule="evenodd" d="M186.096 52.411V47.4851C186.096 45.769 185.393 44.4131 183.319 44.4131C182.101 44.4131 181.141 45.1849 180.815 46.0772C180.523 45.0819 179.752 44.4131 178.311 44.4131C177.163 44.4131 176.305 45.1505 176.014 46.0087V44.6187H174.522V52.411H176.014V48.4459C176.014 46.6268 176.803 45.7345 177.935 45.7345C178.981 45.7345 179.563 46.4382 179.563 48.0172V52.411H181.055V48.4459C181.055 46.6268 181.809 45.7345 182.958 45.7345C184.021 45.7345 184.605 46.4897 184.605 47.9312V52.411H186.096Z" fill="#2D302F"/>
<path id="Fill-26" fill-rule="evenodd" clip-rule="evenodd" d="M199.48 52.411V47.4851C199.48 45.769 198.776 44.4131 196.701 44.4131C195.484 44.4131 194.524 45.1849 194.199 46.0772C193.906 45.0819 193.135 44.4131 191.694 44.4131C190.546 44.4131 189.689 45.1505 189.397 46.0087V44.6187H187.905V52.411H189.397V48.4459C189.397 46.6268 190.185 45.7345 191.317 45.7345C192.363 45.7345 192.946 46.4382 192.946 48.0172V52.411H194.438V48.4459C194.438 46.6268 195.193 45.7345 196.342 45.7345C197.405 45.7345 197.987 46.4897 197.987 47.9312V52.411H199.48Z" fill="#2D302F"/>
<path id="Fill-27" fill-rule="evenodd" clip-rule="evenodd" d="M206.929 44.6191V48.6183C206.929 50.0257 206.209 51.2786 204.7 51.2786C203.26 51.2786 202.745 50.1802 202.745 48.7384V44.6191H201.254V49.2186C201.254 50.2999 201.408 51.004 201.836 51.5873C202.3 52.2224 203.105 52.5996 204.185 52.5996C205.488 52.5996 206.466 51.9649 206.929 51.021V52.4114H208.421V44.6191H206.929Z" fill="#2D302F"/>
<path id="Fill-28" fill-rule="evenodd" clip-rule="evenodd" d="M210.245 52.411H211.736V48.3944C211.736 47.004 212.457 45.7345 213.948 45.7345C215.406 45.7345 215.92 46.8329 215.92 48.2743V52.411H217.412V47.8112C217.412 46.7128 217.24 46.0257 216.812 45.4429C216.349 44.7899 215.56 44.4131 214.48 44.4131C213.159 44.4131 212.199 45.0474 211.736 45.9917V44.6187H210.245V52.411Z" fill="#2D302F"/>
<path id="Fill-29" fill-rule="evenodd" clip-rule="evenodd" d="M219.023 42.4375C219.023 42.972 219.439 43.4084 219.947 43.4084C220.469 43.4084 220.898 42.972 220.898 42.4375C220.898 41.8887 220.469 41.4385 219.947 41.4385C219.439 41.4385 219.023 41.8887 219.023 42.4375Z" fill="#2D302F"/>
<path id="Fill-30" fill-rule="evenodd" clip-rule="evenodd" d="M229.011 42.4375C229.011 42.972 229.426 43.4084 229.935 43.4084C230.457 43.4084 230.886 42.972 230.886 42.4375C230.886 41.8887 230.457 41.4385 229.935 41.4385C229.426 41.4385 229.011 41.8887 229.011 42.4375Z" fill="#2D302F"/>
<path id="Fill-31" fill-rule="evenodd" clip-rule="evenodd" d="M227.483 51.0898C227.26 51.1243 226.78 51.1584 226.471 51.1584C225.717 51.1584 225.186 50.9698 225.186 49.4593V45.8723H227.209V44.6198H225.186V41.9932H223.694V44.6198H222.254V45.8723H223.694V49.7854C223.694 52.3431 225.186 52.5143 226.146 52.5143C226.643 52.5143 227.192 52.4628 227.483 52.4117V51.0898Z" fill="#2D302F"/>
<path id="Fill-32" fill-rule="evenodd" clip-rule="evenodd" d="M236.14 45.5629C237.392 45.5629 238.335 46.4212 238.335 47.7771H233.825C233.86 46.3697 234.803 45.5629 236.14 45.5629ZM239.707 48.9103C239.775 48.4808 239.775 48.1547 239.775 47.932C239.775 45.9406 238.198 44.4131 236.175 44.4131C233.723 44.4131 232.334 46.1636 232.334 48.5149C232.334 50.7635 233.603 52.6 236.226 52.6C238.181 52.6 239.449 51.4327 239.707 50.1117H238.198C237.958 50.7805 237.392 51.3471 236.226 51.3471C234.512 51.3471 233.877 50.2313 233.808 48.9103H239.707Z" fill="#2D302F"/>
<path id="Fill-33" fill-rule="evenodd" clip-rule="evenodd" d="M244.999 48.0683C243.558 47.6051 242.753 47.4847 242.753 46.6958C242.753 45.9917 243.37 45.6145 244.193 45.6145C245.221 45.6145 245.77 46.1288 245.77 47.0385H247.211C247.211 45.477 245.908 44.4131 244.209 44.4131C242.598 44.4131 241.312 45.202 241.312 46.6613C241.312 48.0683 242.238 48.4289 243.421 48.8069C244.982 49.3382 245.908 49.4242 245.908 50.2995C245.908 51.0721 245.29 51.4153 244.347 51.4153C243.301 51.4153 242.512 50.9691 242.512 49.7852H241.055C241.055 51.6724 242.564 52.5996 244.279 52.5996C246.028 52.5996 247.331 51.8269 247.331 50.2654C247.331 48.7895 246.182 48.4459 244.999 48.0683Z" fill="#2D302F"/>
<path id="Fill-34" fill-rule="evenodd" clip-rule="evenodd" d="M219.214 52.4114H220.706V44.6191H219.214V52.4114Z" fill="#2D302F"/>
<path id="Fill-35" fill-rule="evenodd" clip-rule="evenodd" d="M229.203 52.4114H230.695V44.6191H229.203V52.4114Z" fill="#2D302F"/>
<path id="Fill-36" fill-rule="evenodd" clip-rule="evenodd" d="M162.189 49.4452C161.69 50.5448 160.401 51.2578 159.068 51.2578C156.488 51.2578 154.692 49.3523 154.692 46.6239C154.692 43.603 156.753 42.0224 158.85 42.0224C160.639 42.0224 161.848 42.907 162.399 44.3891L162.406 44.4085H164.096L164.085 44.37C163.399 41.9879 161.734 40.6211 158.855 40.6211C157.106 40.6211 155.784 41.2538 154.672 42.4511C153.639 43.5621 153.07 45.0441 153.07 46.6239C153.07 48.2463 153.655 49.7474 154.717 50.8506C155.857 52.0341 157.24 52.6599 159.073 52.6599C161.485 52.6599 163.136 51.4387 163.994 49.4732L164.012 49.431L162.189 49.4452Z" fill="#2D302F"/>
</g>
</g>
</g>
<defs>
<clipPath id="clip0_2529_527">
<rect width="248" height="58" fill="white"/>
</clipPath>
</defs>
</svg>
