<svg width="244" height="79" viewBox="0 0 244 79" fill="none" xmlns="http://www.w3.org/2000/svg">
<g id="AC_Main Logo_White 2" clip-path="url(#clip0_2546_306)">
<path id="Vector" d="M156.662 52.127V78.104H243.888V52.127H156.662ZM178.901 71.1216L178.593 71.234C178.032 71.4192 177.458 71.5625 176.877 71.6627C176.203 71.7672 175.523 71.8188 174.841 71.8169C172.642 71.8169 170.923 71.2235 169.763 70.0602C168.603 68.8969 167.994 67.263 167.994 65.2188C167.994 63.0882 168.572 61.4125 169.721 60.2257C170.871 59.0388 172.595 58.4376 174.826 58.4376C176.104 58.4288 177.373 58.6483 178.575 59.0859L178.883 59.1983V62.8581L178.238 62.5837C177.228 62.1567 176.142 61.9388 175.045 61.9432C173.945 61.9432 173.151 62.2046 172.671 62.6987C172.19 63.1928 171.947 64.0502 171.947 65.2083C171.947 66.301 172.208 67.0983 172.707 67.5794C173.206 68.0604 174.013 68.3087 175.087 68.3087C175.632 68.3082 176.176 68.2583 176.712 68.1597C177.241 68.059 177.758 67.9021 178.253 67.6918L178.901 67.4303V71.1216ZM188.632 71.6313H184.729V58.6232H188.632V71.6313ZM202.713 71.6313H198.863L193.967 58.6232H198.074L200.772 66.3193L203.474 58.6232H207.593L202.713 71.6313ZM216.849 71.6313H212.931V58.6232H216.849V71.6313ZM232.555 71.6313H223.043V58.6232H226.941V68.3714H232.555V71.6313Z" fill="white"/>
<path id="Vector_2" d="M61.9066 0.737305L17.9866 44.6868H-0.0234375V44.6215L43.826 0.737305H61.9066Z" fill="white"/>
<path id="Vector_3" d="M62.5283 9.47949V44.6872H43.698L33.345 34.3246H49.7562V22.2602L62.5283 9.47949Z" fill="white"/>
<path id="Vector_4" d="M122.243 16.1193V19.0106C122.22 20.7055 122.002 22.3922 121.595 24.0377C121.595 24.042 121.595 24.0464 121.595 24.0507C121.276 25.3362 120.792 26.5751 120.156 27.7367C116.193 34.795 108.021 34.3088 107.781 34.3532H89.4676V24.0533H105.247C106.371 24.0499 107.448 23.6015 108.243 22.8061C109.038 22.0107 109.486 20.9328 109.489 19.8079V15.3481C109.485 14.2234 109.037 13.146 108.242 12.3507C107.447 11.5555 106.371 11.1068 105.247 11.1027H82.8503V44.721H70.0782V0.771484H107.82C108.624 0.792398 118.899 0.455169 121.6 11.1001C122.005 12.7432 122.221 14.4272 122.243 16.1193Z" fill="white"/>
<path id="Vector_5" d="M181.399 34.3604L171.046 44.7204H129.654V0.773438H171.383L181.702 11.102H142.424V17.4127H175.395L165.068 27.7439H142.424V34.3604H181.399Z" fill="white"/>
<path id="Vector_6" d="M242.683 0.771484L198.766 44.721H180.693L202.648 22.7463L180.693 0.771484H198.771L211.69 13.7038L224.608 0.771484H242.683Z" fill="white"/>
<path id="Vector_7" d="M242.741 44.7208H224.663L216.51 36.5646L225.548 27.5195L242.741 44.7208Z" fill="white"/>
</g>
<defs>
<clipPath id="clip0_2546_306">
<rect width="244" height="77.3796" fill="white" transform="translate(0 0.810547)"/>
</clipPath>
</defs>
</svg>
