<svg width="167" height="78" viewBox="0 0 167 78" fill="none" xmlns="http://www.w3.org/2000/svg">
<g id="opotiki-disctrict-council-logo" clip-path="url(#clip0_2529_580)">
<g id="Group 9467">
<path id="Path 6336" d="M65.954 21.0257L66.0789 20.7484C66.1075 20.6871 66.135 20.6225 66.1635 20.5611C67.9827 16.6835 70.5818 13.2226 73.7984 10.3945C77.0151 7.5663 80.7802 5.43164 84.8588 4.12376C88.9373 2.81588 93.2417 2.36286 97.5032 2.793C101.765 3.22313 105.892 4.52717 109.627 6.62371C112.747 4.67238 115.695 2.45632 118.436 0H24.2423V21.0278H65.954V21.0257Z" fill="#279ADA"/>
<path id="Path 6337" d="M121.025 17.6297C128.476 15.8867 135.696 13.2728 142.536 9.84191V0C134.377 4.93896 125.703 8.97095 116.667 12.0241C118.328 13.7212 119.79 15.6018 121.025 17.6297Z" fill="#77BFE1"/>
<path id="Path 6338" d="M63.9837 26.9349C64.3289 25.3995 64.7909 23.8927 65.3658 22.4277C55.7449 23.0486 46.2401 24.8765 37.0751 27.8683C32.6717 29.3149 28.3837 31.0918 24.2478 33.184V43.0259C35.5029 36.2729 47.668 31.1684 60.3718 27.8683C61.5666 27.5466 62.7678 27.2323 63.9837 26.9349Z" fill="#77BFE1"/>
<path id="Path 6339" d="M65.9328 21.0282L24.2423 19.752V27.3609C37.918 23.9883 51.8725 21.8686 65.9328 21.0282Z" fill="#7ABFE1"/>
<g id="Group 6859">
<path id="Path 6340" d="M6.06248 51.8104C7.60289 51.8564 9.06477 52.5007 10.1381 53.6066C11.2114 54.7125 11.8117 56.1929 11.8117 57.734C11.8117 59.2751 11.2114 60.7556 10.1381 61.8615C9.06477 62.9674 7.60289 63.6117 6.06248 63.6577C4.52207 63.6117 3.06018 62.9674 1.98687 61.8615C0.913551 60.7556 0.313232 59.2751 0.313232 57.734C0.313232 56.1929 0.913551 54.7125 1.98687 53.6066C3.06018 52.5007 4.52207 51.8564 6.06248 51.8104ZM6.06248 61.2607C6.76375 61.2778 7.45418 61.0854 8.04559 60.7082C8.637 60.3309 9.10254 59.786 9.38275 59.1429C9.66296 58.4998 9.74512 57.7878 9.61873 57.0978C9.49234 56.4078 9.16314 55.7711 8.67318 55.2691C8.18322 54.7671 7.55475 54.4225 6.86802 54.2794C6.1813 54.1363 5.4675 54.2012 4.8178 54.4657C4.1681 54.7302 3.61199 55.1823 3.22051 55.7644C2.82902 56.3465 2.61992 57.032 2.61993 57.7335C2.60834 58.1927 2.68884 58.6496 2.85667 59.0773C3.02451 59.5049 3.27629 59.8946 3.59715 60.2233C3.91801 60.5521 4.30145 60.8132 4.72487 60.9914C5.14829 61.1696 5.6031 61.2612 6.06248 61.2607ZM8.56 49.1965V50.7151H3.54803V49.1943L8.56 49.1965Z" fill="#1B2D56"/>
<path id="Path 6341" d="M15.6998 56.2816C15.966 55.8399 16.3463 55.4783 16.8007 55.2347C17.2552 54.9911 17.7669 54.8745 18.282 54.8973C19.3759 54.9972 20.3927 55.5029 21.1325 56.3149C21.8723 57.1269 22.2814 58.1863 22.2792 59.2847C22.2771 60.3832 21.8639 61.441 21.121 62.2501C20.3781 63.0592 19.3593 63.561 18.2651 63.6566C17.7665 63.6693 17.2723 63.5603 16.8253 63.3391C16.3783 63.1178 15.992 62.7909 15.6998 62.3867V66.9267H13.4044V55.0667H15.6998V56.2816ZM17.81 61.3951C18.2285 61.3964 18.6379 61.2735 18.9866 61.0422C19.3353 60.8108 19.6076 60.4812 19.769 60.0951C19.9305 59.709 19.9738 59.2838 19.8937 58.873C19.8135 58.4623 19.6133 58.0846 19.3185 57.7876C19.0237 57.4906 18.6475 57.2876 18.2374 57.2043C17.8273 57.1211 17.4017 57.1613 17.0144 57.3198C16.6272 57.4784 16.2956 57.7482 16.0616 58.0951C15.8276 58.4421 15.7017 58.8506 15.6998 59.269C15.6944 59.5483 15.7451 59.8258 15.849 60.0851C15.9529 60.3443 16.1078 60.5801 16.3045 60.7784C16.5012 60.9767 16.7357 61.1335 16.9941 61.2394C17.2526 61.3453 17.5307 61.3983 17.81 61.3951Z" fill="#1B2D56"/>
<path id="Path 6342" d="M27.5974 54.8979C28.4645 54.896 29.3126 55.1515 30.0344 55.632C30.7561 56.1126 31.319 56.7965 31.6518 57.5972C31.9845 58.3979 32.0721 59.2793 31.9035 60.1299C31.7349 60.9804 31.3176 61.7617 30.7046 62.3749C30.0915 62.9881 29.3103 63.4056 28.4598 63.5744C27.6093 63.7432 26.7278 63.6558 25.9271 63.3233C25.1263 62.9908 24.4422 62.428 23.9615 61.7064C23.4808 60.9848 23.2251 60.1367 23.2268 59.2696C23.2184 58.6933 23.3257 58.1211 23.5423 57.587C23.759 57.0528 24.0806 56.5676 24.4881 56.16C24.8956 55.7524 25.3808 55.4306 25.9149 55.2138C26.449 54.9971 27.0211 54.8896 27.5974 54.8979ZM30.1119 52.1855V53.7052H25.0999V52.1855H30.1119ZM27.5974 61.4168C28.0233 61.4356 28.445 61.3266 28.8084 61.1038C29.1717 60.881 29.4602 60.5547 29.6366 60.1667C29.813 59.7786 29.8694 59.3467 29.7984 58.9264C29.7274 58.5061 29.5324 58.1167 29.2383 57.8081C28.9442 57.4996 28.5646 57.2861 28.1482 57.195C27.7318 57.1039 27.2977 57.1394 26.9016 57.297C26.5056 57.4546 26.1657 57.7271 25.9258 58.0793C25.6858 58.4316 25.5567 58.8476 25.555 59.2738C25.5475 59.5487 25.5946 59.8223 25.6934 60.0788C25.7922 60.3354 25.9408 60.5698 26.1307 60.7687C26.3206 60.9675 26.5479 61.1268 26.7997 61.2373C27.0514 61.3478 27.3225 61.4074 27.5974 61.4126V61.4168Z" fill="#1B2D56"/>
<path id="Path 6343" d="M33.9086 63.4714V57.0244H32.626V55.0656H34.0441V53.2252L36.204 52.7363V55.0645H37.6221V57.0213H36.204V63.4682L33.9086 63.4714Z" fill="#1B2D56"/>
<path id="Path 6344" d="M39.9506 51.2522C40.1303 51.2488 40.3088 51.282 40.4753 51.3497C40.6417 51.4174 40.7927 51.5183 40.919 51.6462C41.0453 51.7741 41.1443 51.9263 41.2099 52.0936C41.2756 52.2609 41.3065 52.4398 41.3009 52.6195C41.3009 52.9776 41.1586 53.3211 40.9054 53.5743C40.6522 53.8276 40.3087 53.9698 39.9506 53.9698C39.5924 53.9698 39.249 53.8276 38.9957 53.5743C38.7425 53.3211 38.6002 52.9776 38.6002 52.6195C38.5961 52.4402 38.6281 52.262 38.6943 52.0953C38.7604 51.9287 38.8595 51.7771 38.9855 51.6495C39.1115 51.5219 39.2618 51.421 39.4276 51.3527C39.5934 51.2845 39.7713 51.2503 39.9506 51.2522ZM41.0977 63.471H38.8023V55.0672H41.0977V63.471Z" fill="#1B2D56"/>
<path id="Path 6345" d="M43.0223 51.8271H45.3177V58.2403L47.6131 55.0655H50.3138L47.7824 58.4583L50.3138 63.4702H47.647L46.0596 60.0954L45.3188 61.1071V63.4702H43.0223V51.8271Z" fill="#1B2D56"/>
<path id="Path 6346" d="M52.5239 51.2522C52.7036 51.2488 52.8821 51.282 53.0486 51.3497C53.2151 51.4174 53.3661 51.5183 53.4924 51.6462C53.6187 51.7741 53.7176 51.9263 53.7833 52.0936C53.849 52.2609 53.8799 52.4398 53.8743 52.6195C53.8743 52.9776 53.732 53.3211 53.4788 53.5743C53.2255 53.8276 52.8821 53.9698 52.5239 53.9698C52.1658 53.9698 51.8223 53.8276 51.5691 53.5743C51.3158 53.3211 51.1736 52.9776 51.1736 52.6195C51.1694 52.4402 51.2014 52.262 51.2676 52.0953C51.3338 51.9287 51.4328 51.7771 51.5588 51.6495C51.6848 51.5219 51.8352 51.421 52.001 51.3527C52.1668 51.2845 52.3446 51.2503 52.5239 51.2522ZM53.6711 63.471H51.3799V55.0672H53.6753L53.6711 63.471Z" fill="#1B2D56"/>
<path id="Path 6347" d="M59.5273 51.9951H63.7795C65.3013 51.9951 66.7607 52.5997 67.8368 53.6757C68.9129 54.7518 69.5174 56.2113 69.5174 57.7331C69.5174 59.2549 68.9129 60.7143 67.8368 61.7904C66.7607 62.8665 65.3013 63.471 63.7795 63.471H59.5273V51.9951ZM61.9233 54.3074V61.1597H63.7625C64.6309 61.1006 65.4444 60.7139 66.0386 60.0779C66.6328 59.4419 66.9633 58.604 66.9633 57.7336C66.9633 56.8632 66.6328 56.0253 66.0386 55.3893C65.4444 54.7533 64.6309 54.3666 63.7625 54.3074H61.9233Z" fill="#1B2D56"/>
<path id="Path 6348" d="M72.0669 51.2522C72.2466 51.2488 72.4251 51.282 72.5916 51.3497C72.758 51.4174 72.909 51.5183 73.0353 51.6462C73.1616 51.7741 73.2606 51.9263 73.3262 52.0936C73.3919 52.2609 73.4228 52.4398 73.4172 52.6195C73.4223 52.7999 73.3911 52.9795 73.3255 53.1477C73.26 53.3159 73.1613 53.4692 73.0355 53.5986C72.9097 53.7281 72.7591 53.8309 72.5929 53.9012C72.4266 53.9714 72.2479 54.0076 72.0674 54.0076C71.8869 54.0076 71.7082 53.9714 71.5419 53.9012C71.3756 53.8309 71.2251 53.7281 71.0993 53.5986C70.9734 53.4692 70.8748 53.3159 70.8093 53.1477C70.7437 52.9795 70.7125 52.7999 70.7176 52.6195C70.7134 52.4403 70.7454 52.2621 70.8115 52.0956C70.8776 51.929 70.9766 51.7774 71.1025 51.6499C71.2283 51.5223 71.3786 51.4214 71.5443 51.3531C71.7099 51.2847 71.8877 51.2504 72.0669 51.2522ZM73.214 63.471H70.9197V55.0672H73.213L73.214 63.471Z" fill="#1B2D56"/>
<path id="Path 6349" d="M79.8304 57.448C79.2731 57.1116 78.6403 56.9202 77.99 56.8913C77.4164 56.8913 77.1625 57.1781 77.1625 57.4988C77.1625 57.7686 77.3318 57.9041 77.6524 58.1062L78.8673 58.8153C79.2874 59.0284 79.6396 59.3546 79.8842 59.7572C80.1288 60.1598 80.256 60.6227 80.2516 61.0937C80.2516 62.5457 79.1711 63.659 77.1635 63.659C76.4121 63.6574 75.6678 63.5137 74.9697 63.2356V60.9413C75.5588 61.3786 76.262 61.6359 76.9942 61.6821C77.5858 61.6821 77.8726 61.4122 77.8726 61.0567C77.8726 60.7868 77.7202 60.5667 77.3159 60.3317L75.9994 59.5719C75.6187 59.3574 75.304 59.0427 75.0897 58.6619C74.8753 58.281 74.7694 57.8488 74.7835 57.412C74.7835 55.9304 75.9317 54.8965 77.9064 54.8965C78.5579 54.9033 79.2054 55.0001 79.8304 55.1843V57.448Z" fill="#1B2D56"/>
<path id="Path 6350" d="M82.345 63.4714V57.0244H81.0624V55.0656H82.4805V53.2252L84.6404 52.7363V55.0645H86.0585V57.0213H84.6404V63.4682L82.345 63.4714Z" fill="#1B2D56"/>
<path id="Path 6351" d="M89.5332 55.9777C89.7415 55.6389 90.035 55.3608 90.3846 55.1712C90.7341 54.9816 91.1273 54.8871 91.5249 54.8972C91.7452 54.8976 91.9653 54.9146 92.1831 54.948V57.3958C91.7965 57.2206 91.3756 57.1342 90.9513 57.1429C90.7612 57.1391 90.5724 57.1743 90.3965 57.2463C90.2205 57.3183 90.0612 57.4256 89.9283 57.5615C89.7955 57.6975 89.6919 57.8592 89.6239 58.0367C89.5559 58.2143 89.5251 58.4038 89.5332 58.5938V63.4713H87.2389V55.0676H89.5332V55.9777Z" fill="#1B2D56"/>
<path id="Path 6352" d="M94.5298 51.2522C94.7095 51.2488 94.888 51.282 95.0545 51.3497C95.221 51.4174 95.3719 51.5183 95.4982 51.6462C95.6245 51.7741 95.7235 51.9263 95.7892 52.0936C95.8548 52.2609 95.8858 52.4398 95.8801 52.6195C95.8801 52.9776 95.7379 53.3211 95.4846 53.5743C95.2314 53.8276 94.8879 53.9698 94.5298 53.9698C94.1716 53.9698 93.8282 53.8276 93.5749 53.5743C93.3217 53.3211 93.1794 52.9776 93.1794 52.6195C93.1753 52.4402 93.2073 52.262 93.2735 52.0953C93.3396 51.9287 93.4387 51.7771 93.5647 51.6495C93.6907 51.5219 93.841 51.421 94.0069 51.3527C94.1727 51.2845 94.3505 51.2503 94.5298 51.2522ZM95.6769 63.471H93.3816V55.0672H95.6769V63.471Z" fill="#1B2D56"/>
<path id="Path 6353" d="M103.422 63.251C102.839 63.5159 102.207 63.6541 101.566 63.6563C100.985 63.6653 100.408 63.5587 99.8692 63.3427C99.3299 63.1266 98.839 62.8055 98.425 62.3979C98.011 61.9903 97.6823 61.5044 97.4579 60.9686C97.2335 60.4327 97.1179 59.8576 97.1179 59.2767C97.1179 58.6957 97.2335 58.1206 97.4579 57.5847C97.6823 57.0489 98.011 56.563 98.425 56.1554C98.839 55.7478 99.3299 55.4267 99.8692 55.2106C100.408 54.9946 100.985 54.888 101.566 54.897C102.204 54.9035 102.835 55.0355 103.422 55.2854V57.7194C102.876 57.3452 102.229 57.1452 101.566 57.1458C101 57.1458 100.457 57.3707 100.057 57.771C99.6565 58.1713 99.4316 58.7143 99.4316 59.2804C99.4316 59.8465 99.6565 60.3894 100.057 60.7897C100.457 61.19 101 61.4149 101.566 61.4149C102.232 61.4189 102.882 61.2118 103.422 60.8233V63.251Z" fill="#1B2D56"/>
<path id="Path 6354" d="M105.718 63.4714V57.0244H104.435V55.0656H105.852V53.2252L108.012 52.7363V55.0645H109.43V57.0213H108.012V63.4682L105.718 63.4714Z" fill="#1B2D56"/>
<path id="Path 6355" d="M122.308 63.0664C121.491 63.4556 120.597 63.6573 119.692 63.6569C118.152 63.6109 116.69 62.9666 115.617 61.8607C114.543 60.7548 113.943 59.2743 113.943 57.7332C113.943 56.1921 114.543 54.7117 115.617 53.6058C116.69 52.4999 118.152 51.8556 119.692 51.8096C120.597 51.8091 121.491 52.0109 122.308 52.4001V55.1516C121.578 54.5322 120.649 54.1967 119.692 54.2066C118.772 54.2291 117.896 54.6106 117.253 55.2696C116.61 55.9287 116.25 56.813 116.25 57.7338C116.25 58.6546 116.61 59.5389 117.253 60.1979C117.896 60.8569 118.772 61.2384 119.692 61.261C120.647 61.2746 121.575 60.9457 122.308 60.3339V63.0664Z" fill="#1B2D56"/>
<path id="Path 6356" d="M127.741 54.8969C128.608 54.895 129.457 55.1505 130.178 55.6311C130.9 56.1116 131.463 56.7955 131.796 57.5962C132.128 58.3969 132.216 59.2784 132.047 60.1289C131.879 60.9794 131.462 61.7608 130.849 62.374C130.235 62.9872 129.454 63.4046 128.604 63.5734C127.753 63.7423 126.872 63.6549 126.071 63.3223C125.27 62.9898 124.586 62.4271 124.105 61.7054C123.625 60.9838 123.369 60.1357 123.371 59.2686C123.362 58.6923 123.47 58.1201 123.686 57.586C123.903 57.0519 124.225 56.5666 124.632 56.159C125.04 55.7514 125.525 55.4297 126.059 55.2129C126.593 54.9961 127.165 54.8887 127.741 54.8969ZM127.741 61.4116C128.167 61.4304 128.589 61.3214 128.952 61.0986C129.316 60.8758 129.604 60.5495 129.781 60.1615C129.957 59.7734 130.013 59.3415 129.942 58.9212C129.871 58.5009 129.676 58.1115 129.382 57.8029C129.088 57.4944 128.708 57.2809 128.292 57.1898C127.876 57.0987 127.442 57.1342 127.046 57.2918C126.65 57.4494 126.31 57.7219 126.07 58.0741C125.83 58.4264 125.701 58.8424 125.699 59.2686C125.691 59.5438 125.737 59.8179 125.836 60.0749C125.935 60.332 126.083 60.5669 126.273 60.7662C126.463 60.9655 126.691 61.1252 126.943 61.2359C127.195 61.3467 127.466 61.4064 127.741 61.4116Z" fill="#1B2D56"/>
<path id="Path 6357" d="M138.66 62.4255C138.44 62.8145 138.118 63.1352 137.728 63.3526C137.337 63.5699 136.895 63.6754 136.448 63.6574C136.043 63.6604 135.641 63.5791 135.269 63.4187C134.897 63.2582 134.562 63.0221 134.286 62.7254C134.01 62.4286 133.798 62.0777 133.665 61.6949C133.532 61.312 133.48 60.9057 133.512 60.5016V55.0674H135.807V59.8476C135.799 60.0352 135.829 60.2226 135.893 60.3989C135.958 60.5752 136.057 60.7371 136.184 60.8752C136.311 61.0134 136.464 61.1251 136.635 61.2041C136.805 61.283 136.989 61.3276 137.177 61.3354C137.365 61.3431 137.552 61.3137 137.728 61.2491C137.905 61.1844 138.066 61.0856 138.205 60.9583C138.343 60.8311 138.454 60.6779 138.533 60.5074C138.612 60.337 138.657 60.1527 138.664 59.9651V55.0716H140.959V63.4753H138.664L138.66 62.4255Z" fill="#1B2D56"/>
<path id="Path 6358" d="M145.209 56.1291C145.433 55.7447 145.756 55.4276 146.145 55.2109C146.534 54.9943 146.974 54.8859 147.418 54.8973C147.826 54.8906 148.231 54.9692 148.607 55.1279C148.983 55.2866 149.321 55.522 149.601 55.8191C149.88 56.1161 150.095 56.4682 150.231 56.8529C150.366 57.2376 150.42 57.6463 150.389 58.053V63.4703H148.077V58.6986C148.098 58.4994 148.076 58.2979 148.013 58.1077C147.95 57.9175 147.847 57.7429 147.712 57.5957C147.576 57.4484 147.41 57.3318 147.226 57.2538C147.041 57.1757 146.842 57.1379 146.642 57.1429C146.45 57.1361 146.259 57.1692 146.081 57.2399C145.903 57.3106 145.741 57.4175 145.607 57.5539C145.472 57.6902 145.367 57.8531 145.298 58.032C145.229 58.211 145.199 58.4023 145.208 58.5938V63.4714H142.912V55.0677H145.208L145.209 56.1291Z" fill="#1B2D56"/>
<path id="Path 6359" d="M158.05 63.251C157.467 63.5161 156.834 63.6542 156.193 63.6563C155.612 63.6653 155.035 63.5587 154.496 63.3427C153.957 63.1266 153.466 62.8055 153.052 62.3979C152.638 61.9903 152.309 61.5044 152.085 60.9686C151.86 60.4327 151.745 59.8576 151.745 59.2767C151.745 58.6957 151.86 58.1206 152.085 57.5847C152.309 57.0489 152.638 56.563 153.052 56.1554C153.466 55.7478 153.957 55.4267 154.496 55.2106C155.035 54.9946 155.612 54.888 156.193 54.897C156.831 54.9034 157.463 55.0354 158.05 55.2854V57.7194C157.503 57.345 156.856 57.145 156.193 57.1458C155.627 57.1458 155.084 57.3707 154.684 57.771C154.283 58.1713 154.058 58.7143 154.058 59.2804C154.058 59.8465 154.283 60.3894 154.684 60.7897C155.084 61.19 155.627 61.4149 156.193 61.4149C156.859 61.4191 157.509 61.212 158.05 60.8233V63.251Z" fill="#1B2D56"/>
<path id="Path 6360" d="M160.835 51.2522C161.015 51.2488 161.194 51.282 161.36 51.3497C161.527 51.4174 161.677 51.5183 161.804 51.6462C161.93 51.7741 162.029 51.9263 162.095 52.0936C162.16 52.2609 162.191 52.4398 162.186 52.6195C162.186 52.9776 162.043 53.3211 161.79 53.5743C161.537 53.8276 161.193 53.9698 160.835 53.9698C160.477 53.9698 160.134 53.8276 159.881 53.5743C159.627 53.3211 159.485 52.9776 159.485 52.6195C159.481 52.4402 159.513 52.262 159.579 52.0953C159.645 51.9287 159.744 51.7771 159.87 51.6495C159.996 51.5219 160.147 51.421 160.312 51.3527C160.478 51.2845 160.656 51.2503 160.835 51.2522ZM161.983 63.471H159.687V55.0672H161.983V63.471Z" fill="#1B2D56"/>
<path id="Path 6361" d="M166.219 63.472H163.906V51.8311H166.219V63.472Z" fill="#1B2D56"/>
</g>
<g id="Group 6860">
<path id="Path 6362" d="M0.823975 76.7533L1.80817 76.184C1.9175 76.4059 2.08722 76.5924 2.29782 76.7221C2.50843 76.8519 2.75137 76.9195 2.99872 76.9174C3.49928 76.9174 3.81888 76.6676 3.81888 76.3216C3.81888 75.9067 3.48976 75.7607 2.9384 75.5194L2.63679 75.3903C1.76478 75.0188 1.18696 74.5532 1.18696 73.569C1.18859 73.345 1.23681 73.1238 1.32856 72.9194C1.42031 72.715 1.55357 72.5319 1.71989 72.3818C1.88621 72.2318 2.08193 72.1179 2.29462 72.0476C2.50731 71.9772 2.73232 71.9518 2.95533 71.9731C3.30481 71.948 3.65395 72.0263 3.9592 72.1983C4.26446 72.3704 4.51231 72.6284 4.67184 72.9404L3.73104 73.5447C3.6694 73.3897 3.56207 73.2573 3.42332 73.1648C3.28457 73.0724 3.12097 73.0244 2.95427 73.0272C2.88177 73.0205 2.80867 73.0288 2.73954 73.0516C2.67041 73.0745 2.60673 73.1113 2.55249 73.1599C2.49826 73.2085 2.45463 73.2677 2.42434 73.3339C2.39405 73.4001 2.37775 73.4719 2.37646 73.5447C2.37646 73.9066 2.60081 74.0537 3.11724 74.278L3.41885 74.4082C4.44643 74.8474 5.0253 75.2961 5.0253 76.3067C5.0253 77.3936 4.17022 77.9883 3.02306 77.9883C2.57644 78.0165 2.1312 77.9149 1.74101 77.6958C1.35082 77.4767 1.03234 77.1494 0.823975 76.7533Z" fill="#209991"/>
<path id="Path 6363" d="M7.34402 73.1003H5.67407V72.042H10.231V73.1003H8.55574V77.9069H7.34402V73.1003Z" fill="#209991"/>
<path id="Path 6364" d="M11.3346 72.04H13.5093C14.7084 72.04 15.6925 72.6009 15.6925 73.9735C15.7121 74.3452 15.611 74.7133 15.4042 75.0228C15.1975 75.3323 14.8962 75.5667 14.5454 75.6911L15.882 77.9134H14.5062L13.3157 75.8763H12.5474V77.9134H11.3346V72.04ZM13.4744 74.854C14.0702 74.854 14.4491 74.6212 14.4491 73.9735C14.4491 73.3258 14.0522 73.1025 13.4744 73.1025H12.5421V74.8508L13.4744 74.854Z" fill="#209991"/>
<path id="Path 6365" d="M16.7372 74.9747C16.7322 74.373 16.906 73.7834 17.2366 73.2806C17.5672 72.7778 18.0397 72.3846 18.5942 72.1508C19.1486 71.917 19.7601 71.8531 20.3509 71.9673C20.9417 72.0816 21.4852 72.3687 21.9126 72.7923C22.3399 73.216 22.6318 73.757 22.7512 74.3468C22.8706 74.9365 22.8121 75.5485 22.5831 76.105C22.3542 76.6615 21.9651 77.1374 21.4652 77.4724C20.9653 77.8074 20.3772 77.9863 19.7755 77.9866C19.3763 77.9954 18.9794 77.9238 18.6086 77.7759C18.2377 77.628 17.9004 77.4069 17.6168 77.1258C17.3333 76.8447 17.1092 76.5094 16.9581 76.1398C16.807 75.7702 16.7318 75.374 16.7372 74.9747ZM21.5693 74.9747C21.5431 74.6258 21.4158 74.2921 21.2029 74.0145C20.99 73.7368 20.7008 73.5273 20.3706 73.4115C20.0405 73.2957 19.6837 73.2787 19.344 73.3625C19.0044 73.4464 18.6965 73.6275 18.4582 73.8836C18.2198 74.1398 18.0613 74.4599 18.0021 74.8047C17.9429 75.1495 17.9855 75.5041 18.1248 75.8251C18.264 76.1461 18.4938 76.4195 18.7861 76.6119C19.0783 76.8042 19.4203 76.9072 19.7702 76.9082C20.0182 76.9089 20.2637 76.8583 20.4912 76.7596C20.7187 76.6609 20.9234 76.5162 21.0923 76.3347C21.2613 76.1531 21.3908 75.9386 21.4729 75.7046C21.555 75.4705 21.5878 75.2221 21.5693 74.9747Z" fill="#209991"/>
<path id="Path 6366" d="M25.7983 75.1821C25.5495 74.929 25.3162 74.6611 25.0998 74.3799C25.1467 74.7348 25.1753 75.0919 25.1855 75.4498V77.9092H24.0553V71.9893H24.1759L27.1391 74.7683C27.3858 75.0208 27.6163 75.2888 27.8291 75.5704C27.8291 75.5704 27.7518 74.9058 27.7518 74.5005V72.0411H28.8799V77.9568H28.7582L25.7983 75.1821Z" fill="#209991"/>
<path id="Path 6367" d="M30.1219 74.9752C30.1052 74.577 30.1712 74.1798 30.3157 73.8084C30.4602 73.437 30.6801 73.0996 30.9615 72.8174C31.2428 72.5353 31.5796 72.3145 31.9506 72.1689C32.3215 72.0234 32.7186 71.9563 33.1168 71.9718C33.5103 71.9394 33.906 71.9955 34.275 72.136C34.644 72.2764 34.9769 72.4977 35.2492 72.7835L34.4291 73.5941C34.265 73.4119 34.0618 73.2691 33.8348 73.1765C33.6077 73.084 33.3626 73.044 33.1179 73.0597C32.8736 73.0596 32.6321 73.1104 32.4085 73.2088C32.185 73.3072 31.9844 73.4511 31.8196 73.6313C31.6547 73.8115 31.5292 74.024 31.451 74.2554C31.3728 74.4868 31.3436 74.7319 31.3654 74.9752C31.3498 75.2339 31.3895 75.4929 31.4817 75.7351C31.5739 75.9773 31.7166 76.1971 31.9002 76.3799C32.0839 76.5628 32.3043 76.7045 32.5469 76.7956C32.7895 76.8868 33.0487 76.9253 33.3073 76.9086C33.7001 76.9167 34.0904 76.8447 34.4545 76.697V75.7445H33.0396V74.6863H35.5593V77.3097C34.8993 77.7688 34.1111 78.0074 33.3073 77.9912C32.8954 78.0223 32.4816 77.9669 32.0923 77.8286C31.7031 77.6903 31.3471 77.4722 31.0471 77.1881C30.7472 76.9041 30.5099 76.5606 30.3506 76.1795C30.1913 75.7984 30.1134 75.3882 30.1219 74.9752Z" fill="#209991"/>
<path id="Path 6368" d="M38.8367 74.9751C38.8302 74.5775 38.904 74.1826 39.0537 73.8142C39.2034 73.4457 39.4259 73.1113 39.7079 72.8309C39.9899 72.5505 40.3256 72.3298 40.6949 72.1822C41.0642 72.0346 41.4594 71.963 41.857 71.9717C42.3203 71.9402 42.7835 72.0352 43.1969 72.2466C43.6104 72.458 43.9586 72.7778 44.2043 73.1718L43.2815 73.8279C43.1336 73.585 42.9237 73.3859 42.6734 73.251C42.423 73.1162 42.1412 73.0505 41.857 73.0607C41.3738 73.1 40.923 73.3197 40.5943 73.6762C40.2657 74.0327 40.0832 74.4998 40.0832 74.9846C40.0832 75.4695 40.2657 75.9366 40.5943 76.2931C40.923 76.6495 41.3738 76.8693 41.857 76.9086C42.1636 76.9171 42.4667 76.8412 42.7331 76.6891C42.9994 76.537 43.2188 76.3145 43.3672 76.0461L44.308 76.6937C44.0495 77.1064 43.6867 77.4434 43.2561 77.6707C42.8255 77.898 42.3425 78.0074 41.856 77.988C41.4579 77.9956 41.0624 77.9229 40.6931 77.7743C40.3238 77.6256 39.9882 77.4041 39.7064 77.1229C39.4246 76.8416 39.2023 76.5065 39.0529 76.1375C38.9035 75.7685 38.83 75.3732 38.8367 74.9751Z" fill="#209991"/>
<path id="Path 6369" d="M45.1328 74.9749C45.1276 74.3729 45.3013 73.7829 45.632 73.2798C45.9626 72.7767 46.4353 72.3831 46.99 72.1491C47.5447 71.9151 48.1564 71.8511 48.7475 71.9653C49.3386 72.0796 49.8824 72.3668 50.31 72.7907C50.7376 73.2145 51.0296 73.7558 51.149 74.3459C51.2684 74.936 51.2098 75.5482 50.9806 76.105C50.7514 76.6617 50.362 77.1378 49.8618 77.4728C49.3616 77.8078 48.7732 77.9867 48.1711 77.9867C47.7719 77.9956 47.3751 77.9239 47.0042 77.776C46.6333 77.6282 46.296 77.4071 46.0125 77.126C45.7289 76.8449 45.5049 76.5095 45.3537 76.14C45.2026 75.7704 45.1275 75.3742 45.1328 74.9749ZM49.966 74.9749C49.9398 74.626 49.8125 74.2923 49.5996 74.0146C49.3867 73.737 49.0975 73.5274 48.7673 73.4116C48.4372 73.2959 48.0804 73.2788 47.7407 73.3627C47.401 73.4466 47.0932 73.6277 46.8548 73.8838C46.6165 74.1399 46.458 74.46 46.3988 74.8049C46.3396 75.1497 46.3822 75.5043 46.5215 75.8253C46.6607 76.1463 46.8905 76.4197 47.1828 76.612C47.475 76.8044 47.817 76.9074 48.1669 76.9084C48.4153 76.9096 48.6612 76.8595 48.8892 76.761C49.1172 76.6626 49.3224 76.518 49.4918 76.3364C49.6612 76.1548 49.7912 75.94 49.8735 75.7057C49.9558 75.4714 49.9888 75.2226 49.9702 74.9749H49.966Z" fill="#209991"/>
<path id="Path 6370" d="M52.4551 71.9795H52.5503L55.4415 75.1543L58.2893 71.9795H58.3951V77.9058H57.231V75.7046C57.231 75.3078 57.2744 74.6781 57.2744 74.6781C57.077 74.9649 56.8651 75.2415 56.6395 75.5067L55.4754 76.8094H55.3632L54.1991 75.5067C53.9737 75.2413 53.7618 74.9648 53.5641 74.6781C53.5641 74.6781 53.6075 75.313 53.6075 75.7046V77.9058H52.4551V71.9795Z" fill="#209991"/>
<path id="Path 6371" d="M59.8341 71.9795H59.9294L62.8195 75.1543L65.6673 71.9795H65.7731V77.9058H64.609V75.7046C64.609 75.3078 64.6524 74.6781 64.6524 74.6781C64.455 74.9649 64.2431 75.2415 64.0174 75.5067L62.8533 76.8094H62.7412L61.5771 75.5067C61.3517 75.2413 61.1397 74.9648 60.9421 74.6781C60.9421 74.6781 60.9855 75.313 60.9855 75.7046V77.9058H59.8341V71.9795Z" fill="#209991"/>
<path id="Path 6372" d="M67.186 75.7863V72.04H68.3946V75.7175C68.3946 76.5716 68.766 76.8996 69.5682 76.8996C70.3704 76.8996 70.7249 76.5716 70.7249 75.7175V72.04H71.9324V75.7863C71.8868 76.3845 71.617 76.9434 71.177 77.3512C70.7369 77.759 70.1591 77.9855 69.5592 77.9855C68.9593 77.9855 68.3815 77.759 67.9414 77.3512C67.5014 76.9434 67.2316 76.3845 67.186 75.7863Z" fill="#209991"/>
<path id="Path 6373" d="M75.0912 75.1821C74.8423 74.9291 74.6091 74.6612 74.3928 74.3799C74.4398 74.7348 74.4684 75.0919 74.4785 75.4498V77.9092H73.3483V71.9893H73.4679L76.431 74.7683C76.6777 75.0208 76.9082 75.2888 77.121 75.5704C77.121 75.5704 77.0437 74.9058 77.0437 74.5005V72.0411H78.174V77.9568H78.0523L75.0912 75.1821Z" fill="#209991"/>
<path id="Path 6374" d="M79.6384 72.04H80.8459V77.9092H79.6384V72.04Z" fill="#209991"/>
<path id="Path 6375" d="M83.6483 73.1003H81.973V72.042H86.5299V73.1003H84.8547V77.9069H83.6483V73.1003Z" fill="#209991"/>
<path id="Path 6376" d="M89.3124 75.7599L87.2762 72.04H88.6308L89.4595 73.6359C89.6711 74.0507 89.9346 74.7407 89.9346 74.7407C89.9346 74.7407 90.1759 74.0687 90.3918 73.6359L91.1866 72.04H92.429L90.5304 75.6731V77.9081H89.3134L89.3124 75.7599Z" fill="#209991"/>
<path id="Path 6377" d="M95.0426 76.7534L96.0268 76.1841C96.1362 76.4059 96.306 76.5924 96.5166 76.7221C96.7271 76.8518 96.97 76.9195 97.2174 76.9175C97.7179 76.9175 98.0375 76.6677 98.0375 76.3217C98.0375 75.9068 97.7094 75.7608 97.157 75.5195L96.8554 75.3904C95.9823 75.0189 95.4056 74.5533 95.4056 73.5691C95.4072 73.345 95.4555 73.1237 95.5473 72.9192C95.6391 72.7148 95.7724 72.5316 95.9389 72.3815C96.1053 72.2314 96.3012 72.1176 96.514 72.0473C96.7268 71.977 96.9519 71.9518 97.175 71.9732C97.5245 71.9478 97.8738 72.0261 98.1791 72.1981C98.4844 72.3701 98.7322 72.6284 98.8915 72.9405L97.9507 73.5448C97.8892 73.39 97.782 73.2577 97.6434 73.1652C97.5049 73.0728 97.3415 73.0247 97.175 73.0273C97.1025 73.0206 97.0294 73.0289 96.9603 73.0517C96.8911 73.0746 96.8275 73.1114 96.7732 73.16C96.719 73.2086 96.6754 73.2678 96.6451 73.334C96.6148 73.4002 96.5985 73.472 96.5972 73.5448C96.5972 73.9067 96.8205 74.0538 97.338 74.2782L97.6396 74.4083C98.6672 74.8475 99.245 75.2962 99.245 76.3068C99.245 77.3937 98.3899 77.9884 97.2428 77.9884C96.796 78.0168 96.3505 77.9154 95.9601 77.6962C95.5697 77.4771 95.251 77.1497 95.0426 76.7534Z" fill="#209991"/>
<path id="Path 6378" d="M101.566 73.1003H99.8916V72.042H104.449V73.1003H102.774V77.9069H101.566V73.1003Z" fill="#209991"/>
<path id="Path 6379" d="M105.553 72.04H107.728C108.927 72.04 109.911 72.6009 109.911 73.9735C109.931 74.3453 109.829 74.7135 109.623 75.0231C109.416 75.3326 109.114 75.5669 108.763 75.6911L110.1 77.9134H108.724L107.533 75.8763H106.765V77.9134H105.557L105.553 72.04ZM107.693 74.854C108.289 74.854 108.669 74.6212 108.669 73.9735C108.669 73.3258 108.272 73.1025 107.693 73.1025H106.762V74.8508L107.693 74.854Z" fill="#209991"/>
<path id="Path 6380" d="M110.956 74.9749C110.951 74.3729 111.124 73.7829 111.455 73.2798C111.786 72.7767 112.258 72.3831 112.813 72.1491C113.368 71.9151 113.979 71.8511 114.571 71.9653C115.162 72.0796 115.706 72.3668 116.133 72.7907C116.561 73.2145 116.853 73.7558 116.972 74.3459C117.091 74.936 117.033 75.5482 116.804 76.105C116.575 76.6617 116.185 77.1378 115.685 77.4728C115.185 77.8078 114.596 77.9867 113.994 77.9867C113.595 77.9956 113.198 77.9239 112.827 77.776C112.456 77.6282 112.119 77.4071 111.836 77.126C111.552 76.8449 111.328 76.5095 111.177 76.14C111.026 75.7704 110.951 75.3742 110.956 74.9749ZM115.789 74.9749C115.763 74.626 115.636 74.2923 115.423 74.0146C115.21 73.737 114.921 73.5274 114.59 73.4116C114.26 73.2959 113.904 73.2788 113.564 73.3627C113.224 73.4466 112.916 73.6277 112.678 73.8838C112.44 74.1399 112.281 74.46 112.222 74.8049C112.163 75.1497 112.205 75.5043 112.345 75.8253C112.484 76.1463 112.714 76.4197 113.006 76.612C113.298 76.8044 113.64 76.9074 113.99 76.9084C114.238 76.9091 114.483 76.8585 114.711 76.7598C114.939 76.6611 115.143 76.5164 115.312 76.3348C115.481 76.1533 115.611 75.9387 115.693 75.7047C115.775 75.4707 115.808 75.2222 115.789 74.9749Z" fill="#209991"/>
<path id="Path 6381" d="M120.017 75.1821C119.768 74.9291 119.535 74.6612 119.319 74.3799C119.366 74.7348 119.395 75.0919 119.405 75.4498V77.9092H118.275V71.9893H118.395L121.358 74.7683C121.605 75.0208 121.835 75.2888 122.048 75.5704C122.048 75.5704 121.971 74.9058 121.971 74.5005V72.0411H123.101V77.9568H122.981L120.017 75.1821Z" fill="#209991"/>
<path id="Path 6382" d="M124.34 74.9751C124.323 74.577 124.389 74.1797 124.534 73.8083C124.678 73.4369 124.898 73.0995 125.18 72.8174C125.461 72.5352 125.798 72.3144 126.169 72.1688C126.54 72.0233 126.937 71.9562 127.335 71.9717C127.728 71.9395 128.124 71.9957 128.493 72.1361C128.861 72.2766 129.194 72.4977 129.466 72.7834L128.646 73.5941C128.482 73.4119 128.279 73.2691 128.052 73.1766C127.825 73.084 127.58 73.044 127.335 73.0596C127.091 73.0597 126.849 73.1106 126.626 73.209C126.402 73.3075 126.202 73.4514 126.037 73.6316C125.872 73.8117 125.747 74.0242 125.668 74.2555C125.59 74.4868 125.561 74.7319 125.582 74.9751C125.567 75.2338 125.607 75.4928 125.699 75.735C125.791 75.9772 125.934 76.197 126.117 76.3799C126.301 76.5627 126.521 76.7044 126.764 76.7956C127.007 76.8867 127.266 76.9252 127.524 76.9085C127.918 76.9167 128.308 76.8447 128.673 76.6969V75.7445H127.258V74.6862H129.776V77.3096C129.116 77.7687 128.328 78.0073 127.524 77.9912C127.113 78.0221 126.699 77.9666 126.31 77.8282C125.921 77.6898 125.565 77.4717 125.265 77.1877C124.965 76.9037 124.728 76.5601 124.569 76.1791C124.409 75.7981 124.332 75.388 124.34 74.9751Z" fill="#209991"/>
<path id="Path 6383" d="M133.255 72.04H137.035V73.0983H134.463V74.6254H136.802V75.7048H134.463V77.906H133.255V72.04Z" fill="#209991"/>
<path id="Path 6384" d="M138.243 75.7863V72.04H139.451V75.7175C139.451 76.5716 139.823 76.8996 140.625 76.8996C141.427 76.8996 141.782 76.5716 141.782 75.7175V72.04H142.989V75.7863C142.943 76.3845 142.674 76.9434 142.234 77.3512C141.794 77.759 141.216 77.9855 140.616 77.9855C140.016 77.9855 139.438 77.759 138.998 77.3512C138.558 76.9434 138.288 76.3845 138.243 75.7863Z" fill="#209991"/>
<path id="Path 6385" d="M145.742 73.1003H144.068V72.042H148.625V73.1003H146.951V77.9069H145.742V73.1003Z" fill="#209991"/>
<path id="Path 6386" d="M149.699 75.7863V72.04H150.908V75.7175C150.908 76.5716 151.278 76.8996 152.081 76.8996C152.884 76.8996 153.238 76.5716 153.238 75.7175V72.04H154.445V75.7863C154.398 76.3832 154.128 76.9404 153.688 77.3467C153.248 77.7531 152.671 77.9787 152.073 77.9787C151.474 77.9787 150.897 77.7531 150.457 77.3467C150.018 76.9404 149.747 76.3832 149.7 75.7863H149.699Z" fill="#209991"/>
<path id="Path 6387" d="M155.865 72.04H158.039C159.239 72.04 160.223 72.6009 160.223 73.9735C160.242 74.3452 160.141 74.7133 159.934 75.0228C159.728 75.3323 159.426 75.5667 159.076 75.6911L160.412 77.9134H159.036L157.846 75.8763H157.079V77.9134H155.87L155.865 72.04ZM158.005 74.854C158.6 74.854 158.979 74.6212 158.979 73.9735C158.979 73.3258 158.582 73.1025 158.005 73.1025H157.073V74.8508L158.005 74.854Z" fill="#209991"/>
<path id="Path 6388" d="M161.508 72.04H165.391V73.0983H162.717V74.4444H165.073V75.4805H162.717V76.8435H165.513V77.9018H161.508V72.04Z" fill="#209991"/>
</g>
<path id="Path 6389" d="M142.538 22.2023V43.0237H84.9684C88.012 37.0382 95.513 32.1468 105.274 29.6176C109.457 28.5517 113.742 27.9407 118.055 27.7952C118.728 27.7705 119.406 27.7557 120.088 27.7508C126.401 27.809 131.469 29.6282 131.469 31.8685C131.469 33.9723 125.244 36.3482 119.744 35.9566C121.11 35.4994 122.258 34.6126 122.258 33.8337C122.258 31.5743 119.083 29.7414 115.167 29.7414C111.915 29.7414 109.182 31.0113 108.348 32.7321C108.176 33.0738 108.084 33.4502 108.08 33.8327C108.08 35.4275 109.667 36.8053 111.968 37.4816C112.338 37.5761 112.718 37.665 113.106 37.7483C115.585 38.2606 118.112 38.5135 120.644 38.5028C129.653 38.5028 136.956 35.5217 136.956 31.8442C136.932 31.0677 136.637 30.3241 136.122 29.7424C134.5 27.7508 130.639 26.1782 125.751 25.521C125.484 25.485 125.211 25.4565 124.938 25.4258C123.511 25.2666 122.076 25.1868 120.639 25.1866H118.116C110.858 25.1512 103.628 26.0851 96.6178 27.9635C85.8468 30.6781 75.8432 35.8307 67.3789 43.0237H48.5787L48.6465 42.9719C62.0495 32.476 81.5364 24.9019 103.967 22.1314C110.277 21.3566 116.627 20.97 122.984 20.9736H127.657C132.643 20.9146 137.617 20.4876 142.54 19.6963V22.2023H142.538Z" fill="#169B9D"/>
</g>
</g>
<defs>
<clipPath id="clip0_2529_580">
<rect width="165.906" height="77.9997" fill="white" transform="translate(0.313232)"/>
</clipPath>
</defs>
</svg>
