<svg width="216" height="40" viewBox="0 0 216 40" fill="none" xmlns="http://www.w3.org/2000/svg">
<g id="rotorua-lakes-council-logo 1" clip-path="url(#clip0_2529_639)">
<g id="Clip path group">
<mask id="mask0_2529_639" style="mask-type:luminance" maskUnits="userSpaceOnUse" x="0" y="0" width="215" height="40">
<g id="clip0_219_2005">
<path id="Vector" d="M214.381 0H0.21875V40H214.381V0Z" fill="white"/>
</g>
</mask>
<g mask="url(#mask0_2529_639)">
<g id="Group">
<path id="Vector_2" d="M160.346 9.20534V6.9811L160.373 2.7505V0.589808C160.464 0.562572 160.6 0.544415 160.773 0.526258C160.945 0.508101 161.118 0.499023 161.281 0.499023C161.426 0.499023 161.59 0.499023 161.799 0.51718C161.998 0.526258 162.162 0.553494 162.28 0.589808C162.28 0.925713 162.262 1.25255 162.262 1.56122C162.262 1.86989 162.262 2.17856 162.262 2.47815V8.29748C163.015 8.24301 163.751 8.12499 164.468 7.94342C165.185 7.76185 165.911 7.5712 166.637 7.35332C166.683 7.48949 166.692 7.65291 166.683 7.86171C166.683 8.07052 166.656 8.27025 166.61 8.46997C166.565 8.66969 166.529 8.8422 166.474 8.98745C166.42 9.13271 166.365 9.20534 166.32 9.20534C165.711 9.18718 165.067 9.1781 164.368 9.1781C163.669 9.1781 162.979 9.1781 162.28 9.1781L160.355 9.20534H160.346Z" fill="#18ADC9"/>
<path id="Vector_3" d="M172.829 7.1082C171.54 7.08096 170.305 7.08096 169.152 7.1082L168.517 9.19626C168.426 9.19626 168.326 9.20534 168.208 9.20534H167.409C167.273 9.20534 167.137 9.20534 166.992 9.19626C167.809 7.27161 168.508 5.60116 169.08 4.16675C169.652 2.74142 170.115 1.54306 170.46 0.589808C170.623 0.562572 170.795 0.544415 170.968 0.526258C171.14 0.508101 171.322 0.499023 171.504 0.499023C171.667 0.499023 171.83 0.499023 171.994 0.51718C172.157 0.535337 172.321 0.553494 172.484 0.589808C173.101 2.25118 173.682 3.80361 174.245 5.22894C174.808 6.65427 175.353 7.97974 175.87 9.18718H173.619C173.592 9.11455 173.546 8.99653 173.492 8.82404C173.428 8.66063 173.347 8.45182 173.247 8.2067C173.147 7.96158 173.056 7.74369 172.983 7.55304C172.911 7.36239 172.847 7.21714 172.811 7.09912L172.829 7.1082ZM172.62 6.32744C172.221 5.31973 171.885 4.45727 171.622 3.74006C171.349 3.02286 171.14 2.45091 170.977 1.99698C170.478 3.24074 169.933 4.68423 169.334 6.32744C170.332 6.3456 171.431 6.3456 172.62 6.32744Z" fill="#18ADC9"/>
<path id="Vector_4" d="M178.812 0.590098C178.812 0.926004 178.794 1.25283 178.785 1.5615C178.785 1.87017 178.766 2.17884 178.766 2.48751C178.766 2.79618 178.766 3.10485 178.766 3.41352V5.04766C179.347 4.95687 179.82 4.75714 180.192 4.44847C180.564 4.1398 180.845 3.77666 181.054 3.35905C181.263 2.94144 181.408 2.48751 181.481 1.99727C181.563 1.50703 181.599 1.03495 181.599 0.58102C181.744 0.553784 181.899 0.535627 182.08 0.51747C182.262 0.499313 182.452 0.490234 182.643 0.490234C182.815 0.490234 182.988 0.490234 183.151 0.508391C183.315 0.51747 183.46 0.544706 183.587 0.58102C183.569 1.10757 183.487 1.59781 183.333 2.04266C183.179 2.48751 182.97 2.88697 182.706 3.25919C182.443 3.62233 182.135 3.94915 181.771 4.24875C181.417 4.53926 181.018 4.80254 180.591 5.0295C180.9 5.40172 181.227 5.78302 181.572 6.16431C181.917 6.54561 182.253 6.92691 182.588 7.29005C182.924 7.65319 183.251 8.00726 183.56 8.33408C183.878 8.66999 184.159 8.95142 184.404 9.20562H181.79C181.317 8.58828 180.818 7.9891 180.301 7.41715C179.783 6.8452 179.266 6.2551 178.757 5.62868C178.757 6.22786 178.757 6.81797 178.775 7.41715C178.785 8.00726 178.794 8.60644 178.803 9.20562H176.887V6.98138L176.914 2.75079V0.590098C177.032 0.562863 177.169 0.544706 177.323 0.526548C177.477 0.508391 177.641 0.499313 177.804 0.499313C177.94 0.499313 178.104 0.499313 178.303 0.51747C178.503 0.535627 178.667 0.553784 178.803 0.590098H178.812Z" fill="#18ADC9"/>
<path id="Vector_5" d="M187.191 1.41675C187.191 1.84344 187.173 2.29737 187.164 2.77853C187.164 3.25969 187.155 3.79533 187.155 4.40359L190.832 4.36727V5.31144L187.155 5.23881V6.05588C187.164 6.26469 187.164 6.44626 187.164 6.61875C187.164 6.79124 187.164 6.94557 187.164 7.09991C187.164 7.25424 187.164 7.41766 187.173 7.58107C187.173 7.75356 187.173 7.94421 187.173 8.1621V8.29828C187.745 8.27104 188.281 8.23473 188.771 8.18933C189.261 8.14394 189.706 8.08947 190.087 8.035C190.469 7.98053 190.795 7.92606 191.05 7.88066C191.304 7.83527 191.485 7.78988 191.585 7.75356C191.631 7.88974 191.649 8.035 191.64 8.20749C191.64 8.37998 191.613 8.53432 191.585 8.68865C191.549 8.83391 191.513 8.96101 191.458 9.06995C191.404 9.16981 191.349 9.22429 191.304 9.22429C190.868 9.20613 190.387 9.19705 189.879 9.19705C189.37 9.19705 188.853 9.19705 188.317 9.19705C187.781 9.19705 187.264 9.19705 186.746 9.20613C186.229 9.20613 185.739 9.22429 185.276 9.23336C185.294 8.27104 185.303 7.31779 185.303 6.36455C185.303 5.4113 185.303 4.45806 185.303 3.48666C185.303 3.01457 185.303 2.53341 185.303 2.06133C185.303 1.58016 185.285 1.099 185.276 0.61784C185.721 0.599683 186.111 0.590605 186.438 0.572448C186.765 0.563369 187.119 0.545212 187.491 0.545212C187.863 0.545212 188.199 0.536133 188.49 0.536133H189.007C189.234 0.536133 189.479 0.536133 189.742 0.536133C190.006 0.536133 190.26 0.536134 190.505 0.545212C190.75 0.545212 190.959 0.563369 191.113 0.572448C191.15 0.572448 191.177 0.626919 191.204 0.735861C191.231 0.844804 191.258 0.971903 191.277 1.11716C191.295 1.26242 191.295 1.40767 191.295 1.54385C191.295 1.68911 191.268 1.78897 191.222 1.85252C191.013 1.78897 190.578 1.69819 189.906 1.59832C189.234 1.49846 188.326 1.43491 187.182 1.41675H187.191Z" fill="#18ADC9"/>
<path id="Vector_6" d="M194.037 2.06976C194.009 2.24225 194.037 2.40566 194.091 2.56C194.155 2.71433 194.318 2.87775 194.581 3.05932C194.844 3.24089 195.235 3.44062 195.752 3.6585C196.27 3.88546 196.96 4.15782 197.84 4.47557C198.549 4.72977 199.066 5.08383 199.393 5.5196C199.729 5.95537 199.865 6.43653 199.829 6.94493C199.792 7.35346 199.674 7.70752 199.456 7.99804C199.239 8.29763 198.966 8.54275 198.639 8.7334C198.303 8.92405 197.931 9.0693 197.504 9.16917C197.078 9.25995 196.624 9.31442 196.152 9.31442C195.952 9.31442 195.734 9.29627 195.489 9.26903C195.244 9.2418 194.99 9.1964 194.726 9.13285C194.463 9.0693 194.209 8.9876 193.964 8.88773C193.719 8.78787 193.492 8.66985 193.283 8.52459C193.083 8.37934 192.911 8.225 192.775 8.04343C192.638 7.86186 192.557 7.65305 192.52 7.42609C192.493 7.26268 192.511 7.09926 192.566 6.93585C192.62 6.77244 192.702 6.6181 192.802 6.47284C192.902 6.32759 193.029 6.19141 193.165 6.06431C193.31 5.93721 193.446 5.83735 193.601 5.75564L193.664 5.78288C193.846 6.16417 194.055 6.52732 194.282 6.88138C194.518 7.22636 194.763 7.53503 195.017 7.79831C195.28 8.06159 195.544 8.27039 195.816 8.41565C196.088 8.56998 196.361 8.64261 196.633 8.64261C197.023 8.64261 197.341 8.56091 197.586 8.39749C197.831 8.23408 197.958 8.00712 197.958 7.7166C197.958 7.56227 197.94 7.41701 197.913 7.28991C197.877 7.16281 197.786 7.02663 197.641 6.89953C197.495 6.76336 197.268 6.6181 196.969 6.45469C196.669 6.29127 196.261 6.10062 195.734 5.87366C195.407 5.7284 195.062 5.59223 194.69 5.44697C194.318 5.30171 193.973 5.12922 193.664 4.92042C193.356 4.72069 193.092 4.47557 192.884 4.19413C192.675 3.9127 192.575 3.56771 192.575 3.1501C192.575 2.73249 192.675 2.36935 192.865 2.03344C193.056 1.69754 193.328 1.39795 193.664 1.15283C194 0.907704 194.391 0.717054 194.835 0.580877C195.28 0.444699 195.761 0.37207 196.261 0.37207C196.678 0.37207 197.078 0.417463 197.468 0.508248C197.859 0.599034 198.204 0.726133 198.503 0.871389C198.803 1.02573 199.048 1.2073 199.229 1.4161C199.411 1.62491 199.502 1.84279 199.502 2.06068C199.502 2.32396 199.375 2.56908 199.12 2.78696C198.866 3.00485 198.521 3.17734 198.104 3.28628L198.067 3.25904C197.958 2.90498 197.804 2.58723 197.595 2.32396C197.386 2.0516 197.16 1.82464 196.905 1.64307C196.651 1.4615 196.388 1.32532 196.106 1.23453C195.825 1.14375 195.562 1.09835 195.307 1.09835C194.972 1.09835 194.69 1.18006 194.454 1.3344C194.218 1.48873 194.073 1.73385 194.018 2.0516L194.037 2.06976Z" fill="#18ADC9"/>
<path id="Vector_7" d="M163.696 21.9886C163.987 21.9886 164.25 21.9069 164.495 21.7526C164.74 21.5983 164.949 21.3895 165.13 21.1262C165.312 20.8629 165.448 20.5633 165.548 20.2274C165.648 19.8915 165.702 19.5374 165.711 19.1743L165.757 19.138C166.047 19.138 166.302 19.138 166.538 19.1652C166.765 19.1834 166.955 19.2197 167.101 19.2923C167.246 19.3559 167.355 19.4648 167.409 19.6192C167.464 19.7735 167.464 19.9823 167.409 20.2637C167.264 20.7903 167.028 21.2079 166.719 21.5347C166.411 21.8615 166.066 22.1067 165.702 22.2882C165.33 22.4698 164.967 22.5878 164.613 22.6514C164.259 22.7149 163.959 22.7422 163.714 22.7422C163.07 22.7422 162.489 22.6241 161.971 22.3972C161.454 22.1611 161.009 21.8434 160.637 21.4349C160.264 21.0263 159.983 20.5361 159.792 19.9823C159.602 19.4194 159.502 18.8202 159.502 18.1575C159.502 17.5492 159.602 16.9864 159.81 16.4507C160.01 15.9242 160.31 15.4612 160.691 15.0708C161.072 14.6804 161.544 14.3718 162.098 14.1448C162.652 13.9178 163.269 13.7998 163.968 13.7998C164.413 13.7998 164.849 13.8724 165.276 14.0177C165.702 14.163 166.084 14.3627 166.42 14.6169C166.756 14.8711 167.028 15.1798 167.228 15.5247C167.427 15.8697 167.536 16.2419 167.536 16.6414C167.536 16.9591 167.364 17.168 167.055 17.286C166.737 17.3949 166.293 17.4494 165.721 17.4494L165.684 17.4131C165.684 17.0409 165.63 16.6777 165.539 16.3236C165.448 15.9696 165.321 15.6609 165.158 15.3886C164.985 15.1162 164.785 14.8983 164.54 14.7258C164.304 14.5624 164.023 14.4807 163.705 14.4807C163.088 14.4807 162.588 14.8075 162.207 15.4703C161.826 16.133 161.626 17.0772 161.626 18.3118C161.626 18.8566 161.681 19.3559 161.79 19.8098C161.899 20.2637 162.053 20.645 162.243 20.9719C162.434 21.2987 162.652 21.5438 162.906 21.7254C163.151 21.9069 163.415 21.9886 163.687 21.9886H163.696Z" fill="#18ADC9"/>
<path id="Vector_8" d="M176.46 18.2203C176.46 18.9194 176.361 19.5458 176.161 20.0996C175.961 20.6624 175.68 21.1345 175.317 21.5249C174.953 21.9153 174.509 22.2149 173.982 22.4237C173.455 22.6325 172.874 22.7414 172.23 22.7414C171.585 22.7414 171.031 22.6415 170.523 22.4327C170.015 22.233 169.588 21.9334 169.234 21.5521C168.88 21.1708 168.608 20.6987 168.417 20.145C168.226 19.5912 168.135 18.9738 168.135 18.2748C168.135 17.5757 168.226 16.9584 168.426 16.4046C168.617 15.8508 168.889 15.3787 169.252 14.9974C169.615 14.6071 170.051 14.3075 170.559 14.0987C171.077 13.8898 171.658 13.79 172.312 13.79C172.965 13.79 173.537 13.8898 174.046 14.0987C174.554 14.2984 174.99 14.598 175.344 14.9793C175.698 15.3606 175.97 15.8327 176.161 16.3683C176.352 16.913 176.442 17.5303 176.442 18.2112L176.46 18.2203ZM174.363 18.2475C174.363 17.6574 174.318 17.1309 174.227 16.6679C174.136 16.2049 174 15.8145 173.819 15.4877C173.637 15.1608 173.428 14.9157 173.174 14.7432C172.92 14.5707 172.629 14.48 172.312 14.48C171.676 14.48 171.168 14.8068 170.805 15.4604C170.432 16.1141 170.251 17.0492 170.251 18.2566C170.251 19.4641 170.432 20.3992 170.805 21.0619C171.177 21.7246 171.676 22.0605 172.302 22.0605C172.929 22.0605 173.419 21.7337 173.8 21.0619C174.182 20.3992 174.363 19.455 174.363 18.2385V18.2475Z" fill="#18ADC9"/>
<path id="Vector_9" d="M184.64 19.0466C184.64 19.6458 184.64 20.2359 184.658 20.8351C184.667 21.4343 184.686 22.0244 184.686 22.6236H182.897V21.2164C182.752 21.4252 182.598 21.6158 182.416 21.7974C182.234 21.979 182.044 22.1424 181.835 22.2786C181.626 22.4238 181.39 22.5328 181.136 22.6145C180.882 22.6962 180.609 22.7416 180.319 22.7416C180.192 22.7416 180.037 22.7234 179.847 22.6962C179.656 22.6689 179.456 22.6054 179.248 22.5146C179.039 22.4238 178.821 22.2967 178.612 22.1424C178.403 21.9881 178.213 21.7792 178.049 21.525C177.886 21.2709 177.75 20.9531 177.641 20.59C177.532 20.2268 177.486 19.7911 177.495 19.2827C177.495 18.7924 177.495 18.2931 177.495 17.7938C177.495 17.2854 177.495 16.7951 177.504 16.3231C177.504 15.851 177.504 15.4152 177.504 15.0157V13.9989C177.604 13.9717 177.741 13.9536 177.913 13.9354C178.085 13.9172 178.276 13.9082 178.485 13.9082C178.648 13.9082 178.812 13.9082 178.966 13.9263C179.12 13.9354 179.266 13.9626 179.393 13.9989L179.302 16.4138C179.284 16.895 179.275 17.3852 179.257 17.8846C179.248 18.3839 179.257 18.8741 179.284 19.3553C179.329 19.6095 179.384 19.8637 179.465 20.1179C179.547 20.3721 179.656 20.599 179.792 20.7988C179.938 20.9985 180.11 21.1528 180.328 21.2709C180.546 21.3889 180.8 21.4343 181.1 21.4161C181.399 21.398 181.662 21.3253 181.88 21.1891C182.107 21.053 182.289 20.9168 182.434 20.7625C182.579 20.6081 182.688 20.4629 182.761 20.3358C182.834 20.1996 182.87 20.136 182.87 20.127V19.9999C182.87 19.4915 182.87 19.0012 182.87 18.511C182.87 18.0298 182.87 17.5396 182.879 17.0493C182.879 16.5591 182.879 16.0689 182.879 15.5605V13.9989C182.97 13.9717 183.106 13.9536 183.287 13.9354C183.469 13.9172 183.642 13.9082 183.805 13.9082C183.941 13.9082 184.086 13.9082 184.259 13.9263C184.431 13.9354 184.558 13.9626 184.649 13.9989C184.649 14.3349 184.631 14.6526 184.622 14.9522C184.622 15.2609 184.604 15.5605 184.604 15.8691C184.604 16.1687 184.604 16.4774 184.604 16.7861V19.0375L184.64 19.0466Z" fill="#18ADC9"/>
<path id="Vector_10" d="M194.027 14.0084C194 15.7696 193.991 17.3584 193.982 18.7837C193.982 20.209 193.982 21.4891 194 22.6239H192.157C191.685 22.0156 191.249 21.4346 190.85 20.8627C190.451 20.2907 190.069 19.746 189.715 19.2104C189.352 18.6747 189.007 18.1573 188.671 17.6579C188.335 17.1586 187.999 16.6684 187.654 16.1963C187.573 17.549 187.618 19.6915 187.8 22.6239H186.483C186.447 21.2076 186.429 19.7823 186.429 18.357C186.429 16.9317 186.429 15.4791 186.456 14.0084C186.774 13.9357 187.082 13.8994 187.391 13.8994C187.609 13.8994 187.809 13.9085 187.999 13.9357C188.19 13.963 188.344 13.9811 188.471 13.9993C189.125 15.1341 189.797 16.2417 190.496 17.3311C191.186 18.4205 191.912 19.4918 192.675 20.554C192.675 19.4646 192.675 18.3842 192.638 17.313C192.602 16.2326 192.548 15.1341 192.475 14.0175C192.711 13.963 192.965 13.9267 193.256 13.9267C193.392 13.9267 193.519 13.9267 193.646 13.9448C193.773 13.9539 193.9 13.9811 194.009 14.0175L194.027 14.0084Z" fill="#18ADC9"/>
<path id="Vector_11" d="M199.338 21.9886C199.629 21.9886 199.892 21.9069 200.137 21.7526C200.382 21.5983 200.591 21.3895 200.773 21.1262C200.954 20.8629 201.091 20.5633 201.19 20.2274C201.29 19.8915 201.345 19.5374 201.354 19.1743L201.399 19.138C201.69 19.138 201.944 19.138 202.18 19.1652C202.407 19.1834 202.598 19.2197 202.743 19.2923C202.888 19.3559 202.997 19.4648 203.052 19.6192C203.106 19.7735 203.106 19.9823 203.052 20.2637C202.906 20.7903 202.67 21.2079 202.362 21.5347C202.053 21.8615 201.708 22.1067 201.345 22.2882C200.973 22.4698 200.609 22.5878 200.255 22.6514C199.901 22.7149 199.602 22.7422 199.357 22.7422C198.712 22.7422 198.131 22.6241 197.613 22.3972C197.096 22.1611 196.651 21.8434 196.279 21.4349C195.907 21.0263 195.625 20.5361 195.435 19.9823C195.244 19.4194 195.144 18.8202 195.144 18.1575C195.144 17.5492 195.244 16.9864 195.453 16.4507C195.653 15.9242 195.952 15.4612 196.333 15.0708C196.715 14.6804 197.187 14.3718 197.741 14.1448C198.294 13.9178 198.912 13.7998 199.611 13.7998C200.056 13.7998 200.491 13.8724 200.918 14.0177C201.345 14.163 201.726 14.3627 202.062 14.6169C202.398 14.8711 202.67 15.1798 202.87 15.5247C203.07 15.8697 203.179 16.2419 203.179 16.6414C203.179 16.9591 203.006 17.168 202.697 17.286C202.38 17.3949 201.935 17.4494 201.363 17.4494L201.327 17.4131C201.327 17.0409 201.272 16.6777 201.181 16.3236C201.091 15.9696 200.963 15.6609 200.8 15.3886C200.628 15.1162 200.428 14.8983 200.183 14.7258C199.947 14.5624 199.665 14.4807 199.347 14.4807C198.73 14.4807 198.231 14.8075 197.85 15.4703C197.468 16.133 197.268 17.0772 197.268 18.3118C197.268 18.8566 197.323 19.3559 197.432 19.8098C197.541 20.2637 197.695 20.645 197.886 20.9719C198.076 21.2987 198.294 21.5438 198.549 21.7254C198.794 21.9069 199.057 21.9886 199.329 21.9886H199.338Z" fill="#18ADC9"/>
<path id="Vector_12" d="M206.311 14.0087C206.283 14.7895 206.265 15.5975 206.256 16.4236C206.247 17.2589 206.238 18.0578 206.247 18.8385C206.247 19.6102 206.256 20.3274 206.274 20.9811C206.283 21.6347 206.302 22.1794 206.32 22.6243H204.395C204.413 22.1976 204.422 21.6529 204.44 20.9811C204.45 20.3092 204.459 19.583 204.468 18.8022C204.468 18.0215 204.468 17.2135 204.468 16.3782C204.468 15.543 204.45 14.7532 204.422 14.0087C204.513 13.9815 204.649 13.9634 204.822 13.9452C204.994 13.927 205.167 13.918 205.33 13.918C205.475 13.918 205.639 13.918 205.848 13.9361C206.047 13.9452 206.211 13.9724 206.329 14.0087H206.311Z" fill="#18ADC9"/>
<path id="Vector_13" d="M208.054 22.6243V20.4L208.081 16.1694V14.0087C208.172 13.9815 208.308 13.9634 208.48 13.9452C208.653 13.927 208.825 13.918 208.989 13.918C209.134 13.918 209.297 13.918 209.506 13.9361C209.706 13.9452 209.869 13.9724 209.987 14.0087C209.987 14.3446 209.969 14.6715 209.969 14.9801C209.969 15.2888 209.969 15.5975 209.969 15.8971V21.7164C210.723 21.6619 211.458 21.5439 212.175 21.3624C212.893 21.1808 213.619 20.9901 214.345 20.7722C214.391 20.9084 214.4 21.0718 214.391 21.2806C214.391 21.4895 214.363 21.6892 214.318 21.8889C214.273 22.0886 214.236 22.2611 214.182 22.4064C214.127 22.5516 214.073 22.6243 214.027 22.6243C213.419 22.6061 212.775 22.597 212.076 22.597C211.376 22.597 210.686 22.597 209.987 22.597L208.063 22.6243H208.054Z" fill="#18ADC9"/>
<path id="Vector_14" d="M19.792 22.8872H12.8925L8.79799 15.1886C7.98092 15.2521 7.32726 15.2431 6.82795 15.1523C6.3377 15.0706 5.99272 14.9979 5.79299 14.9616C5.79299 17.6035 5.82931 20.2453 5.89286 22.8872H1.04492C1.09031 20.4178 1.11755 17.9575 1.12663 15.5063C1.13571 13.0551 1.14479 10.5949 1.14479 8.12547C1.14479 6.88171 1.14479 5.64703 1.12663 4.42143C1.11755 3.19583 1.09031 1.97023 1.04492 0.74463C2.24329 0.508588 3.41442 0.336096 4.55831 0.227154C5.69313 0.118212 6.78255 0.0455834 7.80843 0.000190785C9.39717 -0.0452018 10.8407 0.0818976 12.1299 0.37241C13.419 0.662923 14.5175 1.09869 15.4344 1.69787C16.3513 2.28798 17.0504 3.01426 17.5406 3.87672C18.0308 4.73918 18.285 5.71058 18.285 6.80908C18.285 7.62615 18.1488 8.39783 17.8855 9.13319C17.6132 9.85947 17.25 10.5222 16.778 11.1123C16.3059 11.7024 15.7613 12.2381 15.153 12.7101C14.5447 13.1822 13.891 13.5726 13.201 13.8722C13.5914 14.5985 14.0454 15.3792 14.5719 16.2054C15.0984 17.0315 15.6522 17.8486 16.2514 18.6566C16.8415 19.4646 17.4408 20.2272 18.0581 20.9444C18.6663 21.6616 19.2564 22.2698 19.8102 22.7692V22.8963L19.792 22.8872ZM7.29095 13.4092C8.12617 13.4092 8.89785 13.273 9.61505 13.0097C10.3232 12.7374 10.9496 12.347 11.4853 11.8295C12.0209 11.3121 12.4385 10.6947 12.7381 9.95933C13.0377 9.23305 13.1919 8.39783 13.1919 7.4809C13.1919 6.89987 13.1285 6.31884 13.0014 5.73782C12.8743 5.15679 12.6655 4.61208 12.3931 4.11276C12.1117 3.60436 11.7486 3.15952 11.2945 2.77822C10.8406 2.38784 10.305 2.09733 9.68768 1.90668C9.27915 1.79774 8.87061 1.72511 8.44392 1.69787C8.02631 1.66156 7.63593 1.65248 7.28187 1.65248C6.92781 1.65248 6.62822 1.67064 6.3831 1.69787C6.13798 1.73419 5.98364 1.74327 5.92009 1.74327C5.8747 3.42279 5.84746 5.21126 5.82023 7.12683C5.80207 9.0424 5.78391 11.1032 5.78391 13.3093C6.30139 13.3729 6.80071 13.4092 7.30003 13.4092H7.29095Z" fill="#18ADC9"/>
<path id="Vector_15" d="M43.1057 11.4753C43.1057 13.2819 42.8515 14.9069 42.334 16.3595C41.8165 17.8121 41.0902 19.0377 40.1461 20.0454C39.2019 21.0531 38.0489 21.8339 36.6962 22.3786C35.3435 22.9233 33.8274 23.2047 32.157 23.2047C30.4865 23.2047 29.0521 22.9414 27.7448 22.4149C26.4375 21.8883 25.3208 21.1257 24.3948 20.1271C23.4688 19.1285 22.7698 17.9119 22.2886 16.4866C21.8074 15.0613 21.5623 13.4453 21.5623 11.6387C21.5623 9.83205 21.8074 8.21607 22.3068 6.79074C22.797 5.36541 23.5142 4.13981 24.4493 3.13209C25.3844 2.12438 26.5192 1.3527 27.8447 0.807989C29.1611 0.281434 30.6772 0 32.3749 0C34.0725 0 35.5523 0.263277 36.8687 0.789832C38.1942 1.31639 39.3109 2.07898 40.2369 3.07762C41.1629 4.07626 41.871 5.2837 42.3612 6.69088C42.8515 8.09805 43.1057 9.69587 43.1057 11.4753ZM37.6313 11.5388C37.6313 10.0136 37.5133 8.65184 37.2773 7.44439C37.0412 6.24603 36.6962 5.22015 36.2332 4.38493C35.7702 3.5497 35.2164 2.90513 34.5537 2.4512C33.9 1.99728 33.1556 1.77031 32.3113 1.77031C30.659 1.77031 29.3517 2.61462 28.3985 4.3123C27.4452 6.00999 26.9641 8.42487 26.9641 11.566C26.9641 14.7072 27.4452 17.1312 28.3985 18.847C29.3517 20.5629 30.6499 21.4253 32.2841 21.4253C33.9182 21.4253 35.1892 20.5629 36.1697 18.847C37.1502 17.1312 37.6313 14.6891 37.6313 11.5297V11.5388Z" fill="#18ADC9"/>
<path id="Vector_16" d="M55.3345 2.61494C55.2891 4.43973 55.2619 6.26451 55.2528 8.08022C55.2437 9.89592 55.2346 11.7207 55.2346 13.5455L55.2709 14.6712C55.2709 15.2069 55.2709 15.8333 55.2891 16.5596C55.2982 17.2768 55.3073 18.0121 55.3254 18.7656C55.3345 19.5192 55.3436 20.2545 55.3617 20.9717C55.3708 21.6889 55.3799 22.3335 55.3799 22.8873H50.7044C50.7498 20.3998 50.7771 17.9123 50.7861 15.4429C50.7952 12.9735 50.8043 10.4679 50.8043 7.93496C50.8043 7.0725 50.8043 6.21004 50.8225 5.32942C50.8315 4.44881 50.8225 3.55911 50.8043 2.65126C48.8706 2.7602 47.3545 2.95085 46.265 3.23228C45.1665 3.51372 44.3495 3.81331 43.8138 4.13106C43.7049 3.95856 43.6504 3.66805 43.6323 3.25952C43.6232 2.85098 43.6323 2.43337 43.6777 2.00668C43.723 1.57999 43.7957 1.19869 43.9046 0.862781C44.0136 0.526876 44.1316 0.363462 44.2587 0.363462H53.0558L61.8529 0.327148C61.98 0.327148 62.098 0.490562 62.1888 0.826467C62.2886 1.16238 62.3613 1.54368 62.4157 1.97037C62.4702 2.39706 62.4884 2.82375 62.4611 3.24136C62.443 3.65897 62.3794 3.95856 62.2705 4.13106C61.7348 3.81331 60.9269 3.50464 59.8556 3.21413C58.7843 2.92361 57.2773 2.72388 55.3436 2.61494H55.3345Z" fill="#18ADC9"/>
<path id="Vector_17" d="M85.1756 11.4753C85.1756 13.2819 84.9214 14.9069 84.404 16.3595C83.8865 17.8121 83.1602 19.0377 82.216 20.0454C81.2719 21.0531 80.1189 21.8339 78.7662 22.3786C77.4135 22.9233 75.8974 23.2047 74.2269 23.2047C72.5565 23.2047 71.1221 22.9414 69.8148 22.4149C68.5074 21.8883 67.3908 21.1257 66.4648 20.1271C65.5388 19.1285 64.8397 17.9119 64.3586 16.4866C63.8774 15.0613 63.6323 13.4453 63.6323 11.6387C63.6323 9.83205 63.8774 8.21607 64.3767 6.79074C64.867 5.36541 65.5842 4.13981 66.5192 3.13209C67.4543 2.12438 68.5891 1.3527 69.9146 0.807989C71.2492 0.272356 72.7653 0 74.4539 0C76.1425 0 77.6314 0.263277 78.9478 0.789832C80.2732 1.31639 81.3899 2.07898 82.3159 3.07762C83.2419 4.07626 83.95 5.2837 84.4403 6.69088C84.9305 8.09805 85.1847 9.69587 85.1847 11.4753H85.1756ZM79.7285 11.5388C79.7285 10.0136 79.6105 8.65184 79.3744 7.44439C79.1384 6.24603 78.7934 5.22015 78.3304 4.38493C77.8674 3.5497 77.3136 2.90513 76.6509 2.4512C75.9972 1.99728 75.2528 1.77031 74.4085 1.77031C72.7562 1.77031 71.4489 2.61462 70.4956 4.3123C69.5424 6.00999 69.0612 8.42487 69.0612 11.566C69.0612 14.7072 69.5424 17.1312 70.4956 18.847C71.4489 20.5629 72.7471 21.4253 74.3813 21.4253C76.0154 21.4253 77.2864 20.5629 78.2669 18.847C79.2473 17.1312 79.7285 14.6891 79.7285 11.5297V11.5388Z" fill="#18ADC9"/>
<path id="Vector_18" d="M107.836 22.8872H100.936L96.8415 15.1886C96.0244 15.2521 95.3708 15.2431 94.8714 15.1523C94.3812 15.0706 94.0362 14.9979 93.8365 14.9616C93.8365 17.6035 93.8728 20.2453 93.9364 22.8872H89.0703C89.1157 20.4178 89.1429 17.9575 89.152 15.5063C89.161 13.0551 89.1701 10.5949 89.1701 8.12547C89.1701 6.88171 89.1701 5.64703 89.152 4.42143C89.1429 3.19583 89.1157 1.97023 89.0703 0.74463C90.2686 0.508588 91.4398 0.336096 92.5836 0.227154C93.7185 0.118212 94.8079 0.0455834 95.8338 0.000190785C97.4225 -0.0452018 98.866 0.0818976 100.155 0.37241C101.445 0.662923 102.543 1.09869 103.46 1.69787C104.377 2.28798 105.076 3.01426 105.566 3.87672C106.056 4.73918 106.311 5.71058 106.311 6.80908C106.311 7.62615 106.175 8.39783 105.911 9.13319C105.639 9.85947 105.276 10.5222 104.804 11.1123C104.332 11.7024 103.787 12.2381 103.179 12.7101C102.57 13.1822 101.917 13.5726 101.227 13.8722C101.617 14.5985 102.071 15.3792 102.598 16.2054C103.124 17.0315 103.678 17.8486 104.277 18.6566C104.867 19.4646 105.466 20.2272 106.084 20.9444C106.692 21.6616 107.282 22.2698 107.836 22.7692V22.8963V22.8872ZM95.3344 13.4183C96.1697 13.4183 96.9413 13.2821 97.6585 13.0188C98.3667 12.7465 98.9931 12.3561 99.5287 11.8386C100.064 11.3211 100.482 10.7038 100.782 9.96841C101.081 9.24213 101.236 8.40691 101.236 7.48997C101.236 6.90895 101.172 6.32792 101.045 5.7469C100.918 5.16587 100.709 4.62116 100.437 4.12184C100.155 3.61344 99.792 3.16859 99.3381 2.7873C98.8842 2.39692 98.3485 2.10641 97.7312 1.91576C97.3226 1.80681 96.9141 1.73419 96.4874 1.70695C96.0698 1.67064 95.6794 1.66156 95.3254 1.66156C94.9713 1.66156 94.6717 1.67972 94.4266 1.70695C94.1815 1.74327 94.0271 1.75234 93.9636 1.75234C93.9182 3.43187 93.891 5.22034 93.8637 7.13591C93.8456 9.05148 93.8274 11.1123 93.8274 13.3184C94.3449 13.382 94.8442 13.4183 95.3435 13.4183H95.3344Z" fill="#18ADC9"/>
<path id="Vector_19" d="M128.707 13.609C128.707 15.1524 128.726 16.7048 128.753 18.2482C128.789 19.7915 128.807 21.3439 128.835 22.8873H124.195V19.2468C123.832 19.7824 123.415 20.2908 122.952 20.7629C122.489 21.235 121.989 21.6526 121.436 22.0157C120.891 22.3789 120.283 22.6694 119.629 22.8873C118.975 23.1052 118.267 23.205 117.523 23.205C117.205 23.205 116.796 23.1687 116.297 23.0961C115.807 23.0235 115.28 22.8691 114.736 22.6331C114.191 22.397 113.637 22.0702 113.092 21.6708C112.548 21.2622 112.057 20.7266 111.631 20.0639C111.204 19.4011 110.85 18.5931 110.569 17.649C110.287 16.7048 110.16 15.5791 110.178 14.2627C110.178 12.9917 110.178 11.7025 110.196 10.3952C110.205 9.08793 110.214 7.81694 110.233 6.59134C110.242 5.36574 110.251 4.23092 110.251 3.19597V0.554111C110.505 0.490562 110.859 0.436091 111.313 0.390698C111.767 0.345305 112.257 0.327148 112.793 0.327148C113.219 0.327148 113.637 0.345305 114.037 0.372541C114.436 0.408855 114.808 0.463326 115.144 0.554111L114.917 6.80922C114.872 8.05298 114.835 9.32397 114.808 10.6131C114.772 11.9023 114.808 13.1733 114.89 14.417C114.999 15.0798 115.153 15.7425 115.353 16.3961C115.553 17.0498 115.843 17.6399 116.206 18.1483C116.569 18.6658 117.032 19.0743 117.595 19.3739C118.149 19.6735 118.821 19.8006 119.593 19.7643C120.364 19.7189 121.045 19.5282 121.626 19.1832C122.207 18.8383 122.688 18.466 123.061 18.0757C123.433 17.6762 123.723 17.304 123.914 16.9681C124.105 16.6231 124.204 16.4415 124.204 16.4234V16.1056C124.204 14.7983 124.204 13.5092 124.223 12.2563C124.232 11.0035 124.241 9.74158 124.259 8.47058C124.268 7.19959 124.277 5.91953 124.277 4.6213V0.554111C124.513 0.490562 124.858 0.436091 125.321 0.390698C125.784 0.345305 126.229 0.327148 126.656 0.327148C127.001 0.327148 127.391 0.345305 127.836 0.372541C128.272 0.408855 128.617 0.463326 128.853 0.554111C128.835 1.41658 128.807 2.24272 128.789 3.03255C128.771 3.83147 128.753 4.6213 128.744 5.40205C128.735 6.1828 128.726 6.97264 128.726 7.77155V13.6L128.707 13.609Z" fill="#18ADC9"/>
<path id="Vector_20" d="M146.874 17.4402C143.524 17.3766 140.346 17.3766 137.332 17.4402L135.689 22.851C135.453 22.8691 135.19 22.8873 134.899 22.8873H132.838C132.484 22.8873 132.121 22.8782 131.758 22.851C133.882 17.8669 135.689 13.5273 137.169 9.81421C138.648 6.11017 139.847 3.02348 140.746 0.554111C141.172 0.490562 141.617 0.436091 142.071 0.390698C142.525 0.345305 142.988 0.327148 143.46 0.327148C143.887 0.327148 144.313 0.345305 144.731 0.372541C145.149 0.408855 145.575 0.463326 146.002 0.554111C147.591 4.8755 149.116 8.87913 150.578 12.5922C152.039 16.2963 153.446 19.7189 154.799 22.851H148.971C148.907 22.6603 148.789 22.3426 148.635 21.9159C148.471 21.4892 148.263 20.9536 148.008 20.309C147.754 19.6644 147.527 19.1015 147.327 18.6204C147.137 18.1392 146.983 17.7488 146.874 17.4402ZM146.329 15.4066C145.294 12.7829 144.431 10.5496 143.732 8.70664C143.033 6.86369 142.48 5.35666 142.071 4.19461C140.782 7.41748 139.366 11.1578 137.822 15.4066C140.419 15.452 143.26 15.452 146.329 15.4066Z" fill="#18ADC9"/>
<path id="Vector_21" d="M2.78797 31.3213H0.21875V29.6055H7.20922V31.3213H4.63999V38.0485H2.78797V31.3213Z" fill="#18ADC9"/>
<path id="Vector_22" d="M6.86426 34.8524V34.8251C6.86426 32.9822 8.18064 31.457 10.0599 31.457C12.2205 31.457 13.2101 33.1365 13.2101 34.9613C13.2101 35.1066 13.201 35.2791 13.1829 35.4425H8.68904C8.87061 36.2777 9.45164 36.7044 10.2687 36.7044C10.886 36.7044 11.3308 36.5137 11.8392 36.0416L12.8924 36.9677C12.2932 37.7121 11.4216 38.1751 10.2505 38.1751C8.30774 38.1751 6.87334 36.8133 6.87334 34.8342L6.86426 34.8524ZM11.4216 34.3076C11.3127 33.4906 10.8315 32.9368 10.0599 32.9368C9.28822 32.9368 8.80706 33.4815 8.66181 34.3076H11.4216Z" fill="#18ADC9"/>
<path id="Vector_23" d="M18.3848 29.6048H20.2459V33.2907L23.6504 29.6048H25.9291L22.4793 33.1817L26.0744 38.0387H23.841L21.2264 34.4436L20.2459 35.4604V38.0387H18.3848V29.5957V29.6048Z" fill="#18ADC9"/>
<path id="Vector_24" d="M26.4829 36.1874V36.1602C26.4829 34.753 27.5541 34.0994 29.0884 34.0994C29.7421 34.0994 30.2051 34.2083 30.6681 34.3626V34.2537C30.6681 33.4911 30.196 33.0735 29.279 33.0735C28.58 33.0735 28.0807 33.2097 27.4906 33.4185L27.0367 32.0204C27.7448 31.7117 28.4438 31.5029 29.5423 31.5029C30.541 31.5029 31.2672 31.7662 31.7212 32.2292C32.2023 32.7103 32.4202 33.4185 32.4202 34.29V38.0394H30.6499V37.3404C30.2051 37.8306 29.5877 38.1575 28.698 38.1575C27.4815 38.1575 26.4829 37.4584 26.4829 36.1783V36.1874ZM30.6953 35.7698V35.443C30.3866 35.2977 29.969 35.1979 29.5242 35.1979C28.7434 35.1979 28.2623 35.5156 28.2623 36.0876V36.1148C28.2623 36.605 28.6708 36.8955 29.2609 36.8955C30.1143 36.8955 30.6953 36.4235 30.6953 35.7607V35.7698Z" fill="#18ADC9"/>
<path id="Vector_25" d="M33.9637 35.7692V31.584H35.7976V35.1882C35.7976 36.0597 36.2061 36.5046 36.9052 36.5046C37.6042 36.5046 38.0491 36.0597 38.0491 35.1882V31.584H39.8829V38.0479H38.0491V37.131C37.6224 37.6757 37.0867 38.166 36.1516 38.166C34.7626 38.166 33.9546 37.249 33.9546 35.7692H33.9637Z" fill="#18ADC9"/>
<path id="Vector_26" d="M41.5261 31.5848H43.36V32.5017C43.7776 31.957 44.3223 31.4668 45.2574 31.4668C46.6464 31.4668 47.4544 32.3837 47.4544 33.8635V38.0487H45.6205V34.4445C45.6205 33.573 45.212 33.1282 44.5129 33.1282C43.8139 33.1282 43.3691 33.573 43.3691 34.4445V38.0487H41.5352V31.5848H41.5261Z" fill="#18ADC9"/>
<path id="Vector_27" d="M49.0793 29.2422H51.013V30.8673H49.0793V29.2422ZM49.1246 31.5845H50.9585V38.0484H49.1246V31.5845Z" fill="#18ADC9"/>
<path id="Vector_28" d="M52.6836 29.2422H54.5175V32.5014C54.9442 31.9567 55.4798 31.4665 56.4149 31.4665C57.8039 31.4665 58.6119 32.3834 58.6119 33.8632V38.0484H56.7781V34.4442C56.7781 33.5727 56.3695 33.1279 55.6705 33.1279C54.9714 33.1279 54.5266 33.5727 54.5266 34.4442V38.0484H52.6927V29.2422H52.6836Z" fill="#18ADC9"/>
<path id="Vector_29" d="M59.8828 34.8524V34.8251C59.8828 32.9822 61.1991 31.457 63.0784 31.457C65.2391 31.457 66.2287 33.1365 66.2287 34.9613C66.2287 35.1066 66.2196 35.2791 66.2014 35.4425H61.7075C61.8891 36.2777 62.4701 36.7044 63.2872 36.7044C63.9046 36.7044 64.3494 36.5137 64.8578 36.0416L65.9109 36.9677C65.3117 37.7121 64.4402 38.1751 63.269 38.1751C61.3262 38.1751 59.8918 36.8133 59.8918 34.8342L59.8828 34.8524ZM64.4402 34.3076C64.3312 33.4906 63.8501 32.9368 63.0784 32.9368C62.3067 32.9368 61.8256 33.4815 61.6803 34.3076H64.4402Z" fill="#18ADC9"/>
<path id="Vector_30" d="M67.5906 31.5847H69.4244V32.883C69.7967 31.9933 70.4049 31.4122 71.4853 31.4576V33.3732H71.3854C70.1689 33.3732 69.4244 34.1086 69.4244 35.6519V38.0396H67.5906V31.5757V31.5847Z" fill="#18ADC9"/>
<path id="Vector_31" d="M71.9392 36.1874V36.1602C71.9392 34.753 73.0105 34.0994 74.5447 34.0994C75.1984 34.0994 75.6705 34.2083 76.1244 34.3626V34.2537C76.1244 33.4911 75.6523 33.0735 74.7354 33.0735C74.0363 33.0735 73.5461 33.2097 72.9469 33.4185L72.493 32.0204C73.2011 31.7117 73.9002 31.5029 74.9987 31.5029C75.9973 31.5029 76.7236 31.7662 77.1775 32.2292C77.6587 32.7103 77.8766 33.4185 77.8766 34.29V38.0394H76.1062V37.3404C75.6614 37.8306 75.0441 38.1575 74.1544 38.1575C72.9378 38.1575 71.9392 37.4584 71.9392 36.1783V36.1874ZM76.1516 35.7698V35.443C75.8339 35.2977 75.4254 35.1979 74.9805 35.1979C74.1998 35.1979 73.7186 35.5156 73.7186 36.0876V36.1148C73.7186 36.605 74.1271 36.8955 74.7172 36.8955C75.5706 36.8955 76.1516 36.4235 76.1516 35.7607V35.7698Z" fill="#18ADC9"/>
<path id="Vector_32" d="M82.7698 34.8524V34.8251C82.7698 32.9731 84.2677 31.457 86.2741 31.457C88.2805 31.457 89.7603 32.9368 89.7603 34.7979V34.8251C89.7603 36.6862 88.2623 38.1933 86.2559 38.1933C84.2496 38.1933 82.7698 36.7135 82.7698 34.8524ZM87.9536 34.8524V34.8251C87.9536 33.8719 87.2637 33.0367 86.2559 33.0367C85.2482 33.0367 84.5764 33.8446 84.5764 34.7979V34.8251C84.5764 35.7784 85.2664 36.6136 86.2741 36.6136C87.2818 36.6136 87.9536 35.8056 87.9536 34.8524Z" fill="#18ADC9"/>
<path id="Vector_33" d="M94.708 31.5848H96.5419V32.5017C96.9595 31.957 97.5042 31.4668 98.4393 31.4668C99.8283 31.4668 100.637 32.3837 100.637 33.8635V38.0487H98.8024V34.4445C98.8024 33.573 98.3939 33.1282 97.6949 33.1282C96.9958 33.1282 96.551 33.573 96.551 34.4445V38.0487H94.7171V31.5848H94.708Z" fill="#18ADC9"/>
<path id="Vector_34" d="M102.262 39.3288L102.888 37.9579C103.551 38.3302 104.214 38.548 105.067 38.548C106.32 38.548 106.91 37.9489 106.91 36.7868V36.4691C106.365 37.1227 105.775 37.5222 104.804 37.5222C103.297 37.5222 101.935 36.4237 101.935 34.5081V34.4809C101.935 32.5471 103.324 31.4668 104.804 31.4668C105.802 31.4668 106.392 31.8844 106.892 32.4291V31.5848H108.726V36.5871C108.726 37.7491 108.444 38.5844 107.908 39.1291C107.309 39.7282 106.374 40.0006 105.121 40.0006C104.068 40.0006 103.088 39.7555 102.262 39.3288ZM106.919 34.5081V34.4809C106.919 33.6002 106.229 32.9829 105.339 32.9829C104.45 32.9829 103.769 33.6002 103.769 34.4809V34.5081C103.769 35.3978 104.44 36.0061 105.339 36.0061C106.238 36.0061 106.919 35.3887 106.919 34.5081Z" fill="#18ADC9"/>
<path id="Vector_35" d="M109.978 36.1874V36.1602C109.978 34.753 111.05 34.0994 112.584 34.0994C113.238 34.0994 113.71 34.2083 114.164 34.3627V34.2537C114.164 33.4911 113.692 33.0735 112.775 33.0735C112.076 33.0735 111.585 33.2097 110.986 33.4185L110.532 32.0204C111.24 31.7117 111.939 31.5029 113.038 31.5029C114.036 31.5029 114.763 31.7662 115.217 32.2292C115.698 32.7104 115.916 33.4185 115.916 34.29V38.0395H114.145V37.3404C113.701 37.8307 113.083 38.1575 112.194 38.1575C110.977 38.1575 109.978 37.4584 109.978 36.1784V36.1874ZM110.968 29.542H115.307V30.8039H110.968V29.542ZM114.191 35.7608V35.4339C113.873 35.2887 113.465 35.1888 113.02 35.1888C112.239 35.1888 111.758 35.5066 111.758 36.0785V36.1057C111.758 36.596 112.166 36.8865 112.756 36.8865C113.61 36.8865 114.191 36.4144 114.191 35.7517V35.7608Z" fill="#18ADC9"/>
<path id="Vector_36" d="M121.318 29.6055H125.176C126.247 29.6055 127.082 29.9051 127.636 30.4589C128.108 30.931 128.362 31.5937 128.362 32.3926V32.4198C128.362 33.7816 127.627 34.635 126.556 35.0345L128.617 38.0485H126.447L124.64 35.3431H123.179V38.0485H121.318V29.6055ZM125.058 33.709C125.966 33.709 126.483 33.2278 126.483 32.5106V32.4834C126.483 31.6845 125.929 31.276 125.022 31.276H123.179V33.6999H125.058V33.709Z" fill="#18ADC9"/>
<path id="Vector_37" d="M129.407 34.8524V34.8251C129.407 32.9731 130.904 31.457 132.911 31.457C134.917 31.457 136.397 32.9368 136.397 34.7979V34.8251C136.397 36.6862 134.899 38.1933 132.893 38.1933C130.886 38.1933 129.407 36.7135 129.407 34.8524ZM134.59 34.8524V34.8251C134.59 33.8719 133.9 33.0367 132.893 33.0367C131.885 33.0367 131.213 33.8446 131.213 34.7979V34.8251C131.213 35.7784 131.903 36.6136 132.911 36.6136C133.919 36.6136 134.59 35.8056 134.59 34.8524Z" fill="#18ADC9"/>
<path id="Vector_38" d="M138.031 36.2139V33.1545H137.259V31.5839H138.031V29.9316H139.865V31.5839H141.381V33.1545H139.865V35.9143C139.865 36.3319 140.047 36.5408 140.455 36.5408C140.791 36.5408 141.091 36.459 141.363 36.3138V37.7845C140.973 38.0115 140.528 38.1567 139.919 38.1567C138.803 38.1567 138.04 37.7119 138.04 36.2139H138.031Z" fill="#18ADC9"/>
<path id="Vector_39" d="M142.244 34.8524V34.8251C142.244 32.9731 143.741 31.457 145.757 31.457C147.772 31.457 149.243 32.9368 149.243 34.7979V34.8251C149.243 36.6862 147.745 38.1933 145.73 38.1933C143.714 38.1933 142.244 36.7135 142.244 34.8524ZM147.427 34.8524V34.8251C147.427 33.8719 146.737 33.0367 145.73 33.0367C144.722 33.0367 144.05 33.8446 144.05 34.7979V34.8251C144.05 35.7784 144.74 36.6136 145.748 36.6136C146.756 36.6136 147.427 35.8056 147.427 34.8524Z" fill="#18ADC9"/>
<path id="Vector_40" d="M153.864 34.8524V34.8251C153.864 32.9731 155.362 31.457 157.368 31.457C159.375 31.457 160.854 32.9368 160.854 34.7979V34.8251C160.854 36.6862 159.357 38.1933 157.35 38.1933C155.344 38.1933 153.864 36.7135 153.864 34.8524ZM159.048 34.8524V34.8251C159.048 33.8719 158.358 33.0367 157.35 33.0367C156.342 33.0367 155.671 33.8446 155.671 34.7979V34.8251C155.671 35.7784 156.361 36.6136 157.368 36.6136C158.376 36.6136 159.048 35.8056 159.048 34.8524Z" fill="#18ADC9"/>
<path id="Vector_41" d="M166.002 29.6055H169.86C170.932 29.6055 171.767 29.9051 172.321 30.4589C172.793 30.931 173.047 31.5937 173.047 32.3926V32.4198C173.047 33.7816 172.312 34.635 171.24 35.0345L173.301 38.0485H171.131L169.325 35.3431H167.863V38.0485H166.002V29.6055ZM169.742 33.709C170.65 33.709 171.168 33.2278 171.168 32.5106V32.4834C171.168 31.6845 170.614 31.276 169.706 31.276H167.863V33.6999H169.742V33.709Z" fill="#18ADC9"/>
<path id="Vector_42" d="M174.091 34.8524V34.8251C174.091 32.9731 175.589 31.457 177.604 31.457C179.62 31.457 181.091 32.9368 181.091 34.7979V34.8251C181.091 36.6862 179.593 38.1933 177.577 38.1933C175.562 38.1933 174.091 36.7135 174.091 34.8524ZM179.275 34.8524V34.8251C179.275 33.8719 178.585 33.0367 177.577 33.0367C176.569 33.0367 175.898 33.8446 175.898 34.7979V34.8251C175.898 35.7784 176.588 36.6136 177.595 36.6136C178.603 36.6136 179.275 35.8056 179.275 34.8524Z" fill="#18ADC9"/>
<path id="Vector_43" d="M182.716 36.2139V33.1545H181.944V31.5839H182.716V29.9316H184.549V31.5839H186.066V33.1545H184.549V35.9143C184.549 36.3319 184.731 36.5408 185.14 36.5408C185.475 36.5408 185.775 36.459 186.047 36.3138V37.7845C185.657 38.0115 185.212 38.1567 184.604 38.1567C183.478 38.1567 182.725 37.7119 182.725 36.2139H182.716Z" fill="#18ADC9"/>
<path id="Vector_44" d="M186.928 34.8524V34.8251C186.928 32.9731 188.426 31.457 190.441 31.457C192.457 31.457 193.928 32.9368 193.928 34.7979V34.8251C193.928 36.6862 192.43 38.1933 190.414 38.1933C188.399 38.1933 186.928 36.7135 186.928 34.8524ZM192.112 34.8524V34.8251C192.112 33.8719 191.422 33.0367 190.414 33.0367C189.406 33.0367 188.735 33.8446 188.735 34.7979V34.8251C188.735 35.7784 189.425 36.6136 190.432 36.6136C191.44 36.6136 192.112 35.8056 192.112 34.8524Z" fill="#18ADC9"/>
<path id="Vector_45" d="M195.244 31.5847H197.078V32.883C197.45 31.9933 198.058 31.4122 199.139 31.4576V33.3732H199.039C197.822 33.3732 197.078 34.1086 197.078 35.6519V38.0396H195.244V31.5757V31.5847Z" fill="#18ADC9"/>
<path id="Vector_46" d="M200.237 35.7692V31.584H202.071V35.1882C202.071 36.0597 202.48 36.5046 203.179 36.5046C203.878 36.5046 204.322 36.0597 204.322 35.1882V31.584H206.156V38.0479H204.322V37.131C203.896 37.6757 203.36 38.166 202.425 38.166C201.036 38.166 200.228 37.249 200.228 35.7692H200.237Z" fill="#18ADC9"/>
<path id="Vector_47" d="M207.418 36.1874V36.1602C207.418 34.753 208.49 34.0994 210.024 34.0994C210.677 34.0994 211.15 34.2083 211.603 34.3626V34.2537C211.603 33.4911 211.131 33.0735 210.214 33.0735C209.515 33.0735 209.025 33.2097 208.426 33.4185L207.972 32.0204C208.68 31.7117 209.379 31.5029 210.478 31.5029C211.476 31.5029 212.203 31.7662 212.657 32.2292C213.138 32.7103 213.356 33.4185 213.356 34.29V38.0394H211.585V37.3404C211.14 37.8306 210.523 38.1575 209.633 38.1575C208.417 38.1575 207.418 37.4584 207.418 36.1783V36.1874ZM211.631 35.7698V35.443C211.313 35.2977 210.904 35.1979 210.46 35.1979C209.679 35.1979 209.198 35.5156 209.198 36.0876V36.1148C209.198 36.605 209.606 36.8955 210.196 36.8955C211.05 36.8955 211.631 36.4235 211.631 35.7607V35.7698Z" fill="#18ADC9"/>
</g>
</g>
</g>
</g>
<defs>
<clipPath id="clip0_2529_639">
<rect width="215" height="40" fill="white" transform="translate(0.21875)"/>
</clipPath>
</defs>
</svg>
