<?xml version="1.0" encoding="UTF-8" standalone="no"?>
<svg
   xmlns:dc="http://purl.org/dc/elements/1.1/"
   xmlns:cc="http://creativecommons.org/ns#"
   xmlns:rdf="http://www.w3.org/1999/02/22-rdf-syntax-ns#"
   xmlns:svg="http://www.w3.org/2000/svg"
   xmlns="http://www.w3.org/2000/svg"
   xmlns:sodipodi="http://sodipodi.sourceforge.net/DTD/sodipodi-0.dtd"
   xmlns:inkscape="http://www.inkscape.org/namespaces/inkscape"
   id="WBOPDC_Logo_and_Te_Reo"
   data-name="WBOPDC Logo and Te Reo"
   width="480.27899"
   height="82.769997"
   viewBox="0 0 480.279 82.77"
   version="1.1"
   sodipodi:docname="header-logo.svg"
   inkscape:version="0.92.3 (2405546, 2018-03-11)">
  <metadata
     id="metadata68">
    <rdf:RDF>
      <cc:Work
         rdf:about="">
        <dc:format>image/svg+xml</dc:format>
        <dc:type
           rdf:resource="http://purl.org/dc/dcmitype/StillImage" />
        <dc:title></dc:title>
      </cc:Work>
    </rdf:RDF>
  </metadata>
  <sodipodi:namedview
     pagecolor="#ffffff"
     bordercolor="#666666"
     borderopacity="1"
     objecttolerance="10"
     gridtolerance="10"
     guidetolerance="10"
     inkscape:pageopacity="0"
     inkscape:pageshadow="2"
     inkscape:window-width="1920"
     inkscape:window-height="1027"
     id="namedview66"
     showgrid="false"
     fit-margin-top="0"
     fit-margin-left="0"
     fit-margin-right="0"
     fit-margin-bottom="0"
     inkscape:zoom="0.59132297"
     inkscape:cx="240.1395"
     inkscape:cy="41.384998"
     inkscape:window-x="-8"
     inkscape:window-y="-8"
     inkscape:window-maximized="1"
     inkscape:current-layer="WBOPDC_Logo_and_Te_Reo" />
  <defs
     id="defs4">
    <clipPath
       id="clip-path">
      <rect
         id="Rectangle_614"
         data-name="Rectangle 614"
         width="480.27899"
         height="82.769997"
         x="0"
         y="0"
         style="fill:none" />
    </clipPath>
  </defs>
  <g
     id="Group_2018"
     data-name="Group 2018"
     clip-path="url(#clip-path)">
    <path
       id="Path_6831"
       data-name="Path 6831"
       d="M 21.534,41.37 A 21.521,21.521 0 0 1 0,62.975 V 82.77 A 41.317,41.317 0 0 0 41.329,41.37 Z M 19.754,0 V 19.795 A 21.574,21.574 0 0 1 41.329,41.37 H 61.121 A 21.521,21.521 0 0 1 39.587,62.975 V 82.77 A 41.318,41.318 0 0 0 80.916,41.37 H 61.121 A 41.369,41.369 0 0 0 19.754,0 M 59.341,0 V 19.795 A 21.574,21.574 0 0 1 80.916,41.37 h 19.795 A 41.37,41.37 0 0 0 59.341,0"
       inkscape:connector-curvature="0"
       style="fill:#143631" />
    <path
       id="Path_6832"
       data-name="Path 6832"
       d="m 67.683,56.441 a 1.279,1.279 0 1 0 0,2.555 1.278,1.278 0 1 0 0,-2.555 m 54.55,14.544 a 1.844,1.844 0 0 1 -2,-1.984 v -6 h 3.481 v -1.538 h -3.481 v -3.018 h -1.7 v 3.017 h -2.383 v 1.543 h 2.379 v 6.172 a 3.158,3.158 0 0 0 3.328,3.372 4.883,4.883 0 0 0 2.866,-0.969 l -0.551,-1.211 a 3.431,3.431 0 0 1 -1.941,0.617 m -20.9,-14.544 a 1.278,1.278 0 1 0 0,2.555 1.278,1.278 0 1 0 0,-2.555 m -25.255,9.74 c -1.609,-0.331 -2.887,-0.617 -2.887,-1.829 0,-1.015 0.9,-1.632 2.183,-1.632 a 4.07,4.07 0 0 1 2.951,1.191 l 0.971,-1.145 A 5.321,5.321 0 0 0 75.418,61.2 c -2.05,0 -3.9,1.079 -3.9,3.262 0,2.4 2.27,2.864 4.144,3.239 1.477,0.309 2.6,0.594 2.6,1.719 0,1.079 -1.079,1.609 -2.357,1.609 A 4.657,4.657 0 0 1 72.156,69.2 l -1.147,1.168 a 6.153,6.153 0 0 0 4.761,2.181 c 2.27,0 4.188,-1.191 4.188,-3.349 0,-2.226 -2.05,-2.624 -3.879,-3.02 m 64.047,4.869 c -3,0 -5.817,-2.137 -5.817,-6.325 0,-4.119 2.711,-6.412 5.84,-6.412 a 5.227,5.227 0 0 1 4.583,2.555 l 1.477,-1.079 a 6.831,6.831 0 0 0 -5.95,-3.152 c -4.165,0 -7.758,3.02 -7.758,8.153 0,4.695 3.02,7.977 7.449,7.977 a 7,7 0 0 0 6.72,-4.45 l -1.563,-0.727 a 5.26,5.26 0 0 1 -4.981,3.458 M 87.32,70.985 a 1.843,1.843 0 0 1 -2,-1.984 v -6 h 3.48 v -1.538 h -3.485 v -3.018 h -1.7 v 3.017 h -2.378 v 1.543 h 2.379 v 6.172 a 3.157,3.157 0 0 0 3.328,3.372 4.883,4.883 0 0 0 2.866,-0.969 l -0.551,-1.211 a 3.431,3.431 0 0 1 -1.941,0.617 m 6.29,-7.671 v -1.852 h -1.7 v 10.953 h 1.719 v -6.06 c 0,-2.359 1.3,-3.461 2.887,-3.461 a 3.659,3.659 0 0 1 1.5,0.331 l 0.331,-1.586 a 4.253,4.253 0 0 0 -1.632,-0.309 3.158,3.158 0 0 0 -3.106,1.982 m 16.746,7.671 c -2.512,0 -3.836,-2.027 -3.836,-4.167 0,-2.14 1.234,-4.053 3.79,-4.053 a 3.4,3.4 0 0 1 3.02,1.563 l 1.234,-1.058 A 5.051,5.051 0 0 0 110.31,61.2 c -3.525,0 -5.486,2.754 -5.486,5.751 0,2.91 1.829,5.6 5.4,5.6 a 5.344,5.344 0 0 0 4.629,-2.578 l -1.191,-0.882 a 3.706,3.706 0 0 1 -3.305,1.9 m 89.161,1.431 h 1.7 V 61.463 h -1.7 z m 0.837,-15.975 a 1.278,1.278 0 1 0 0,2.555 1.278,1.278 0 1 0 0,-2.555 m -46.126,14.538 a 4.121,4.121 0 1 1 3.813,-4.1 3.781,3.781 0 0 1 -3.813,4.1 m 0,-9.785 a 5.677,5.677 0 1 0 5.509,5.685 5.408,5.408 0 0 0 -5.509,-5.685 m 55.037,9.411 a 2.827,2.827 0 0 1 -1.39,0.375 c -0.923,0 -1.653,-0.663 -1.653,-1.918 V 56.992 H 204.5 v 12.274 a 3.009,3.009 0 0 0 3.042,3.282 4.336,4.336 0 0 0 2.2,-0.64 z m -16.478,0.375 c -2.512,0 -3.836,-2.027 -3.836,-4.167 0,-2.14 1.234,-4.053 3.79,-4.053 a 3.4,3.4 0 0 1 3.02,1.563 L 197,63.271 A 5.054,5.054 0 0 0 192.746,61.2 c -3.525,0 -5.486,2.754 -5.486,5.751 0,2.91 1.829,5.6 5.4,5.6 a 5.34,5.34 0 0 0 4.626,-2.578 l -1.189,-0.882 a 3.709,3.709 0 0 1 -3.305,1.9 m -22.707,-4.034 c 0,2.535 -1.566,4.055 -3.527,4.055 -1.653,0 -2.645,-1.058 -2.645,-3 v -6.549 h -1.723 v 6.9 c 0,2.645 1.586,4.188 4.032,4.188 a 4.107,4.107 0 0 0 3.879,-2.336 v 2.2 h 1.675 V 61.463 h -1.7 z M 180.757,61.2 a 4.209,4.209 0 0 0 -4.034,2.359 v -2.1 h -1.7 v 10.957 h 1.719 V 66.8 c 0,-2.558 1.653,-4.055 3.548,-4.055 1.675,0 2.665,1.1 2.665,2.93 v 6.743 h 1.7 v -7.23 a 3.637,3.637 0 0 0 -3.9,-3.989 M 100.5,72.416 h 1.7 V 61.463 h -1.7 z M 55.888,70.743 H 52.823 V 58.665 h 3.065 a 6.04,6.04 0 1 1 0,12.078 M 55.909,56.992 H 51.04 v 15.424 h 4.736 a 7.633,7.633 0 0 0 8.066,-7.822 c 0,-3.813 -2.645,-7.6 -7.934,-7.6 m 10.938,15.422 h 1.7 V 61.463 h -1.7 z m 73.8,-35.471 H 138.1 v -4.418 h 2.677 a 2,2 0 0 1 2.2,2.1 2.185,2.185 0 0 1 -2.325,2.322 m 0.533,-7.852 h -6.816 v 17.668 h 3.731 v -6.411 h 2.752 a 5.657,5.657 0 0 0 5.856,-5.808 5.2,5.2 0 0 0 -5.527,-5.452 m -31.993,14.567 c -1.893,0 -3.1,-1.415 -3.1,-3.458 0,-2.043 1.211,-3.458 3.1,-3.458 1.889,0 3.106,1.413 3.106,3.458 0,2.045 -1.211,3.458 -3.106,3.458 m 0,-10.174 a 6.716,6.716 0 1 0 6.741,6.716 6.55,6.55 0 0 0 -6.741,-6.716 m 9.824,-0.3 v 0.606 h -2.373 v 3.257 h 2.373 v 9.719 h 3.66 v -9.723 h 3.128 v -3.257 h -3.131 v -0.631 a 1.585,1.585 0 0 1 1.767,-1.641 3.258,3.258 0 0 1 1.769,0.555 l 1.337,-2.752 a 6.675,6.675 0 0 0 -3.634,-1.111 4.632,4.632 0 0 0 -4.9,4.974 m 33.745,13.735 a 6.456,6.456 0 0 0 2.978,-0.809 l -0.859,-2.777 a 2.573,2.573 0 0 1 -1.237,0.329 1.469,1.469 0 0 1 -1.49,-1.616 V 29.094 h -3.634 v 13.331 a 4.113,4.113 0 0 0 4.242,4.494 m 9.8,-10.453 a 2.18,2.18 0 0 1 2.425,2.373 h -5.225 a 2.647,2.647 0 0 1 2.8,-2.373 m 0.153,10.453 a 7.285,7.285 0 0 0 5.477,-2.35 l -1.84,-2.269 a 4.3,4.3 0 0 1 -3.358,1.49 2.919,2.919 0 0 1 -3.18,-2.347 h 8.784 v -1.368 c 0,-4.416 -2.272,-6.588 -5.806,-6.588 -4.089,0 -6.69,2.928 -6.69,6.866 0,4.014 2.651,6.565 6.615,6.565 m 14.316,-10.2 a 2.019,2.019 0 0 1 2.171,2.3 v 7.749 h 3.66 v -8.509 c 0,-3.232 -2,-4.77 -4.62,-4.77 a 4.266,4.266 0 0 0 -3.888,2.018 v -1.717 h -3.534 v 12.976 h 3.634 v -7.118 c 0,-1.97 1.161,-2.928 2.576,-2.928 m 14.316,10.2 a 7.028,7.028 0 0 0 3.76,-1.136 l -0.882,-2.7 a 3.829,3.829 0 0 1 -1.893,0.581 1.827,1.827 0 0 1 -1.945,-2.021 v -4.597 h 3.712 v -3.257 h -3.712 v -3.18 h -3.66 v 3.18 h -2.549 v 3.257 h 2.551 V 42.3 a 4.321,4.321 0 0 0 4.62,4.622 M 82.915,33.789 v 7.5 c 0,3.433 2.1,5.125 4.846,5.125 a 4.041,4.041 0 0 0 3.863,-2.046 v 2.071 a 2.873,2.873 0 0 1 -3.1,3 3.288,3.288 0 0 1 -3.333,-2.373 l -3.18,1.49 a 6.4,6.4 0 0 0 6.412,4.14 c 3.584,0 6.866,-2.3 6.866,-6.716 V 33.789 h -3.665 v 6.439 a 2.658,2.658 0 0 1 -2.7,2.953 2.231,2.231 0 0 1 -2.373,-2.475 V 33.789 Z M 208.831,45.983 V 33.789 h -3.66 v 6.439 a 2.658,2.658 0 0 1 -2.7,2.953 2.232,2.232 0 0 1 -2.373,-2.475 v -6.917 h -3.637 v 7.5 c 0,3.433 2.1,5.125 4.848,5.125 a 4.046,4.046 0 0 0 3.863,-2.046 v 2.071 a 2.874,2.874 0 0 1 -3.106,3 3.29,3.29 0 0 1 -3.333,-2.373 l -3.18,1.49 a 6.4,6.4 0 0 0 6.412,4.14 c 3.586,0 6.866,-2.3 6.866,-6.716 M 57.472,43.332 h -2.8 v -4.29 h 2.855 c 1.513,0 2.448,0.832 2.448,2.119 0,1.362 -0.985,2.171 -2.5,2.171 m -2.8,-10.8 h 2.551 c 1.312,0 2.1,0.656 2.1,1.742 a 1.929,1.929 0 0 1 -2.146,1.943 h -2.5 z m 8.407,0.885 c 0,-2.171 -1.742,-4.318 -5,-4.318 H 50.983 V 46.765 H 57.7 c 3.76,0 5.982,-2.549 5.982,-5.276 a 4.229,4.229 0 0 0 -3.509,-4.242 3.888,3.888 0 0 0 2.9,-3.836 m 9.086,3.28 a 3.228,3.228 0 0 1 3.259,3.509 3.2,3.2 0 0 1 -3.232,3.484 3.162,3.162 0 0 1 -3.18,-3.484 c 0,-2 1.186,-3.511 3.154,-3.511 m -0.706,10.227 a 4.893,4.893 0 0 0 4.569,-2.425 3.188,3.188 0 0 0 3.282,2.425 4.552,4.552 0 0 0 2.651,-0.859 L 81.2,43.407 a 2.04,2.04 0 0 1 -0.907,0.254 1.188,1.188 0 0 1 -1.239,-1.314 v -8.558 h -3.536 v 1.742 c -0.631,-1.262 -2.071,-2.043 -4.064,-2.043 -3.838,0 -6.085,2.978 -6.085,6.716 0,3.788 2.347,6.716 6.085,6.716 M 93.949,13.6 c -1.669,-0.329 -2.3,-0.48 -2.3,-1.161 0,-0.658 0.581,-0.985 1.49,-0.985 a 4.476,4.476 0 0 1 3,1.161 l 1.87,-2.347 A 7.107,7.107 0 0 0 93.06,8.398 c -2.626,0 -5,1.39 -5,4.217 0,3.132 2.9,3.662 4.949,4.039 1.488,0.279 2.046,0.53 2.046,1.161 0,0.581 -0.583,0.885 -1.541,0.885 A 6.153,6.153 0 0 1 89.2,16.879 l -1.918,2.549 a 8.435,8.435 0 0 0 5.932,2.4 c 3.132,0 5.479,-1.717 5.479,-4.416 0,-2.93 -2.727,-3.41 -4.745,-3.813 m 23.418,-2.222 a 2.18,2.18 0 0 1 2.425,2.373 h -5.225 a 2.647,2.647 0 0 1 2.8,-2.373 m 0.153,10.451 A 7.292,7.292 0 0 0 123,19.478 l -1.845,-2.272 A 4.3,4.3 0 0 1 117.8,18.7 2.92,2.92 0 0 1 114.62,16.35 h 8.78 v -1.366 c 0,-4.416 -2.272,-6.59 -5.806,-6.59 -4.089,0 -6.69,2.93 -6.69,6.869 0,4.014 2.652,6.562 6.615,6.562 M 74.3,4 H 70.311 L 66.853,15.79 63.42,4 H 59.811 L 56.378,15.79 52.919,4 h -3.991 l 5.632,17.674 h 3.584 l 3.484,-11.008 3.458,11.008 h 3.584 z m 27.489,13.2 a 4.321,4.321 0 0 0 4.622,4.62 7.008,7.008 0 0 0 3.76,-1.136 l -0.882,-2.7 a 3.814,3.814 0 0 1 -1.895,0.581 1.823,1.823 0 0 1 -1.943,-2.018 v -4.592 h 3.71 V 8.7 h -3.71 V 5.516 h -3.662 V 8.7 H 99.24 v 3.257 h 2.549 z M 80.108,11.375 a 2.18,2.18 0 0 1 2.425,2.373 h -5.227 a 2.65,2.65 0 0 1 2.8,-2.373 m 0.153,10.451 a 7.283,7.283 0 0 0 5.477,-2.347 L 83.9,17.206 a 4.3,4.3 0 0 1 -3.358,1.49 2.923,2.923 0 0 1 -3.182,-2.35 h 8.786 v -1.362 c 0,-4.416 -2.272,-6.59 -5.806,-6.59 -4.092,0 -6.69,2.93 -6.69,6.869 0,4.014 2.651,6.562 6.615,6.562 M 143.1,8.394 a 4.267,4.267 0 0 0 -3.888,2.021 V 8.7 h -3.534 v 12.974 h 3.634 v -7.12 c 0,-1.968 1.161,-2.928 2.576,-2.928 a 2.02,2.02 0 0 1 2.171,2.3 v 7.751 h 3.66 v -8.51 c 0,-3.232 -1.993,-4.773 -4.62,-4.773 m -8.846,0.354 a 6.477,6.477 0 0 0 -1.666,-0.226 3.4,3.4 0 0 0 -3.433,2.119 V 8.7 h -3.534 v 12.974 h 3.634 v -6.59 a 2.855,2.855 0 0 1 2.981,-3.18 4.777,4.777 0 0 1 1.513,0.251 z"
       transform="translate(62.91,5.147)"
       inkscape:connector-curvature="0"
       style="fill:#143631" />
    <rect
       id="Rectangle_611"
       data-name="Rectangle 611"
       width="1.214"
       height="68.778999"
       transform="translate(293.939,8.967)"
       x="0"
       y="0"
       style="fill:#143631" />
    <path
       id="Path_6833"
       data-name="Path 6833"
       d="m 144.313,14.818 h -1.57 V 5.407 h -3.625 V 3.928 h 8.821 v 1.479 h -3.625 z"
       transform="translate(178.873,5.051)"
       inkscape:connector-curvature="0"
       style="fill:#143631" />
    <path
       id="Path_6834"
       data-name="Path 6834"
       d="m 144.585,9.753 a 2.317,2.317 0 0 0 2.505,2.192 2.728,2.728 0 0 0 2.286,-1.15 l 0.839,0.9 a 3.954,3.954 0 0 1 -3.266,1.589 3.712,3.712 0 0 1 -3.872,-3.952 3.858,3.858 0 0 1 3.9,-4.137 c 2.117,0 3.406,1.367 3.406,3.794 v 0.763 z m 4.309,-1.168 c -0.016,-1.337 -0.654,-2.1 -1.975,-2.1 a 2.18,2.18 0 0 0 -2.318,2.1 z"
       transform="translate(183.963,6.68)"
       inkscape:connector-curvature="0"
       style="fill:#143631" />
    <path
       id="Path_6835"
       data-name="Path 6835"
       d="m 150.137,3.929 v 4.9 l 4.745,-4.9 h 2.16 l -5.242,5.257 5.6,5.632 h -2.21 l -5.056,-5.15 v 5.15 h -1.57 V 3.929 Z"
       transform="translate(191.023,5.051)"
       inkscape:connector-curvature="0"
       style="fill:#143631" />
    <path
       id="Path_6836"
       data-name="Path 6836"
       d="m 161.527,11.915 a 1.394,1.394 0 0 0 0.681,-0.187 l 0.375,1.12 a 2.6,2.6 0 0 1 -1.415,0.437 1.78,1.78 0 0 1 -1.867,-1.6 3.111,3.111 0 0 1 -2.939,1.6 3.724,3.724 0 0 1 -3.733,-4.014 c 0,-2.149 1.305,-4.076 3.733,-4.076 a 2.956,2.956 0 0 1 2.8,1.493 V 5.382 h 1.479 v 5.582 a 0.85,0.85 0 0 0 0.887,0.951 m -4.9,0.016 a 2.481,2.481 0 0 0 2.505,-2.693 2.494,2.494 0 0 0 -2.537,-2.69 2.451,2.451 0 0 0 -2.457,2.706 2.463,2.463 0 0 0 2.489,2.677"
       transform="translate(196.244,6.68)"
       inkscape:connector-curvature="0"
       style="fill:#143631" />
    <path
       id="Path_6837"
       data-name="Path 6837"
       d="M 164.379,13.084 H 162.9 v -1.431 a 2.78,2.78 0 0 1 -2.615,1.525 2.673,2.673 0 0 1 -2.83,-2.955 V 5.276 h 1.509 v 4.617 c 0,1.278 0.654,1.931 1.7,1.931 a 2.272,2.272 0 0 0 2.208,-2.551 v -4 h 1.509 z"
       transform="translate(202.455,6.784)"
       inkscape:connector-curvature="0"
       style="fill:#143631" />
    <path
       id="Path_6838"
       data-name="Path 6838"
       d="m 162.88,5.381 v 1.354 a 2.882,2.882 0 0 1 2.72,-1.541 2.6,2.6 0 0 1 2.786,2.862 v 5.134 h -1.509 V 8.431 A 1.658,1.658 0 0 0 165.149,6.548 2.3,2.3 0 0 0 162.912,9.1 v 4.09 H 161.4 V 5.381 Z"
       transform="translate(207.527,6.678)"
       inkscape:connector-curvature="0"
       style="fill:#143631" />
    <path
       id="Path_6839"
       data-name="Path 6839"
       d="m 167.455,4.753 a 1.02,1.02 0 0 1 -1.072,1.047 1.043,1.043 0 1 1 0,-2.085 1.02,1.02 0 0 1 1.072,1.042 m -1.835,2.531 h 1.525 V 15.1 h -1.525 z"
       transform="translate(212.529,4.771)"
       inkscape:connector-curvature="0"
       style="fill:#143631" />
    <path
       id="Path_6840"
       data-name="Path 6840"
       d="m 168.581,3.929 v 4.4 a 2.851,2.851 0 0 1 2.688,-1.509 2.607,2.607 0 0 1 2.789,2.862 v 5.134 h -1.513 v -4.757 a 1.659,1.659 0 0 0 -1.728,-1.886 2.289,2.289 0 0 0 -2.236,2.537 v 4.108 h -1.509 V 3.929 Z"
       transform="translate(214.816,5.052)"
       inkscape:connector-curvature="0"
       style="fill:#143631" />
    <path
       id="Path_6841"
       data-name="Path 6841"
       d="m 172.348,9.753 a 2.317,2.317 0 0 0 2.505,2.192 2.728,2.728 0 0 0 2.286,-1.15 l 0.839,0.9 a 3.954,3.954 0 0 1 -3.266,1.589 3.712,3.712 0 0 1 -3.872,-3.952 3.858,3.858 0 0 1 3.9,-4.137 c 2.117,0 3.406,1.367 3.406,3.794 v 0.763 z m 4.309,-1.168 c -0.016,-1.337 -0.654,-2.1 -1.975,-2.1 a 2.18,2.18 0 0 0 -2.318,2.1 z"
       transform="translate(219.66,6.68)"
       inkscape:connector-curvature="0"
       style="fill:#143631" />
    <path
       id="Path_6842"
       data-name="Path 6842"
       d="M 176.227,5.329 V 6.6 a 2.18,2.18 0 0 1 2.173,-1.365 3.552,3.552 0 0 1 1.12,0.187 l -0.263,1.415 a 2.735,2.735 0 0 0 -1.01,-0.2 c -1.106,0 -1.991,0.734 -1.991,2.286 V 13.14 H 174.75 V 5.329 Z"
       transform="translate(224.688,6.731)"
       inkscape:connector-curvature="0"
       style="fill:#143631" />
    <path
       id="Path_6843"
       data-name="Path 6843"
       d="m 186.067,11.915 a 1.393,1.393 0 0 0 0.681,-0.187 l 0.375,1.12 a 2.6,2.6 0 0 1 -1.415,0.437 1.78,1.78 0 0 1 -1.867,-1.6 3.109,3.109 0 0 1 -2.94,1.6 3.724,3.724 0 0 1 -3.733,-4.014 c 0,-2.149 1.305,-4.076 3.733,-4.076 a 2.956,2.956 0 0 1 2.8,1.493 V 5.382 h 1.479 v 5.582 a 0.85,0.85 0 0 0 0.887,0.951 m -4.9,0.016 a 2.481,2.481 0 0 0 2.505,-2.693 2.494,2.494 0 0 0 -2.537,-2.69 2.451,2.451 0 0 0 -2.457,2.706 2.463,2.463 0 0 0 2.489,2.677"
       transform="translate(227.797,6.68)"
       inkscape:connector-curvature="0"
       style="fill:#143631" />
    <path
       id="Path_6844"
       data-name="Path 6844"
       d="m 148.153,20.354 a 1.394,1.394 0 0 0 0.681,-0.187 l 0.375,1.12 a 2.6,2.6 0 0 1 -1.415,0.437 1.78,1.78 0 0 1 -1.867,-1.6 3.109,3.109 0 0 1 -2.94,1.6 3.724,3.724 0 0 1 -3.733,-4.014 c 0,-2.149 1.305,-4.076 3.733,-4.076 a 2.956,2.956 0 0 1 2.8,1.493 v -1.306 h 1.479 V 19.4 a 0.85,0.85 0 0 0 0.887,0.951 m -4.9,0.016 a 2.481,2.481 0 0 0 2.505,-2.693 2.494,2.494 0 0 0 -2.537,-2.69 2.451,2.451 0 0 0 -2.457,2.706 2.463,2.463 0 0 0 2.489,2.677"
       transform="translate(179.049,17.53)"
       inkscape:connector-curvature="0"
       style="fill:#143631" />
    <path
       id="Path_6845"
       data-name="Path 6845"
       d="m 147.415,13.769 v 1.275 a 2.18,2.18 0 0 1 2.176,-1.369 3.553,3.553 0 0 1 1.12,0.187 l -0.263,1.415 a 2.735,2.735 0 0 0 -1.01,-0.2 c -1.106,0 -1.991,0.734 -1.991,2.286 v 4.217 h -1.509 v -7.811 z"
       transform="translate(187.643,17.583)"
       inkscape:connector-curvature="0"
       style="fill:#143631" />
    <path
       id="Path_6846"
       data-name="Path 6846"
       d="m 156.289,17.678 a 3.967,3.967 0 1 1 -7.932,0 3.967,3.967 0 1 1 7.932,0 m -3.966,2.677 a 2.455,2.455 0 0 0 2.457,-2.677 2.466,2.466 0 1 0 -4.914,0 2.455,2.455 0 0 0 2.457,2.677"
       transform="translate(190.753,17.53)"
       inkscape:connector-curvature="0"
       style="fill:#143631" />
    <path
       id="Path_6847"
       data-name="Path 6847"
       d="m 154.048,12.368 v 4.4 a 2.855,2.855 0 0 1 2.69,-1.509 2.605,2.605 0 0 1 2.786,2.862 v 5.134 h -1.511 V 18.5 a 1.659,1.659 0 0 0 -1.728,-1.886 2.289,2.289 0 0 0 -2.238,2.537 v 4.108 h -1.509 V 12.368 Z"
       transform="translate(196.13,15.902)"
       inkscape:connector-curvature="0"
       style="fill:#143631" />
    <path
       id="Path_6848"
       data-name="Path 6848"
       d="m 157.817,18.192 a 2.317,2.317 0 0 0 2.505,2.192 2.728,2.728 0 0 0 2.286,-1.15 l 0.839,0.9 a 3.954,3.954 0 0 1 -3.266,1.589 3.712,3.712 0 0 1 -3.872,-3.952 3.859,3.859 0 0 1 3.9,-4.137 c 2.117,0 3.406,1.367 3.406,3.794 v 0.763 z m 4.309,-1.168 c -0.016,-1.337 -0.654,-2.1 -1.975,-2.1 a 2.18,2.18 0 0 0 -2.318,2.1 z"
       transform="translate(200.976,17.53)"
       inkscape:connector-curvature="0"
       style="fill:#143631" />
    <path
       id="Path_6849"
       data-name="Path 6849"
       d="m 163.344,13.821 v 1.321 a 2.5,2.5 0 0 1 2.4,-1.509 2.344,2.344 0 0 1 2.425,1.634 2.724,2.724 0 0 1 2.615,-1.634 c 1.664,0 2.645,1.058 2.645,2.907 v 5.09 H 171.9 v -4.791 c 0,-1.166 -0.512,-1.851 -1.554,-1.851 -1.058,0 -1.945,0.763 -1.945,2.425 v 4.217 h -1.509 v -4.791 c 0,-1.166 -0.53,-1.851 -1.573,-1.851 -1.058,0 -1.943,0.763 -1.943,2.425 v 4.217 h -1.509 v -7.809 z"
       transform="translate(208.124,17.53)"
       inkscape:connector-curvature="0"
       style="fill:#143631" />
    <path
       id="Path_6850"
       data-name="Path 6850"
       d="m 176.536,20.354 a 1.394,1.394 0 0 0 0.681,-0.187 l 0.375,1.12 a 2.6,2.6 0 0 1 -1.415,0.437 1.78,1.78 0 0 1 -1.867,-1.6 3.109,3.109 0 0 1 -2.939,1.6 3.724,3.724 0 0 1 -3.733,-4.014 c 0,-2.149 1.305,-4.076 3.733,-4.076 a 2.956,2.956 0 0 1 2.8,1.493 v -1.306 h 1.479 V 19.4 a 0.85,0.85 0 0 0 0.887,0.951 m -4.9,0.016 a 2.481,2.481 0 0 0 2.505,-2.693 2.494,2.494 0 0 0 -2.537,-2.69 2.451,2.451 0 0 0 -2.457,2.706 2.463,2.463 0 0 0 2.489,2.677"
       transform="translate(215.543,17.53)"
       inkscape:connector-curvature="0"
       style="fill:#143631" />
    <path
       id="Path_6851"
       data-name="Path 6851"
       d="m 174.615,13.192 a 1.022,1.022 0 0 1 -1.072,1.045 1.044,1.044 0 1 1 0,-2.087 1.021,1.021 0 0 1 1.072,1.042 m -1.835,2.538 h 1.52 v 7.808 h -1.52 z"
       transform="translate(221.735,15.622)"
       inkscape:connector-curvature="0"
       style="fill:#143631" />
    <path
       id="Path_6852"
       data-name="Path 6852"
       d="m 177.96,13.192 a 1.023,1.023 0 0 1 -1.074,1.045 1.044,1.044 0 1 1 0,-2.087 1.022,1.022 0 0 1 1.074,1.042 m -1.836,2.537 h 1.525 v 7.808 h -1.525 z"
       transform="translate(226.036,15.622)"
       inkscape:connector-curvature="0"
       style="fill:#143631" />
    <path
       id="Path_6853"
       data-name="Path 6853"
       d="M 148.2,20.809 V 31.7 h -1.678 l -5.82,-8.274 V 31.7 H 139.13 V 20.809 h 1.7 l 5.817,8.4 v -8.4 z"
       transform="translate(178.889,26.755)"
       inkscape:connector-curvature="0"
       style="fill:#143631" />
    <path
       id="Path_6854"
       data-name="Path 6854"
       d="m 151.978,22.261 v 7.545 a 3.772,3.772 0 0 1 -4.044,3.92 4.045,4.045 0 0 1 -4.028,-2.629 l 1.337,-0.64 a 2.732,2.732 0 0 0 2.736,1.881 2.268,2.268 0 0 0 2.489,-2.379 v -1.444 a 2.914,2.914 0 0 1 -2.784,1.4 3.642,3.642 0 0 1 -3.778,-3.9 3.68,3.68 0 0 1 3.778,-3.936 2.987,2.987 0 0 1 2.816,1.369 v -1.187 z m -4.06,6.316 a 2.425,2.425 0 0 0 2.551,-2.583 2.527,2.527 0 1 0 -5.054,0 2.4,2.4 0 0 0 2.5,2.583"
       transform="translate(185.031,28.382)"
       inkscape:connector-curvature="0"
       style="fill:#143631" />
    <path
       id="Path_6855"
       data-name="Path 6855"
       d="m 156.982,30.249 a 1.419,1.419 0 0 0 0.681,-0.187 l 0.377,1.12 a 2.606,2.606 0 0 1 -1.417,0.434 1.78,1.78 0 0 1 -1.867,-1.6 3.111,3.111 0 0 1 -2.939,1.6 3.724,3.724 0 0 1 -3.733,-4.014 c 0,-2.146 1.305,-4.076 3.733,-4.076 a 2.958,2.958 0 0 1 2.8,1.495 v -1.307 h 1.479 V 29.3 a 0.852,0.852 0 0 0 0.887,0.951 m -4.9,0.016 a 2.48,2.48 0 0 0 2.505,-2.693 2.494,2.494 0 0 0 -2.537,-2.693 2.453,2.453 0 0 0 -2.457,2.709 2.464,2.464 0 0 0 2.489,2.677 m -2.037,-9.321 h 4.821 v 1.244 h -4.821 z"
       transform="translate(190.401,26.929)"
       inkscape:connector-curvature="0"
       style="fill:#143631" />
    <path
       id="Path_6856"
       data-name="Path 6856"
       d="m 156.268,20.809 v 4.9 l 4.745,-4.9 h 2.16 l -5.239,5.257 5.6,5.632 h -2.21 l -5.056,-5.15 V 31.7 H 154.7 V 20.809 Z"
       transform="translate(198.906,26.755)"
       inkscape:connector-curvature="0"
       style="fill:#143631" />
    <path
       id="Path_6857"
       data-name="Path 6857"
       d="m 165.953,29.964 h -1.477 v -1.431 a 2.78,2.78 0 0 1 -2.615,1.525 2.673,2.673 0 0 1 -2.83,-2.956 v -4.946 h 1.509 v 4.617 c 0,1.278 0.654,1.931 1.7,1.931 a 2.272,2.272 0 0 0 2.208,-2.551 v -4 h 1.509 z"
       transform="translate(204.479,28.488)"
       inkscape:connector-curvature="0"
       style="fill:#143631" />
    <path
       id="Path_6858"
       data-name="Path 6858"
       d="m 164.453,22.209 v 1.275 a 2.18,2.18 0 0 1 2.176,-1.369 3.614,3.614 0 0 1 1.12,0.185 l -0.263,1.417 a 2.735,2.735 0 0 0 -1.01,-0.2 c -1.106,0 -1.991,0.734 -1.991,2.286 v 4.217 h -1.509 v -7.811 z"
       transform="translate(209.55,28.435)"
       inkscape:connector-curvature="0"
       style="fill:#143631" />
    <path
       id="Path_6859"
       data-name="Path 6859"
       d="m 167.679,21.633 a 1.021,1.021 0 0 1 -1.074,1.042 1.043,1.043 0 1 1 0,-2.085 1.021,1.021 0 0 1 1.074,1.042 m -1.838,2.535 h 1.525 v 7.808 h -1.525 z"
       transform="translate(212.817,26.475)"
       inkscape:connector-curvature="0"
       style="fill:#143631" />
    <rect
       id="Rectangle_612"
       data-name="Rectangle 612"
       width="4.6680002"
       height="1.353"
       transform="translate(382.117,53.023)"
       x="0"
       y="0"
       style="fill:#143631" />
    <path
       id="Path_6860"
       data-name="Path 6860"
       d="m 178.7,28.794 a 1.393,1.393 0 0 0 0.681,-0.187 l 0.375,1.12 a 2.6,2.6 0 0 1 -1.415,0.437 1.78,1.78 0 0 1 -1.867,-1.6 3.111,3.111 0 0 1 -2.939,1.6 3.724,3.724 0 0 1 -3.735,-4.014 c 0,-2.149 1.305,-4.076 3.733,-4.076 a 2.956,2.956 0 0 1 2.8,1.493 v -1.306 h 1.479 v 5.582 a 0.85,0.85 0 0 0 0.887,0.951 m -4.9,0.016 a 2.481,2.481 0 0 0 2.505,-2.693 2.494,2.494 0 0 0 -2.537,-2.69 2.451,2.451 0 0 0 -2.457,2.706 2.463,2.463 0 0 0 2.49,2.677"
       transform="translate(218.326,28.382)"
       inkscape:connector-curvature="0"
       style="fill:#143631" />
    <rect
       id="Rectangle_613"
       data-name="Rectangle 613"
       width="4.6680002"
       height="1.353"
       transform="translate(399.043,53.023)"
       x="0"
       y="0"
       style="fill:#143631" />
    <path
       id="Path_6861"
       data-name="Path 6861"
       d="M 192.2,20.809 188.728,31.7 h -1.509 l -2.6,-8.089 -2.612,8.089 h -1.49 l -3.488,-10.889 h 1.671 l 2.6,8.384 2.569,-8.384 h 1.509 l 2.583,8.384 2.578,-8.384 z"
       transform="translate(227.619,26.755)"
       inkscape:connector-curvature="0"
       style="fill:#143631" />
    <path
       id="Path_6862"
       data-name="Path 6862"
       d="m 185.712,20.809 v 4.4 a 2.855,2.855 0 0 1 2.688,-1.509 2.606,2.606 0 0 1 2.786,2.862 V 31.7 h -1.511 v -4.761 a 1.659,1.659 0 0 0 -1.728,-1.886 2.289,2.289 0 0 0 -2.238,2.537 V 31.7 H 184.2 V 20.809 Z"
       transform="translate(236.843,26.756)"
       inkscape:connector-curvature="0"
       style="fill:#143631" />
    <path
       id="Path_6863"
       data-name="Path 6863"
       d="m 196.867,30.249 a 1.427,1.427 0 0 0 0.683,-0.187 l 0.375,1.12 a 2.6,2.6 0 0 1 -1.415,0.434 1.78,1.78 0 0 1 -1.867,-1.6 3.109,3.109 0 0 1 -2.939,1.6 3.724,3.724 0 0 1 -3.733,-4.014 c 0,-2.146 1.305,-4.076 3.733,-4.076 a 2.96,2.96 0 0 1 2.8,1.495 v -1.307 h 1.479 V 29.3 a 0.85,0.85 0 0 0 0.885,0.951 m -4.9,0.016 a 2.481,2.481 0 0 0 2.505,-2.693 2.5,2.5 0 0 0 -2.537,-2.693 2.453,2.453 0 0 0 -2.457,2.709 2.463,2.463 0 0 0 2.489,2.677 m -2.039,-9.321 h 4.821 v 1.244 h -4.82 z"
       transform="translate(241.687,26.929)"
       inkscape:connector-curvature="0"
       style="fill:#143631" />
    <path
       id="Path_6864"
       data-name="Path 6864"
       d="m 194.347,22.209 v 1.275 a 2.18,2.18 0 0 1 2.176,-1.369 3.614,3.614 0 0 1 1.12,0.185 l -0.263,1.417 a 2.735,2.735 0 0 0 -1.01,-0.2 c -1.106,0 -1.991,0.734 -1.991,2.286 v 4.217 h -1.509 v -7.811 z"
       transform="translate(247.986,28.435)"
       inkscape:connector-curvature="0"
       style="fill:#143631" />
    <path
       id="Path_6865"
       data-name="Path 6865"
       d="m 196.8,26.633 a 2.318,2.318 0 0 0 2.505,2.194 2.729,2.729 0 0 0 2.286,-1.152 l 0.839,0.9 a 3.954,3.954 0 0 1 -3.266,1.589 3.712,3.712 0 0 1 -3.872,-3.952 3.859,3.859 0 0 1 3.9,-4.137 c 2.117,0 3.406,1.367 3.406,3.794 v 0.763 z m 4.309,-1.168 c -0.016,-1.337 -0.654,-2.1 -1.975,-2.1 a 2.18,2.18 0 0 0 -2.318,2.1 z"
       transform="translate(251.095,28.383)"
       inkscape:connector-curvature="0"
       style="fill:#143631" />
    <path
       id="Path_6866"
       data-name="Path 6866"
       d="m 201.281,21.633 a 1.022,1.022 0 0 1 -1.074,1.042 1.043,1.043 0 1 1 0,-2.085 1.022,1.022 0 0 1 1.074,1.042 m -1.838,2.535 h 1.525 v 7.808 h -1.525 z"
       transform="translate(256.017,26.475)"
       inkscape:connector-curvature="0"
       style="fill:#143631" />
    <path
       id="Path_6867"
       data-name="Path 6867"
       d="m 204.053,20.809 v 6.345 l 3.483,-3.264 h 2.1 l -4.012,3.653 4.512,4.156 h -2.226 l -3.856,-3.58 V 31.7 h -1.509 V 20.809 Z"
       transform="translate(260.425,26.755)"
       inkscape:connector-curvature="0"
       style="fill:#143631" />
    <path
       id="Path_6868"
       data-name="Path 6868"
       d="m 208.419,21.633 a 1.021,1.021 0 0 1 -1.074,1.042 1.043,1.043 0 1 1 0,-2.085 1.021,1.021 0 0 1 1.074,1.042 m -1.838,2.535 h 1.525 v 7.808 h -1.525 z"
       transform="translate(265.199,26.475)"
       inkscape:connector-curvature="0"
       style="fill:#143631" />
    <path
       id="Path_6869"
       data-name="Path 6869"
       d="m 149.971,34.833 a 5.525,5.525 0 1 1 -11.045,0 5.525,5.525 0 1 1 11.045,0 m -5.522,4.2 a 3.941,3.941 0 0 0 3.936,-4.2 3.944,3.944 0 1 0 -7.872,0 3.951,3.951 0 0 0 3.936,4.2"
       transform="translate(178.627,37.466)"
       inkscape:connector-curvature="0"
       style="fill:#143631" />
    <path
       id="Path_6870"
       data-name="Path 6870"
       d="m 145.781,31.76 v -2.069 h 1.509 v 2.069 h 2.4 v 1.369 h -2.4 v 3.81 a 1.258,1.258 0 0 0 1.355,1.353 2.382,2.382 0 0 0 1.305,-0.421 l 0.437,1.1 a 3.756,3.756 0 0 1 -2.117,0.686 2.344,2.344 0 0 1 -2.489,-2.521 v -4.007 h -1.648 V 31.76 Z"
       transform="translate(185.322,38.176)"
       inkscape:connector-curvature="0"
       style="fill:#143631" />
    <path
       id="Path_6871"
       data-name="Path 6871"
       d="m 156.138,37.234 a 1.394,1.394 0 0 0 0.681,-0.187 l 0.375,1.12 a 2.6,2.6 0 0 1 -1.415,0.437 1.78,1.78 0 0 1 -1.867,-1.6 3.112,3.112 0 0 1 -2.94,1.6 3.724,3.724 0 0 1 -3.733,-4.014 c 0,-2.149 1.305,-4.076 3.733,-4.076 a 2.956,2.956 0 0 1 2.8,1.493 V 30.7 h 1.479 v 5.582 a 0.85,0.85 0 0 0 0.887,0.951 m -4.9,0.016 a 2.481,2.481 0 0 0 2.505,-2.693 2.494,2.494 0 0 0 -2.537,-2.69 2.451,2.451 0 0 0 -2.457,2.706 2.463,2.463 0 0 0 2.489,2.677"
       transform="translate(189.315,39.234)"
       inkscape:connector-curvature="0"
       style="fill:#143631" />
    <path
       id="Path_6872"
       data-name="Path 6872"
       d="m 153.614,30.7 v 1.321 a 2.5,2.5 0 0 1 2.4,-1.509 2.342,2.342 0 0 1 2.425,1.634 2.724,2.724 0 0 1 2.615,-1.634 c 1.662,0 2.645,1.058 2.645,2.907 v 5.091 h -1.525 v -4.791 c 0,-1.166 -0.512,-1.851 -1.554,-1.851 -1.058,0 -1.945,0.763 -1.945,2.425 v 4.217 h -1.509 v -4.791 c 0,-1.166 -0.53,-1.851 -1.573,-1.851 -1.058,0 -1.943,0.763 -1.943,2.425 v 4.217 h -1.509 V 30.7 Z"
       transform="translate(195.613,39.234)"
       inkscape:connector-curvature="0"
       style="fill:#143631" />
    <path
       id="Path_6873"
       data-name="Path 6873"
       d="m 166.806,37.234 a 1.394,1.394 0 0 0 0.681,-0.187 l 0.375,1.12 a 2.6,2.6 0 0 1 -1.415,0.437 1.78,1.78 0 0 1 -1.867,-1.6 3.112,3.112 0 0 1 -2.94,1.6 3.724,3.724 0 0 1 -3.733,-4.014 c 0,-2.149 1.305,-4.076 3.733,-4.076 a 2.956,2.956 0 0 1 2.8,1.493 V 30.7 h 1.479 v 5.582 a 0.85,0.85 0 0 0 0.887,0.951 m -4.9,0.016 a 2.481,2.481 0 0 0 2.505,-2.693 2.494,2.494 0 0 0 -2.537,-2.69 2.451,2.451 0 0 0 -2.457,2.706 2.463,2.463 0 0 0 2.483,2.678"
       transform="translate(203.032,39.234)"
       inkscape:connector-curvature="0"
       style="fill:#143631" />
    <path
       id="Path_6874"
       data-name="Path 6874"
       d="m 164.282,30.649 v 1.275 a 2.18,2.18 0 0 1 2.176,-1.369 3.615,3.615 0 0 1 1.12,0.185 l -0.263,1.417 a 2.735,2.735 0 0 0 -1.01,-0.2 c -1.106,0 -1.991,0.734 -1.991,2.286 V 38.46 H 162.8 v -7.811 z"
       transform="translate(209.33,39.287)"
       inkscape:connector-curvature="0"
       style="fill:#143631" />
    <path
       id="Path_6875"
       data-name="Path 6875"
       d="m 174.124,37.234 a 1.394,1.394 0 0 0 0.681,-0.187 l 0.375,1.12 A 2.6,2.6 0 0 1 173.765,38.604 1.78,1.78 0 0 1 171.9,37 a 3.109,3.109 0 0 1 -2.939,1.6 3.724,3.724 0 0 1 -3.733,-4.014 c 0,-2.149 1.305,-4.076 3.733,-4.076 a 2.956,2.956 0 0 1 2.8,1.493 V 30.7 h 1.479 v 5.582 a 0.85,0.85 0 0 0 0.887,0.951 m -4.9,0.016 a 2.481,2.481 0 0 0 2.505,-2.693 2.494,2.494 0 0 0 -2.537,-2.69 2.451,2.451 0 0 0 -2.457,2.706 2.463,2.463 0 0 0 2.489,2.677"
       transform="translate(212.441,39.234)"
       inkscape:connector-curvature="0"
       style="fill:#143631" />
    <path
       id="Path_6876"
       data-name="Path 6876"
       d="m 171.631,29.248 v 6.345 l 3.483,-3.264 h 2.1 l -4.014,3.653 4.512,4.156 h -2.226 l -3.856,-3.58 v 3.58 h -1.509 v -10.89 z"
       transform="translate(218.738,37.606)"
       inkscape:connector-curvature="0"
       style="fill:#143631" />
    <path
       id="Path_6877"
       data-name="Path 6877"
       d="m 182.612,37.234 a 1.394,1.394 0 0 0 0.681,-0.187 l 0.375,1.12 a 2.6,2.6 0 0 1 -1.415,0.437 1.78,1.78 0 0 1 -1.867,-1.6 3.109,3.109 0 0 1 -2.94,1.6 3.724,3.724 0 0 1 -3.733,-4.014 c 0,-2.149 1.305,-4.076 3.733,-4.076 a 2.956,2.956 0 0 1 2.8,1.493 V 30.7 h 1.479 v 5.582 a 0.85,0.85 0 0 0 0.887,0.951 m -4.9,0.016 a 2.481,2.481 0 0 0 2.505,-2.693 2.494,2.494 0 0 0 -2.537,-2.69 2.451,2.451 0 0 0 -2.457,2.706 2.463,2.463 0 0 0 2.489,2.677"
       transform="translate(223.355,39.234)"
       inkscape:connector-curvature="0"
       style="fill:#143631" />
    <path
       id="Path_6878"
       data-name="Path 6878"
       d="m 185.463,38.4 h -1.477 v -1.427 a 2.78,2.78 0 0 1 -2.615,1.525 2.673,2.673 0 0 1 -2.83,-2.956 V 30.6 h 1.509 v 4.617 c 0,1.278 0.654,1.931 1.7,1.931 a 2.272,2.272 0 0 0 2.208,-2.551 v -4 h 1.509 z"
       transform="translate(229.564,39.339)"
       inkscape:connector-curvature="0"
       style="fill:#143631" />
    <path
       id="Path_6879"
       data-name="Path 6879"
       d="m 186.053,29.248 v 6.345 l 3.483,-3.264 h 2.1 l -4.012,3.653 4.512,4.156 h -2.226 l -3.856,-3.58 v 3.58 h -1.509 v -10.89 z"
       transform="translate(237.281,37.606)"
       inkscape:connector-curvature="0"
       style="fill:#143631" />
    <path
       id="Path_6880"
       data-name="Path 6880"
       d="m 190.42,30.072 a 1.021,1.021 0 0 1 -1.074,1.042 1.043,1.043 0 1 1 0,-2.085 1.022,1.022 0 0 1 1.074,1.042 m -1.838,2.537 h 1.525 v 7.808 h -1.525 z"
       transform="translate(242.056,37.326)"
       inkscape:connector-curvature="0"
       style="fill:#143631" />
    <path
       id="Path_6881"
       data-name="Path 6881"
       d="m 192.924,31.76 v -2.069 h 1.509 v 2.069 h 2.4 v 1.369 h -2.4 v 3.81 a 1.258,1.258 0 0 0 1.355,1.353 2.382,2.382 0 0 0 1.305,-0.421 l 0.437,1.1 a 3.756,3.756 0 0 1 -2.117,0.686 2.344,2.344 0 0 1 -2.489,-2.521 v -4.007 h -1.648 V 31.76 Z"
       transform="translate(245.937,38.176)"
       inkscape:connector-curvature="0"
       style="fill:#143631" />
    <path
       id="Path_6882"
       data-name="Path 6882"
       d="m 195.892,35.072 a 2.318,2.318 0 0 0 2.505,2.194 2.729,2.729 0 0 0 2.286,-1.152 l 0.839,0.9 a 3.954,3.954 0 0 1 -3.266,1.589 3.712,3.712 0 0 1 -3.872,-3.952 3.859,3.859 0 0 1 3.9,-4.137 c 2.117,0 3.406,1.367 3.406,3.794 v 0.763 z M 200.2,33.9 c -0.016,-1.337 -0.654,-2.1 -1.975,-2.1 a 2.18,2.18 0 0 0 -2.318,2.1 z"
       transform="translate(249.932,39.234)"
       inkscape:connector-curvature="0"
       style="fill:#143631" />
    <path
       id="Path_6883"
       data-name="Path 6883"
       d="m 208.342,29.248 v 7.063 a 4.2,4.2 0 0 1 -8.4,0 v -7.063 h 1.573 v 6.985 a 2.629,2.629 0 1 0 5.257,0 v -6.985 z"
       transform="translate(257.079,37.606)"
       inkscape:connector-curvature="0"
       style="fill:#143631" />
    <path
       id="Path_6884"
       data-name="Path 6884"
       d="m 206.012,30.649 v 1.275 a 2.18,2.18 0 0 1 2.176,-1.369 3.615,3.615 0 0 1 1.12,0.185 l -0.263,1.417 a 2.735,2.735 0 0 0 -1.01,-0.2 c -1.106,0 -1.991,0.734 -1.991,2.286 v 4.217 h -1.509 v -7.811 z"
       transform="translate(262.985,39.287)"
       inkscape:connector-curvature="0"
       style="fill:#143631" />
    <path
       id="Path_6885"
       data-name="Path 6885"
       d="m 214.01,38.4 h -1.477 v -1.427 a 2.78,2.78 0 0 1 -2.615,1.525 2.673,2.673 0 0 1 -2.83,-2.956 V 30.6 h 1.512 v 4.617 c 0,1.278 0.654,1.931 1.7,1.931 a 2.272,2.272 0 0 0 2.208,-2.551 v -4 h 1.509 z"
       transform="translate(266.269,39.339)"
       inkscape:connector-curvature="0"
       style="fill:#143631" />
  </g>
</svg>
