<svg version="1.1" id="Layer_2" xmlns="http://www.w3.org/2000/svg" xmlns:xlink="http://www.w3.org/1999/xlink" x="0px" y="0px"  viewBox="0 0 459.78 101.15" style="enable-background:new 0 0 459.78 101.15;" xml:space="preserve"><style type="text/css"> .st0{fill:#AFBD22;} .st1{fill:#003B5C;} .st2{fill:#FFFFFF;}</style><g> <g>  <path class="st0" d="M85.91,101.09c-11.2-1.2-12.29-21.9-13.53-44.24c-0.14-2.37-0.26-4.74-0.41-7.12C70.44,24.73,67.39,0,48.81,0   C12.85,0,0,56.85,0,56.85h58.69l-0.89-7.12H10.59c8.15-35.53,43.04-61.04,50.43,0l0.88,7.12c2.48,24.09,9.47,43.58,24.22,44.29   C86.21,101.14,85.99,101.1,85.91,101.09"/>  <path class="st1" d="M88.82,49.73l1.41,7.12h39.14c-1.76,11.88-34.11,45.65-42.34,0l-1.41-7.12c-1.29-5.05-5.05-44.63-28.26-49.26   c-0.48-0.09-0.98-0.18-1.49-0.24c-0.08-0.01-0.35-0.03-0.24-0.01l0.12,0.02c15.96,2.53,18.76,25.88,20.2,49.49   c0.15,2.38,0.28,4.75,0.41,7.12c1.28,23.02,2.41,44.29,14.58,44.29c21.46,0,42.94-28.82,46.89-51.41H88.82z"/> </g> <g>  <path class="st1" d="M189.48,82.6l-6.01,18.23h-3.02l-2.89-8.25l-0.98-3.07l-1.13,2.99l-3.27,8.33h-3.07L164,82.6h2.09l4.64,17.07   l1.44-3.66l3.58-8.82l-1.57-4.59h2.11l5.7,17.07l5.54-17.07H189.48z"/>  <path class="st1" d="M207.05,100.83h-2.17l-2.37-6.86h-7.48l-2.66,6.86h-2.06l7.17-18.23h3.25L207.05,100.83z M201.94,92.32   L199,83.79l-3.33,8.53H201.94z"/>  <path class="st1" d="M213.75,100.83h-2.06V82.6h2.06V100.83z M224.86,100.83h-2.76l-7.71-9.44v-0.46l7.3-8.33h2.6l-7.58,8.43   L224.86,100.83z"/>  <path class="st1" d="M244.73,100.83h-2.17l-2.37-6.86h-7.48l-2.66,6.86H228l7.17-18.23h3.25L244.73,100.83z M239.63,92.32   l-2.94-8.53l-3.33,8.53H239.63z"/>  <path class="st1" d="M257.62,100.83h-2.06V82.6h2.06V100.83z M268.73,100.83h-2.76l-7.71-9.44v-0.46l7.3-8.33h2.6l-7.58,8.43   L268.73,100.83z"/>  <path class="st1" d="M288.88,91.73c0,2.84-0.83,5.11-2.5,6.83c-1.67,1.72-3.94,2.58-6.83,2.58c-2.77,0-4.96-0.89-6.57-2.66   c-1.55-1.7-2.32-3.97-2.32-6.81c0-2.87,0.86-5.15,2.58-6.83c1.72-1.68,3.99-2.53,6.81-2.53c2.84,0,5.04,0.89,6.63,2.68   C288.14,86.7,288.88,88.95,288.88,91.73z M286.74,91.7c0-2.22-0.6-4.02-1.8-5.41c-1.25-1.44-2.96-2.17-5.13-2.17   c-2.25,0-4,0.72-5.26,2.17c-1.19,1.36-1.78,3.15-1.78,5.36c0,2.18,0.58,3.98,1.73,5.39c1.24,1.55,2.95,2.32,5.13,2.32   c2.32,0,4.12-0.74,5.39-2.22C286.16,95.79,286.74,93.97,286.74,91.7z"/>  <path class="st1" d="M305.9,84.36h-6.24v16.47h-2.06V84.36h-6.24V82.6h14.54V84.36z"/>  <path class="st1" d="M322.57,100.83h-2.17l-2.37-6.86h-7.48l-2.66,6.86h-2.06l7.17-18.23h3.25L322.57,100.83z M317.47,92.32   l-2.94-8.53l-3.33,8.53H317.47z"/>  <path class="st1" d="M341.4,100.83h-2.06v-8.3h-10.05v8.3h-2.06V82.6h2.06v8.22h10.05V82.6h2.06V100.83z"/>  <path class="st1" d="M350.36,100.83h-2.06V82.6h2.06V100.83z"/> </g> <g>  <g>   <path class="st1" d="M120.16,34.69L105.52,8.65l0.24,4.3v21.74h-6.52V0.54h8.16l15.02,26.76l-0.29-4.3V0.54h6.47v34.15H120.16z"    />   <path class="st1" d="M132.58,34.69V30L149.2,6h-15.36V0.54h23.19v4.35l-16.81,24.34h17.82v5.46H132.58z"/>   <path class="st1" d="M184.56,5.75v28.93h-6.52V5.75h-11.11V0.54h28.69v5.22H184.56z"/>   <path class="st1" d="M228.61,35.27c-4.78-0.24-8.16-2.7-11.64-6.86l-5.07-6.09c-0.72,0.05-1.45,0.1-2.22,0.1h-3.38v12.27h-6.57    V0.54h12.46c7.29,0,12.32,3.43,12.32,10.87c0,4.01-1.93,7.44-5.99,9.37l4.2,4.83c2.08,2.37,4.54,3.82,7.29,4.54L228.61,35.27z     M211.13,5.71h-4.83v11.93h3.67c5.02,0,7.78-1.93,7.78-6.04C217.74,7.44,215.91,5.71,211.13,5.71z"/>   <path class="st1" d="M258.11,34.69l-3.67-11.16h-12.51l-4.2,11.16h-6.52l13.24-34.15h8.84l11.59,34.15H258.11z M250.29,10.54    L248.6,4.5l-1.98,6.04l-2.9,8.16h9.13L250.29,10.54z"/>   <path class="st1" d="M290.11,34.69L275.47,8.65l0.24,4.3v21.74h-6.52V0.54h8.16l15.02,26.76l-0.29-4.3V0.54h6.47v34.15H290.11z"    />   <path class="st1" d="M314.76,35.22c-5.46,0-8.89-1.26-10.72-2.27l1.93-4.83c2.37,0.87,4.83,1.69,8.7,1.69    c4.15,0,6.81-1.35,6.81-4.35c0-6.71-16.38-4.93-16.38-16.42c0-6.18,5.6-8.79,11.4-8.79c5.31,0,7.92,1.16,9.81,1.98l-1.93,4.69    c-1.93-0.68-4.06-1.35-7.68-1.35c-3.53,0-5.31,1.06-5.31,3.43c0,5.75,16.71,5.27,16.71,16.18    C328.1,32.32,321.62,35.22,314.76,35.22z"/>   <path class="st1" d="M343.46,23.72h-3.38v10.97h-6.57V0.54h12.46c7.29,0,12.32,4.01,12.32,11.45    C358.29,18.46,353.31,23.72,343.46,23.72z M344.91,5.66h-4.83V18.6h3.67c5.17-0.05,7.78-2.32,7.78-6.42S349.69,5.66,344.91,5.66z    "/>   <path class="st1" d="M378.91,35.27c-11.45,0-17.39-6.96-17.39-17.73c0-11.25,7.1-17.53,18.31-17.53    c11.83,0,17.29,7.2,17.29,17.63C397.13,28.65,390.6,35.27,378.91,35.27z M379.4,5.27c-7.83,0-11.25,5.27-11.25,12.22    c0,6.81,3.33,12.51,10.92,12.51c8.11,0,11.4-5.36,11.4-12.41C390.46,10.54,386.88,5.27,379.4,5.27z"/>   <path class="st1" d="M431.62,35.27c-4.78-0.24-8.16-2.7-11.64-6.86l-5.07-6.09c-0.72,0.05-1.45,0.1-2.22,0.1h-3.38v12.27h-6.57    V0.54h12.46c7.29,0,12.32,3.43,12.32,10.87c0,4.01-1.93,7.44-5.99,9.37l4.2,4.83c2.08,2.37,4.54,3.82,7.29,4.54L431.62,35.27z     M414.13,5.71h-4.83v11.93h3.67c5.02,0,7.78-1.93,7.78-6.04C420.75,7.44,418.91,5.71,414.13,5.71z"/>   <path class="st1" d="M448.72,5.75v28.93h-6.52V5.75h-11.11V0.54h28.69v5.22H448.72z"/>  </g> </g> <g>  <path class="st1" d="M190.42,75.41l-3.66-11.11H174.3l-4.19,11.11h-6.49l13.18-34.01h8.8l11.55,34.01H190.42z M182.63,51.36   l-1.68-6.01l-1.97,6.01l-2.89,8.13h9.09L182.63,51.36z"/>  <path class="st1" d="M217.26,75.89c-11.3,0-18.23-6.25-18.23-17.27c0-11.69,6.49-17.61,18.38-17.61c5.34,0,8.13,1.06,10.05,1.83   l-1.78,4.86c-2.45-0.67-4.19-1.25-8.32-1.25c-6.49,0-11.69,3.22-11.69,11.69c0,8.42,5.58,12.27,12.46,12.27   c1.44,0,2.55-0.1,3.46-0.19v-9.09h6.49v12.99C224.62,75.36,221.54,75.89,217.26,75.89z"/>  <path class="st1" d="M235.54,75.41V41.4h21.02v5.1h-14.53v9.38h13.47v4.91h-13.47v9.48h15.63v5.15H235.54z"/>  <path class="st1" d="M285.09,75.41l-14.58-25.93l0.24,4.28v21.65h-6.49V41.4h8.13l14.96,26.65l-0.29-4.28V41.4h6.45v34.01H285.09z   "/>  <path class="st1" d="M318.14,75.89c-11.98,0-18.33-6.64-18.33-17.27c0-11.4,6.25-17.61,18.14-17.61c5.53,0,8.47,1.01,10.29,1.83   l-1.78,4.86c-2.45-0.72-4.09-1.2-8.42-1.25c-6.54-0.05-11.59,3.46-11.59,11.69c0,8.18,5.29,12.27,12.56,12.27   c3.9,0,5.87-0.43,7.84-1.01l1.49,5C325.98,75.22,323.14,75.89,318.14,75.89z"/>  <path class="st1" d="M350.19,63.43v11.98h-6.45V63.62L331.77,41.4h7.41l8.03,16.79l8.51-16.79h7.26L350.19,63.43z"/> </g></g></svg>